<svg width="74" height="60" viewBox="0 0 74 60" fill="none" xmlns="http://www.w3.org/2000/svg">
<path d="M72.8918 21.0116L62.1797 9.19125C61.3178 8.3294 60.2097 7.83679 59.1015 7.83679H46.7888V5.2511C46.7888 2.54232 44.6955 0.449097 42.1098 0.449097H4.802C2.09323 0.449241 0 2.54232 0 5.25124V34.9251V37.3877V47.8536C0 50.193 1.97 52.1631 4.30954 52.1631H6.24346C6.83145 56.3699 10.3923 59.5508 14.7755 59.5508C19.1588 59.5508 22.7196 56.3699 23.3076 52.1631H44.3261H46.7888H50.5696C51.1576 56.3699 54.7184 59.5508 59.1017 59.5508C63.4849 59.5508 67.0458 56.3699 67.6337 52.1631H73.8769H74V23.8436C74 22.7354 73.6306 21.7503 72.8918 21.0116ZM70.9218 22.6123C71.2912 22.8586 71.4143 23.3511 71.4143 23.7205V27.5374H52.9451V15.2246H64.1497L70.9218 22.6123ZM2.46261 26.3062H19.7006C20.4394 26.3062 20.9318 25.8137 20.9318 25.0749C20.9318 24.3362 20.4394 23.8437 19.7006 23.8437H2.46261V20.1499H14.7754C15.5142 20.1499 16.0066 19.6574 16.0066 18.9186C16.0066 18.1799 15.5142 17.6874 14.7754 17.6874H2.46261V5.25124C2.46261 3.89678 3.44769 2.91185 4.802 2.91185H41.9868C43.3412 2.91185 44.3261 4.02001 44.3261 5.25124V7.83694V34.9251H2.46261V26.3062ZM14.7754 57.0882C11.3278 57.0882 8.61893 54.3794 8.61893 50.9317C8.61893 47.4842 11.3277 44.7753 14.7754 44.7753C18.2229 44.7753 20.9318 47.484 20.9318 50.9317C20.9318 54.3794 18.2229 57.0882 14.7754 57.0882ZM44.3261 49.7005H23.3074C22.7561 45.7557 19.5904 42.7145 15.5838 42.3509C15.5546 42.3481 15.5248 42.3467 15.4954 42.3442C15.3945 42.3362 15.2938 42.3278 15.192 42.323C15.0539 42.3164 14.9151 42.3126 14.7754 42.3126C14.6357 42.3126 14.4969 42.3164 14.3588 42.323C14.2569 42.3278 14.1562 42.336 14.0554 42.3442C14.0259 42.3467 13.9962 42.3481 13.9669 42.3509C9.9604 42.7145 6.79466 45.7557 6.24332 49.7005H4.30954C3.32446 49.7005 2.46261 48.8386 2.46261 47.8536V37.3877H44.3261V49.7005ZM59.1015 57.0882C55.654 57.0882 52.9451 54.3794 52.9451 50.9317C52.9451 47.4842 55.6538 44.7753 59.1015 44.7753C62.5491 44.7753 65.258 47.484 65.258 50.9317C65.258 54.3794 62.5491 57.0882 59.1015 57.0882ZM67.6336 49.7005C67.0823 45.7557 63.9165 42.7145 59.91 42.3509C59.8807 42.3481 59.851 42.3467 59.8215 42.3442C59.7207 42.3362 59.62 42.3278 59.5181 42.323C59.38 42.3164 59.2412 42.3126 59.1015 42.3126C58.9619 42.3126 58.8231 42.3164 58.685 42.323C58.5831 42.3278 58.4824 42.336 58.3815 42.3442C58.3521 42.3467 58.3224 42.3481 58.2931 42.3509C54.2865 42.7145 51.1208 45.7557 50.5695 49.7005H46.7886V37.3877V34.9251V10.2994H59.1015C59.4709 10.2994 59.9634 10.5457 60.3328 10.7919L62.0976 12.7619H52.5757C51.4675 12.7619 50.4825 13.7469 50.4825 14.8551V27.9066C50.4825 29.0148 51.4675 29.9999 52.5757 29.9999H71.4143V36.1563H65.2578C64.5191 36.1563 64.0266 36.6488 64.0266 37.3876C64.0266 38.1263 64.5191 38.6188 65.2578 38.6188H71.4143V49.7003L67.6336 49.7005Z" fill="#2A4563"/>
<path d="M14.7751 48.4692C13.4207 48.4692 12.3125 49.5774 12.3125 50.9318C12.3125 52.2863 13.4207 53.3945 14.7751 53.3945C16.1296 53.3945 17.2377 52.2863 17.2377 50.9318C17.2377 49.5774 16.1296 48.4692 14.7751 48.4692Z" fill="#2A4563"/>
<path d="M59.1013 48.4692C57.7468 48.4692 56.6387 49.5774 56.6387 50.9318C56.6387 52.2863 57.7468 53.3945 59.1013 53.3945C60.4557 53.3945 61.5639 52.2863 61.5639 50.9318C61.5639 49.5774 60.4557 48.4692 59.1013 48.4692Z" fill="#2A4563"/>
</svg>
