<svg width="56" height="74" viewBox="0 0 56 74" fill="none" xmlns="http://www.w3.org/2000/svg">
<path d="M17.7658 7.87567H36.6594C37.3117 7.87567 37.8403 7.34697 37.8403 6.69483C37.8403 6.04268 37.3117 5.51398 36.6594 5.51398H17.7658C17.1137 5.51398 16.585 6.04268 16.585 6.69483C16.585 7.34697 17.1137 7.87567 17.7658 7.87567Z" fill="#2A4563"/>
<path d="M9.18708 40.4249C7.23364 40.4249 5.64453 42.014 5.64453 43.9674C5.64453 45.9208 7.23364 47.51 9.18708 47.51C11.1405 47.51 12.7296 45.9208 12.7296 43.9674C12.7296 42.014 11.1405 40.4249 9.18708 40.4249ZM9.18708 45.1483C8.53588 45.1483 8.00623 44.6186 8.00623 43.9674C8.00623 43.3162 8.53588 42.7866 9.18708 42.7866C9.83828 42.7866 10.3679 43.3162 10.3679 43.9674C10.3679 44.6186 9.83828 45.1483 9.18708 45.1483Z" fill="#2A4563"/>
<path d="M46.8131 40.4249C44.8598 40.4249 43.2705 42.014 43.2705 43.9674C43.2705 45.9208 44.8598 47.51 46.8131 47.51C48.7663 47.51 50.3556 45.9208 50.3556 43.9674C50.3556 42.014 48.7663 40.4249 46.8131 40.4249ZM46.8131 45.1483C46.1619 45.1483 45.6322 44.6186 45.6322 43.9674C45.6322 43.3162 46.1619 42.7866 46.8131 42.7866C47.4643 42.7866 47.9939 43.3162 47.9939 43.9674C47.9939 44.6186 47.4641 45.1483 46.8131 45.1483Z" fill="#2A4563"/>
<path d="M47.6947 6.10352e-05H8.30501C4.23344 6.10352e-05 0.921078 3.31258 0.921078 7.38399V51.0526C0.921078 51.7047 1.44978 52.2334 2.10193 52.2334H2.49554V60.2235C2.49554 62.611 4.43781 64.5533 6.82533 64.5533H8.69784L5.99086 67.2602C5.9896 67.2615 1.26683 71.9843 1.26683 71.9843C0.929107 72.322 0.828027 72.8299 1.01082 73.2711C1.19362 73.7124 1.62423 74.0001 2.10177 74.0001H53.8978C54.3753 74.0001 54.8061 73.7124 54.9887 73.2711C55.1715 72.8298 55.0706 72.322 54.7329 71.9843L50.0095 67.261C50.0093 67.2609 47.3019 64.5534 47.3019 64.5534H49.1744C51.5617 64.5534 53.5042 62.6112 53.5042 60.2237V52.2336H53.8978C54.5501 52.2336 55.0786 51.7049 55.0786 51.0527V7.38399C55.0788 3.31258 51.7664 6.10352e-05 47.6947 6.10352e-05ZM8.30501 2.36176H47.6947C50.464 2.36176 52.7169 4.61482 52.7169 7.38399V11.0278H3.28278V7.38399C3.28278 4.61482 5.53584 2.36176 8.30501 2.36176ZM52.7171 49.8717H3.28278V13.3896H26.819V35.4485H6.82533C6.17318 35.4485 5.64448 35.9772 5.64448 36.6294C5.64448 37.2815 6.17318 37.8102 6.82533 37.8102H49.1745C49.8268 37.8102 50.3554 37.2815 50.3554 36.6294C50.3554 35.9772 49.8268 35.4485 49.1745 35.4485H29.1807V13.3896H52.7169V49.8717H52.7171ZM23.808 52.2334H32.1917V57.4682H23.808V52.2334ZM4.95281 71.6382L7.31451 69.2765H48.6853L51.0471 71.6382H4.95281ZM46.3237 66.9148H9.67621L12.0379 64.5531H43.962L46.3237 66.9148ZM51.1426 60.2235C51.1426 61.3088 50.2598 62.1916 49.1745 62.1916H6.82533C5.74005 62.1916 4.85724 61.3088 4.85724 60.2235V52.2334H21.4463V58.649C21.4463 59.3012 21.975 59.8299 22.6271 59.8299H33.3726C34.0249 59.8299 34.5534 59.3012 34.5534 58.649V52.2334H51.1425V60.2235H51.1426Z" fill="#2A4563"/>
</svg>
