<svg width="76" height="41" viewBox="0 0 76 41" fill="none" xmlns="http://www.w3.org/2000/svg">
<path d="M7.89592 35.9516L9.0704 38.5934H11.6245C9.7238 38.6926 8.79595 38.0577 7.89592 35.9516Z" fill="#2A4563"/>
<path fill-rule="evenodd" clip-rule="evenodd" d="M0.0121149 24.3869C0.0121149 24.3869 3.80192 32.9023 6.2255 38.3605L6.35728 38.6573C7.095 40.2542 7.8838 40.8411 9.95407 41.0023H9.96226C23.5842 41.0023 43.0029 41.0023 56.1773 40.9843C56.6153 40.912 57.0406 40.8337 57.4532 40.7434C57.8722 40.653 58.2848 40.5507 58.6847 40.4362C59.0973 40.3218 59.4908 40.1954 59.8844 40.0568C60.278 39.9183 60.6652 39.7738 61.046 39.6112C62.8361 38.8584 64.2199 37.9731 65.4451 36.9734C66.6021 36.0301 67.6104 34.9782 68.698 33.8435L68.8729 33.6612L68.8792 33.6552L69.0882 33.4374C69.4207 33.0908 69.7814 32.7146 70.263 32.2279L77.9502 24.4472C77.9819 24.417 78.001 24.3749 78.001 24.3327C78.001 24.2424 77.9248 24.1762 77.8359 24.1762H57.2437V22.3755V22.3574L57.2183 22.1346C56.8565 20.4604 56.336 19.0211 55.6758 17.7986C55.0093 16.57 54.2031 15.5583 53.27 14.7393C52.3178 13.9022 51.2514 13.2759 50.0771 12.8302C48.9091 12.3846 47.6332 12.1256 46.2684 12.0172L46.1668 12.0112H29.6309V5.64567C29.6309 5.56136 29.561 5.49512 29.4722 5.49512H27.2568C27.1616 5.49512 27.0918 5.56136 27.0918 5.64567V12.0112H24.4066V0.538801C24.4066 0.454489 24.3305 0.388245 24.2416 0.388245H22.0262C21.9374 0.388245 21.8612 0.454489 21.8739 0.538801V12.0172H17.4177C17.3416 12.0172 17.2717 12.0654 17.259 12.1377L14.6057 24.1762H0.164462C0.145418 24.1762 0.120027 24.1822 0.100984 24.1882C0.0184627 24.2183 -0.019624 24.3086 0.0121149 24.3869ZM54.5527 21.8576C53.9931 19.7115 53.4638 18.4946 52.0449 16.9675L51.9243 16.841C51.8037 16.7206 51.6831 16.6062 51.5561 16.4978C50.8388 15.8715 50.02 15.3957 49.1122 15.0524C48.2045 14.7092 47.1952 14.5044 46.1161 14.4201H19.3348L17.1892 24.1762H54.711V22.4839C54.6856 22.3635 54.6538 22.237 54.6221 22.1165L54.5586 21.8576H54.5527ZM7.89592 35.9516L3.73192 26.5851H72.3642L68.4158 30.5778C68.2916 30.7028 68.1606 30.8385 68.0243 30.9797C67.9308 31.0765 67.8347 31.176 67.7366 31.2764L67.0003 32.0472C65.9465 33.1553 64.9753 34.1731 63.8772 35.0764C62.7853 35.9738 61.5729 36.7627 60.0241 37.4131C59.694 37.5516 59.3512 37.6841 59.0084 37.8045C58.6656 37.925 58.3165 38.0394 57.9674 38.1357C57.6246 38.2321 57.2755 38.3164 56.9263 38.3947C56.5836 38.473 56.2408 38.5392 55.8917 38.5934H12.4997H11.6245H9.0704L7.89592 35.9516Z" fill="#2A4563"/>
<path d="M56.001 32.3692H43.0007" stroke="#2A4563" stroke-width="2.5" stroke-linecap="round"/>
</svg>
