<svg width="56" height="74" viewBox="0 0 56 74" fill="none" xmlns="http://www.w3.org/2000/svg">
<path d="M16.9808 0.342819L16.5642 0.671295L16.5486 4.32673L16.5174 7.98218L12.7571 8.01239C9.16595 8.02749 8.98109 8.04183 8.67299 8.34085C8.34929 8.66932 8.34929 8.68367 8.27207 21.6639L8.19485 34.6584L4.41887 35.8817C0.552409 37.1495 0.105469 37.3881 0.105469 38.104C0.105469 38.2829 1.98605 45.7131 4.26677 54.6044C6.56309 63.5116 8.58173 71.3587 8.75177 72.0601C8.98265 72.9557 9.18311 73.4329 9.46079 73.6715L9.83051 74H27.9998H46.1699L46.5396 73.6572C46.8789 73.374 47.4795 71.1955 51.41 55.9183C53.8755 46.3255 55.895 38.3433 55.895 38.1493C55.895 37.4183 55.5557 37.2545 51.5948 35.9564L47.726 34.6871V21.7522V8.81733L47.3867 8.4292L47.0326 8.05618L43.2566 8.01163L39.4806 7.98142L39.4346 4.29653L39.4034 0.611626L38.9877 0.313362C38.6024 0 38.4635 0 27.9842 0H17.3817L16.9808 0.342819ZM37.0619 5.17698L37.0158 7.98218L28.4624 8.01239C23.7621 8.04184 19.678 8.01239 19.4159 7.96783L18.9074 7.89307V5.14828V2.38839H27.9998H37.0923L37.0619 5.17698ZM45.2604 17.0827V23.871H27.9998H10.7392V17.0827V10.2943H27.9998H45.2604V17.0827ZM45.2604 30.0629C45.2604 32.1515 45.2449 33.8671 45.2144 33.8671C45.1988 33.8671 41.3308 32.6287 36.6305 31.1072C31.9295 29.5849 27.907 28.3465 27.6917 28.3465C27.4764 28.3465 23.6388 29.5547 19.1694 31.0317C14.6844 32.5087 10.9553 33.7168 10.878 33.7168C10.8008 33.7168 10.7392 32.1953 10.7392 29.9874V26.2572H27.9998H45.2604V30.0629ZM26.4585 51.3975V71.6131H18.7841H11.1089L6.97883 55.4555C4.69811 46.5785 2.83313 39.223 2.81753 39.1037C2.80193 38.9542 6.34703 37.7317 14.438 35.0458C20.834 32.927 26.1661 31.1963 26.2737 31.1963C26.4125 31.1812 26.4585 35.3139 26.4585 51.3975ZM41.2224 35.0601C47.8033 37.2084 53.197 38.9693 53.2126 38.9837C53.2282 38.9988 51.3632 46.3542 49.0668 55.3052L44.8907 71.6124H36.9074H28.9241V51.3968C28.9241 36.4473 28.9702 31.1812 29.0934 31.1812C29.2018 31.1812 34.6579 32.927 41.2224 35.0601Z" fill="#2A4563"/>
<path d="M14.8239 16.3367C14.3614 16.7845 14.331 17.2911 14.7623 17.8137L15.0704 18.2018H17.6904C20.0944 18.2018 20.3261 18.1716 20.603 17.9035C20.7878 17.7246 20.9111 17.4112 20.9111 17.0827C20.9111 16.7543 20.7878 16.4409 20.603 16.2619C20.3253 15.9931 20.0944 15.9637 17.7521 15.9637C15.2397 15.9637 15.1937 15.9637 14.8239 16.3367Z" fill="#2A4563"/>
<path d="M31.2671 16.3072C30.8358 16.755 30.8202 17.501 31.2359 17.9035C31.5284 18.1867 31.7445 18.2018 36.2295 18.2018H40.9297L41.2534 17.7986C41.6544 17.3062 41.5771 16.6198 41.0842 16.2174C40.7917 15.9939 40.3135 15.9637 36.1834 15.9637H31.5908L31.2671 16.3072Z" fill="#2A4563"/>
<path d="M15.6099 44.0572C9.90811 46.4743 9.50719 46.6978 9.72247 47.5035C9.84571 47.9958 10.4003 48.4882 10.8324 48.4882C11.295 48.4882 21.697 44.0723 22.0519 43.7136C22.4989 43.2961 22.4373 42.55 21.9287 42.1174C21.6978 41.9384 21.3889 41.7745 21.2509 41.7745C21.1113 41.7745 18.5685 42.8038 15.6099 44.0572Z" fill="#2A4563"/>
<path d="M34.7493 42.2215C34.3796 42.5945 34.3024 42.7584 34.3952 43.0869C34.4412 43.3104 34.6113 43.6094 34.7493 43.7431C35.027 44.0119 45.4603 48.4874 45.8144 48.4874C47.0164 48.4874 47.4633 46.9658 46.4618 46.3542C45.8456 45.9812 35.7664 41.7738 35.4888 41.7738C35.3351 41.7745 35.0114 41.9829 34.7493 42.2215Z" fill="#2A4563"/>
</svg>
