<svg width="76" height="74" viewBox="0 0 76 74" fill="none" xmlns="http://www.w3.org/2000/svg">
<path d="M75.0785 8.53839C75.0785 3.92074 71.7004 0.342523 67.133 0.0254657V-6.10352e-05H23.4327C19.0627 -6.10352e-05 15.4872 3.8423 15.4872 8.53839V54.0768H0.920288V65.4615C0.920288 70.1576 4.09852 73.573 8.86579 73.9999H51.2419C56.4064 73.9999 60.5116 69.5884 60.5116 64.0384V22.7691H75.0785V8.53839ZM3.56884 65.4615V56.923H15.4872H43.2965V65.4615C43.2965 67.7184 44.0323 69.678 45.324 71.1537H8.99818C5.82009 70.8692 3.56884 68.5922 3.56884 65.4615ZM57.8632 64.0384C57.8632 68.023 54.9499 71.1537 51.3744 71.1537C48.1962 70.8691 45.9449 68.5922 45.9449 65.4615V54.0768H18.1356V8.53839C18.1356 5.40766 20.5192 2.84614 23.4325 2.84614H59.9637C59.7914 3.04148 59.6278 3.24476 59.4744 3.45629C58.5424 4.70257 57.9659 6.28194 57.8766 8.05323C57.8758 8.06677 57.8745 8.08 57.874 8.09354C57.8671 8.24063 57.8632 8.38881 57.8632 8.53839V22.7692V64.0384ZM72.43 19.923H60.5116V8.53839C60.5116 8.42445 60.5147 8.31207 60.5203 8.20141C60.5215 8.17915 60.524 8.15783 60.5253 8.13588C60.5308 8.047 60.537 7.95844 60.546 7.87159C60.548 7.85229 60.551 7.83376 60.5532 7.81462C60.5634 7.7259 60.5745 7.63765 60.5883 7.55111C60.5909 7.53445 60.5943 7.51826 60.5971 7.50161C60.6119 7.41382 60.6278 7.32682 60.6463 7.24136C60.6498 7.22502 60.654 7.20914 60.6578 7.1928C60.6766 7.10891 60.6967 7.02579 60.7192 6.94423C60.7246 6.92477 60.7305 6.90594 60.736 6.88664C60.7577 6.81053 60.7806 6.73504 60.8052 6.66095C60.8139 6.63511 60.8232 6.60974 60.8322 6.58421C60.8548 6.51977 60.8781 6.4558 60.9029 6.39308C60.917 6.35697 60.9321 6.32163 60.947 6.28614C60.9675 6.23743 60.9883 6.18902 61.0099 6.14139C61.0325 6.09189 61.056 6.04318 61.0799 5.99492C61.0943 5.96535 61.1091 5.93593 61.1242 5.90683C61.1584 5.84114 61.1934 5.77608 61.2302 5.71258C61.2344 5.70526 61.2386 5.69779 61.2429 5.69047C62.051 4.30489 63.4325 3.4306 64.8915 3.04241C65.4097 2.91307 65.9423 2.84661 66.4707 2.84661C69.384 2.84661 72.4298 4.83892 72.4298 8.53886L72.43 19.923Z" fill="#2A4563"/>
<path d="M24.7568 15.6537H37.9994C38.794 15.6537 39.3237 15.0845 39.3237 14.2306C39.3237 13.3767 38.794 12.8075 37.9994 12.8075H24.7568C23.9622 12.8075 23.4325 13.3767 23.4325 14.2306C23.4325 15.0845 23.9623 15.6537 24.7568 15.6537Z" fill="#2A4563"/>
<path d="M51.242 38.423H24.7568C23.9622 38.423 23.4325 38.9922 23.4325 39.8461C23.4325 40.7 23.9622 41.2692 24.7568 41.2692H51.2418C52.0364 41.2692 52.5661 40.7 52.5661 39.8461C52.5661 38.9922 52.0364 38.423 51.242 38.423Z" fill="#2A4563"/>
<path d="M27.4053 46.9614H26.081H24.7568C23.9622 46.9614 23.4325 47.5307 23.4325 48.3846C23.4325 49.2384 23.9622 49.8077 24.7568 49.8077H26.081H27.4053C28.1999 49.8077 28.7296 49.2384 28.7296 48.3846C28.7296 47.5307 28.1999 46.9614 27.4053 46.9614Z" fill="#2A4563"/>
<path d="M39.3237 46.9614H35.3509C34.5563 46.9614 34.0266 47.5307 34.0266 48.3846C34.0266 49.2384 34.5563 49.8077 35.3509 49.8077H39.3237C40.1183 49.8077 40.648 49.2384 40.648 48.3846C40.648 47.5307 40.1183 46.9614 39.3237 46.9614Z" fill="#2A4563"/>
<path d="M24.7568 32.7306H26.081H28.7296C29.5242 32.7306 30.0539 32.1614 30.0539 31.3075C30.0539 30.4536 29.5242 29.8844 28.7296 29.8844H26.081H24.7568C23.9622 29.8844 23.4325 30.4536 23.4325 31.3075C23.4325 32.1614 23.9623 32.7306 24.7568 32.7306Z" fill="#2A4563"/>
<path d="M51.242 29.8846H36.6751C35.8805 29.8846 35.3508 30.4538 35.3508 31.3077C35.3508 32.1615 35.8805 32.7308 36.6751 32.7308H51.2418C52.0364 32.7308 52.5661 32.1615 52.5661 31.3077C52.5661 30.4538 52.0364 29.8846 51.242 29.8846Z" fill="#2A4563"/>
<path d="M24.7568 24.1922H26.081H35.3508C36.1454 24.1922 36.6751 23.6229 36.6751 22.769C36.6751 21.9152 36.1454 21.3459 35.3508 21.3459H26.081H24.7568C23.9622 21.3459 23.4325 21.9152 23.4325 22.769C23.4325 23.6229 23.9623 24.1922 24.7568 24.1922Z" fill="#2A4563"/>
<path d="M51.2421 21.3461H43.2966C42.502 21.3461 41.9723 21.9153 41.9723 22.7692C41.9723 23.6231 42.502 24.1923 43.2966 24.1923H51.2421C52.0367 24.1923 52.5663 23.6231 52.5663 22.7692C52.5663 21.9153 52.0365 21.3461 51.2421 21.3461Z" fill="#2A4563"/>
</svg>
