<svg width="74" height="70" viewBox="0 0 74 70" fill="none" xmlns="http://www.w3.org/2000/svg">
<path fill-rule="evenodd" clip-rule="evenodd" d="M63.4363 36.7143C68.8667 33.4285 71.0882 33.4285 73.3097 36.8571C74.4204 38.5714 74.1736 41.1428 72.6924 42.5713L54.0565 59.7141C52.8224 60.9998 51.4647 61.857 49.9837 62.1428C49.49 62.2857 48.873 62.4285 48.2558 62.4285L32.2117 65.2857C31.4073 65.3323 30.5899 65.394 29.7679 65.456C28.0674 65.5844 26.3473 65.7143 24.6833 65.7143H8.63914V70H0V32.8571H8.63929V35.8498C9.89727 34.9195 11.6461 33.7565 13.5759 32.8573V7.14274C13.5759 4.71411 15.3038 2.85703 17.2784 2.85703H28.386V1.42851C28.386 0.571372 28.8796 0 29.6201 0H41.9617C42.7022 0 43.1958 0.571372 43.1958 1.42851V2.85703H54.3034C56.4015 2.85703 58.0059 4.85708 58.0059 7.14274V40.588L63.4363 36.7143ZM40.7276 2.85703H30.8542L30.8543 4.28571V14.1427L35.0505 10.2855C35.5441 9.85696 36.1612 9.85696 36.5315 10.2855L40.7276 14.1427V4.28554V2.85703ZM17.2783 5.71422C16.5378 5.71422 16.0442 6.42839 16.0442 7.14274V31.857C17.1549 31.5713 18.1423 31.4285 19.0062 31.4285C19.2295 31.4285 19.4484 31.4385 19.6632 31.4573C21.0209 31.5567 22.3163 32.0166 23.4492 33C25.4238 34.7142 27.8922 35.5714 30.4839 35.5714H35.1738H35.2972C38.8763 35.5714 42.2086 37.5713 44.1832 40.857C45.2938 42.7139 45.5407 44.2853 44.9239 45.571C47.9744 45.5634 51.2377 45.2723 52.699 44.2856L55.2908 42.4285V7.14274C55.2908 6.28559 54.6738 5.71422 54.0566 5.71422H43.196V14.4286C43.196 15.4287 42.7022 16.4287 41.8384 16.8572C41.4531 17.0484 41.0679 17.1251 40.6936 17.1016C40.1406 17.1326 39.6057 16.9438 39.1232 16.5715L35.791 13.2857L32.2118 16.5715C31.7427 17.024 31.2237 17.189 30.6869 17.1408C30.3315 17.1301 29.9805 16.9943 29.7434 16.8571C28.8794 16.4285 28.3858 15.4284 28.3858 14.4284V5.71422H17.2783ZM2.46839 67.1426H6.1709V65.7141V51.5713H8.63914V62.8569H24.6834C27.0283 62.8569 29.4967 62.7141 31.8416 62.2856L48.1326 59.4284C48.6264 59.4284 48.9966 59.4284 49.4903 59.2856C50.601 59.1428 51.5884 58.5712 52.3289 57.5713L52.4523 57.4285L71.2115 40.5713C71.7053 40.1427 71.7053 39.2855 71.4584 38.8571C70.471 37.1429 69.9774 36.4285 64.7939 39.4285L54.1799 46.9998C51.3412 48.7141 45.911 48.8569 40.1103 48.7141H39.4932H37.8888H26.5344C22.8319 48.7141 22.8319 50.8569 22.8319 51.5713C22.8319 52.4284 22.3383 52.9998 21.5978 52.9998C20.8573 52.9998 20.3637 52.4284 20.3637 51.5713C20.3637 47.9999 22.7087 45.8571 26.5346 45.8571H38.0123H38.506H39.2465C39.7606 45.8221 40.222 45.7697 40.6306 45.7025L40.6875 45.6928C40.7698 45.6788 40.85 45.6642 40.9278 45.649C40.9438 45.646 40.9599 45.6428 40.9758 45.6396C41.0643 45.6219 41.1504 45.6034 41.2329 45.584L41.2371 45.583C41.4943 45.5224 41.7211 45.4541 41.9188 45.3794C41.9235 45.3777 41.9282 45.3759 41.933 45.3742C41.9404 45.3716 41.9478 45.3689 41.9549 45.3661C41.9826 45.3554 42.0085 45.3442 42.0343 45.333C42.0429 45.3293 42.0514 45.3257 42.0599 45.322C42.099 45.3051 42.1385 45.2885 42.1752 45.2706L42.1941 45.2611C42.4908 45.1139 42.7113 44.9345 42.8256 44.7142C42.8282 44.7081 42.8301 44.7006 42.8324 44.6941C42.943 44.3912 42.8129 43.5533 42.2086 42.7141C40.7276 39.9997 38.1358 38.5712 35.2972 38.5712H30.4839C27.2751 38.5712 24.313 37.4285 21.9682 35.4284C20.4872 34.1427 18.2657 34.1427 15.3037 35.2856C15.156 35.3427 15.0082 35.3753 14.8605 35.3778C12.4216 36.4399 10.0698 38.1125 8.63914 39.2855V42.828H6.1709V37.857V35.7142H2.46839V67.1426Z" fill="#2A4563"/>
</svg>
