<svg width="78" height="79" viewBox="0 0 78 79" fill="none" xmlns="http://www.w3.org/2000/svg">
<path d="M67.5891 3.89847C66.7266 2.91259 65.371 2.41972 64.0154 2.7894H63.8922L57.4844 5.25404C54.7733 5.99342 51.939 6.36311 49.1047 6.36311H28.895C26.0607 6.36311 23.2265 5.99342 20.5153 5.25404L14.1075 2.7894H13.9843C12.752 2.41972 11.2733 2.91259 10.4106 3.89847C9.42468 5.00754 9.17832 6.36311 9.79437 7.59536L13.1216 16.2214C9.91755 30.8857 9.91755 46.5359 13.1216 62.9253L10.1641 71.4282C9.67119 72.6604 9.91755 74.1392 10.7803 75.1251C11.5196 75.9876 12.5055 76.4807 13.6146 76.4807C13.8611 76.4807 14.1075 76.4807 14.354 76.4807L21.6246 75.2484C22.1174 75.1252 22.6104 75.1252 23.1033 75.0019C23.7195 75.0019 24.2124 74.8787 24.8286 74.7554C26.9235 74.3857 29.1416 74.1392 31.1133 74.1392H46.8867C48.8583 74.1392 51.0765 74.3857 53.1714 74.8786C53.6643 75.0018 54.2805 75.0018 54.8967 75.1251C55.3895 75.2483 55.8826 75.2483 56.3754 75.3716L63.646 76.6038C65.0016 76.8503 66.2338 76.3573 67.0964 75.3716C67.959 74.2625 68.2055 72.9069 67.7126 71.6747L64.8783 63.0487C68.0823 46.043 68.0823 30.3929 64.8783 16.3447L68.2055 7.71868C68.8214 6.36311 68.575 5.00754 67.5891 3.89847ZM65.9872 6.7328L62.4135 15.7285C62.4135 15.975 62.4135 16.2214 62.4135 16.4679C65.6175 30.3929 65.6175 45.9198 62.4135 62.8022C62.4135 63.0487 62.4135 63.295 62.4135 63.4184L65.4942 72.4141C65.6174 72.7838 65.4942 73.2766 65.2477 73.6463C65.1245 73.7695 64.7548 74.1392 64.1386 74.016L56.868 72.7838C56.3751 72.6606 55.8821 72.6606 55.3893 72.5373C54.7731 72.4141 54.157 72.4141 53.664 72.2907C51.3227 71.9211 48.9812 71.6746 46.8864 71.6746H31.1131C28.895 71.6746 26.6769 71.9211 24.3356 72.2907C23.7194 72.4139 23.2265 72.4139 22.6103 72.5373C22.1174 72.6604 21.6244 72.6604 21.1315 72.7838L13.8609 74.016C13.2448 74.1392 12.8751 73.7695 12.7519 73.6463C12.5054 73.2766 12.3822 72.7838 12.6287 72.2907L15.5862 63.4182C15.5862 63.1717 15.5862 63.0485 15.5862 62.802C12.3822 46.5357 12.3822 30.8856 15.5862 16.4677C15.5862 16.2212 15.5862 15.9749 15.5862 15.8515L12.0126 6.85598C11.7661 6.36311 11.8895 5.8701 12.2592 5.50041C12.3823 5.37723 12.6288 5.13072 12.9985 5.13072C13.1217 5.13072 13.245 5.13072 13.245 5.13072L19.6529 7.71854H19.7761C22.7336 8.45792 25.8143 8.82761 28.8951 8.82761H49.1048C52.1855 8.82761 55.2664 8.45792 58.1005 7.59536H58.2237L64.6316 5.13072C65.2478 5.00754 65.6175 5.37723 65.7407 5.50041C66.1104 5.8701 66.2336 6.36311 65.9872 6.7328Z" fill="#2A4563"/>
<path d="M52.5551 16.2213H25.4447C24.7053 16.2213 24.2124 16.7142 24.2124 17.4535V37.1704C24.2124 37.9098 24.7053 38.4026 25.4447 38.4026H52.5551C53.2945 38.4026 53.7874 37.9098 53.7874 37.1704V17.4537C53.7875 16.7143 53.2945 16.2213 52.5551 16.2213ZM51.3229 35.9381H26.6769V18.6859H51.3229V35.9381Z" fill="#2A4563"/>
<path d="M35.303 24.8475H42.6968C43.4362 24.8475 43.9291 24.3546 43.9291 23.6153C43.9291 22.8759 43.4362 22.383 42.6968 22.383H35.303C34.5637 22.383 34.0708 22.8759 34.0708 23.6153C34.0707 24.3545 34.5637 24.8475 35.303 24.8475Z" fill="#2A4563"/>
<path d="M31.6063 31.0089H46.3938C47.1332 31.0089 47.6261 30.516 47.6261 29.7766C47.6261 29.0372 47.1332 28.5444 46.3938 28.5444H31.6063C30.8669 28.5444 30.374 29.0372 30.374 29.7766C30.374 30.516 30.8669 31.0089 31.6063 31.0089Z" fill="#2A4563"/>
</svg>
