<svg width="32" height="79" viewBox="0 0 32 79" fill="none" xmlns="http://www.w3.org/2000/svg">
<path fill-rule="evenodd" clip-rule="evenodd" d="M15.2043 76.9753H16.9951V70.3792C23.932 69.9165 29.4313 64.1262 29.4313 57.0774V7.33247H27.6405V14.6226L23.2132 17.1795L21.4224 18.2117L16.9951 20.7686V2.35798H15.2043V20.7711L10.777 18.2142L8.98618 17.1795L4.55888 14.6226V7.33247H3.66347H2.76807V57.0774C2.76807 64.1262 8.26736 69.9165 15.2043 70.3792V76.9753ZM16.9951 68.5834V60.082V58.0126V47.8422L27.6405 41.6962V51.8666L18.7859 57.0774V59.1667L27.6405 53.9335V57.0774C27.6405 63.1413 22.9421 68.1232 16.9951 68.5834ZM4.55888 57.0774V53.9335L15.2043 60.082V68.5834C9.25729 68.1232 4.55888 63.1413 4.55888 57.0774ZM15.2043 58.0126L4.55888 51.8666V41.6962L13.6121 46.923V44.8561L4.55888 39.6293V29.0635L15.2043 35.2095V45.7753V47.8422V58.0126ZM16.9951 45.7753V35.2095V33.1426V22.838L27.6405 16.692V26.9966L18.5866 32.2238V34.2907L27.6405 29.0635V39.6293L16.9951 45.7753ZM15.2043 33.1401L4.55888 26.9941V16.692L15.2043 22.838V33.1401Z" fill="#2A4563" stroke="#2A4563" stroke-width="0.5"/>
<path d="M38.2858 -0.129265H-6.28564V79.4626H38.2858V-0.129265Z" stroke="#2A4563" stroke-width="0.5"/>
</svg>
