<svg width="31" height="78" viewBox="0 0 31 78" fill="none" xmlns="http://www.w3.org/2000/svg">
<g clip-path="url(#clip0_559_2355)">
<path fill-rule="evenodd" clip-rule="evenodd" d="M14.3267 76.3087H16.1175V69.7125C23.0544 69.2499 28.5537 63.4596 28.5537 56.4107V6.66582H26.7629V13.9559L22.3356 16.5128L20.5448 17.545L16.1175 20.1019V1.69133H14.3267V20.1044L9.89937 17.5475L8.10855 16.5128L3.68126 13.9559V6.66582H2.78585H1.89044V56.4107C1.89044 63.4596 7.38974 69.2499 14.3267 69.7125V76.3087ZM16.1175 67.9167V59.4153V57.3459V47.1756L26.7629 41.0296V51.1999L17.9083 56.4107V58.5L26.7629 53.2668V56.4107C26.7629 62.4746 22.0645 67.4566 16.1175 67.9167ZM3.68126 56.4107V53.2668L14.3267 59.4153V67.9167C8.37966 67.4566 3.68126 62.4746 3.68126 56.4107ZM14.3267 57.3459L3.68126 51.1999V41.0296L12.7345 46.2564V44.1895L3.68126 38.9627V28.3969L14.3267 34.5429V45.1087V47.1756V57.3459ZM16.1175 45.1087V34.5429V32.476V22.1713L26.7629 16.0253V26.33L17.709 31.5571V33.624L26.7629 28.3969V38.9627L16.1175 45.1087ZM14.3267 32.4735L3.68126 26.3275V16.0253L14.3267 22.1713V32.4735Z" fill="#2A4563" stroke="#2A4563" stroke-width="0.5"/>
<path d="M37.4083 -0.795914H-7.16315V78.7959H37.4083V-0.795914Z" stroke="#2A4563" stroke-width="0.5"/>
</g>
<defs>
<clipPath id="clip0_559_2355">
<rect width="30.2449" height="78" fill="white"/>
</clipPath>
</defs>
</svg>
