<svg width="30" height="77" viewBox="0 0 30 77" fill="none" xmlns="http://www.w3.org/2000/svg">
<path d="M1.67297 64.9302C1.03099 64.2409 0.637207 63.3177 0.637207 62.3038V67.5565C0.637207 66.5426 1.03099 65.6194 1.67297 64.9302Z" fill="#2A4563"/>
<path d="M1.67297 59.6775C1.03099 58.9882 0.637207 58.065 0.637207 57.0511V62.3038C0.637207 61.2899 1.03099 60.3667 1.67297 59.6775Z" fill="#2A4563"/>
<path d="M1.67297 54.4248C1.03099 53.7355 0.637207 52.8123 0.637207 51.7984V57.0511C0.637207 56.0372 1.03099 55.114 1.67297 54.4248Z" fill="#2A4563"/>
<path d="M1.67297 49.1721C1.03099 48.4828 0.637207 47.5596 0.637207 46.5457V51.7984C0.637207 50.7845 1.03099 49.8613 1.67297 49.1721Z" fill="#2A4563"/>
<path d="M28.3271 49.1721C28.9691 49.8613 29.3629 50.7845 29.3629 51.7984V46.5457C29.3629 47.5596 28.9691 48.4828 28.3271 49.1721Z" fill="#2A4563"/>
<path d="M28.3271 54.4248C28.9691 55.114 29.3629 56.0372 29.3629 57.0511V51.7984C29.3629 52.8123 28.9691 53.7355 28.3271 54.4248Z" fill="#2A4563"/>
<path d="M28.3271 59.6775C28.9691 60.3667 29.3629 61.2899 29.3629 62.3038V57.0511C29.3629 58.065 28.9691 58.9882 28.3271 59.6775Z" fill="#2A4563"/>
<path d="M28.3271 64.9302C28.9691 65.6194 29.3629 66.5426 29.3629 67.5565V62.3038C29.3629 63.3177 28.9691 64.2409 28.3271 64.9302Z" fill="#2A4563"/>
<path fill-rule="evenodd" clip-rule="evenodd" d="M29.3629 22.458C29.3629 20.7261 28.6884 19.0977 27.4639 17.8732L22.6618 13.0712C21.9023 12.3114 21.4838 11.3016 21.4838 10.2274V9.37547C22.266 8.94097 22.797 8.10694 22.797 7.15046V3.21093C22.797 1.80797 21.6557 0.666656 20.2527 0.666656H9.74735C8.34439 0.666656 7.20308 1.80797 7.20308 3.21093V7.15046C7.20308 8.10694 7.73409 8.94097 8.51625 9.37547V10.2274C8.51625 11.3016 8.09801 12.3116 7.33834 13.0711L2.53622 17.8732C1.31169 19.0979 0.637207 20.7261 0.637207 22.458V46.5457C0.637207 47.5596 1.03099 48.4828 1.67297 49.1721C1.03099 49.8613 0.637207 50.7845 0.637207 51.7984C0.637207 52.8123 1.03099 53.7355 1.67297 54.4248C1.03099 55.114 0.637207 56.0372 0.637207 57.0511C0.637207 58.065 1.03099 58.9882 1.67297 59.6775C1.03099 60.3667 0.637207 61.2899 0.637207 62.3038C0.637207 63.3177 1.03099 64.2409 1.67297 64.9302C1.03099 65.6194 0.637207 66.5426 0.637207 67.5565V70.1829C0.637207 73.758 3.54589 76.6667 7.12101 76.6667H22.8791C26.4542 76.6667 29.3629 73.758 29.3629 70.1829V67.5565C29.3629 66.5426 28.9691 65.6194 28.3271 64.9302C28.9691 64.2409 29.3629 63.3177 29.3629 62.3038C29.3629 61.2899 28.9691 60.3667 28.3271 59.6775C28.9691 58.9882 29.3629 58.065 29.3629 57.0511C29.3629 56.0372 28.9691 55.114 28.3271 54.4248C28.9691 53.7355 29.3629 52.8123 29.3629 51.7984C29.3629 50.7845 28.9691 49.8613 28.3271 49.1721C28.9691 48.4828 29.3629 47.5596 29.3629 46.5457V22.458ZM9.66528 3.21093C9.66528 3.16579 9.70205 3.12886 9.74735 3.12886H20.2527C20.2981 3.12886 20.3348 3.16579 20.3348 3.21093V7.15046C20.3348 7.1956 20.2981 7.23253 20.2527 7.23253H9.74735C9.70205 7.23253 9.66528 7.1956 9.66528 7.15046V3.21093ZM3.09941 22.458C3.09941 21.3838 3.51765 20.374 4.27733 19.6145L9.07944 14.8122C10.304 13.5875 10.9785 11.9593 10.9785 10.2274V9.69473H19.0216V10.2274C19.0216 11.9591 19.696 13.5875 20.9207 14.8123L25.7228 19.6145C26.4823 20.374 26.9007 21.3838 26.9007 22.458V46.5457V51.7984V57.0511V62.3038V67.5565V70.1829C26.9007 72.4005 25.0966 74.2045 22.8791 74.2045H7.12101C4.90355 74.2045 3.09941 72.4005 3.09941 70.1829V67.5565V62.3038V57.0511V51.7984V46.5457V22.458Z" fill="#2A4563"/>
<path d="M15.0001 42.6256C18.6693 42.6256 21.6546 39.6404 21.6546 35.9712C21.6546 32.7624 16.9773 25.8286 16.0397 24.4711C15.8039 24.1297 15.4152 23.9258 15.0001 23.9258C14.585 23.9258 14.1964 24.1297 13.9605 24.4711C13.023 25.8286 8.3457 32.7624 8.3457 35.9712C8.3457 39.6404 11.3309 42.6256 15.0001 42.6256ZM13.3898 30.1114C13.9605 29.1265 14.5357 28.204 15.0035 27.4756C16.9677 30.5321 19.1276 34.4647 19.1276 35.9712C19.1276 38.2472 17.2759 40.0986 15.0001 40.0986C12.7243 40.0986 10.8727 38.2472 10.8727 35.9712C10.8727 35.5148 11.118 34.0301 13.3898 30.1114Z" fill="#2A4563"/>
</svg>
