<svg width="74" height="75" viewBox="0 0 74 75" fill="none" xmlns="http://www.w3.org/2000/svg">
<path fill-rule="evenodd" clip-rule="evenodd" d="M63.4002 45.9497C68.8232 43.115 71.0417 43.115 73.2602 46.0729C74.3694 47.5519 74.123 49.7704 72.6438 51.003L54.0332 65.7928C52.8008 66.9021 51.445 67.6416 49.966 67.8881C49.4729 68.0115 48.8568 68.1347 48.2405 68.1347L32.2181 70.5997C31.4149 70.6398 30.5985 70.6931 29.7776 70.7466C28.0794 70.8574 26.3617 70.9694 24.7 70.9694H8.67767V74.6669H0.050293V42.6222H8.67767V45.204C12.0661 43.0393 19.0203 39.41 23.4676 42.7454C25.4395 44.2243 27.9045 44.9638 30.4927 44.9638H35.2995C38.8737 44.9638 42.2015 46.6892 44.1734 49.524C45.2826 51.1262 45.5292 52.482 44.9129 53.5912C47.9941 53.5912 51.3218 53.3447 52.8008 52.482L63.4002 45.9497ZM2.51532 72.2017H6.21279V70.9691V60H8.67782V68.5041H24.7003C27.042 68.5041 29.507 68.3809 31.8487 68.0112L48.1175 65.5462C48.6106 65.5462 48.9804 65.5462 49.4733 65.423H49.5965C50.5824 65.2997 51.5685 64.8067 52.308 63.944L52.4312 63.8208L71.1651 49.2774C71.658 48.9077 71.658 48.1682 71.4115 47.7983C70.4254 46.3193 69.9325 45.703 64.756 48.2913L54.1566 54.8235C51.3218 56.3025 45.8989 56.4257 40.1062 56.3025H39.4899H37.8877H28.2743C24.5768 56.3025 24.5768 58.1512 24.5768 58.7675C24.5768 59.507 24.0838 60 23.3444 60C22.6049 60 22.1119 59.507 22.1119 58.7675C22.1119 55.6863 24.4537 53.8376 28.2744 53.8376H38.011H39.3668C40.969 53.7143 42.448 53.4679 42.8177 52.8516C42.9411 52.605 42.8177 51.8655 42.3248 51.126C40.7226 48.7842 38.1344 47.5518 35.2996 47.5518H30.4929C27.4117 47.5518 24.3304 46.5659 21.9887 44.8403C18.5378 42.1289 11.6358 46.0728 8.67782 48.1681V50.0001H6.21279V46.9356V45.0869H2.51532V72.2017Z" fill="#2A4563"/>
<path d="M22.2349 22.9022C30.3693 22.9022 37.0248 16.2468 37.0248 8.11238C37.0248 7.37288 36.5318 6.87994 35.7923 6.87994C27.6579 6.87994 21.0024 13.5354 21.0024 21.6698C21.0024 22.4092 21.4954 22.9022 22.2349 22.9022ZM34.4365 9.46802C33.9436 15.1374 29.2601 19.8209 23.4673 20.4372C24.0836 14.6445 28.6439 10.0843 34.4365 9.46802Z" fill="#2A4563"/>
<path d="M27.9046 27.5856C27.2883 27.8321 26.9186 28.5716 27.1651 29.1878C28.6441 32.8852 31.3555 35.8432 34.9298 37.4454C36.9017 38.3081 38.997 38.8012 41.0923 38.8012C42.8178 38.8012 44.5432 38.4314 46.1456 37.8152C46.7619 37.5686 47.1316 36.8291 46.8851 36.213C44.0501 28.5716 35.546 24.7508 27.9046 27.5856ZM36.0391 35.1037C33.4508 33.9945 31.3555 31.8992 30.1231 29.4343C32.8345 28.6948 35.6693 28.9414 38.2575 30.1738C40.8458 31.2831 42.941 33.3783 44.1735 35.8432C41.4619 36.5827 38.6273 36.3363 36.0391 35.1037Z" fill="#2A4563"/>
<path d="M44.5435 21.4231C44.6667 21.4231 44.9132 21.4231 45.0364 21.2999C48.4873 19.4512 51.0756 16.4932 52.3081 12.6725C53.5406 8.85187 53.1708 4.78466 51.3221 1.33359C51.0756 0.717301 50.3361 0.4709 49.7199 0.840647C46.269 2.68938 43.6808 5.64735 42.4482 9.46802C41.2157 13.2887 41.5855 17.3559 43.4342 20.807C43.6806 21.1767 44.0504 21.4231 44.5435 21.4231ZM44.7899 10.2075C45.6525 7.49609 47.3781 5.27761 49.7198 3.67527C50.7058 6.2635 50.829 9.22147 49.9663 11.9329C49.1036 14.6443 47.3781 16.8628 45.0364 18.4651C44.0504 15.7537 43.9272 12.9189 44.7899 10.2075Z" fill="#2A4563"/>
</svg>
