<svg width="1676" height="1000" viewBox="0 0 1676 1000" fill="none" xmlns="http://www.w3.org/2000/svg">
<rect y="573.705" width="63.745" height="426.295" rx="7.96813" fill="#EBECE6"/>
<rect x="133.467" y="424.303" width="63.745" height="424.303" rx="7.96813" fill="#EBECE6"/>
<rect x="402.391" y="213.147" width="63.745" height="426.295" rx="7.96813" fill="#EBECE6"/>
<rect x="535.857" y="545.817" width="65.7371" height="310.757" rx="7.96813" fill="#EBECE6"/>
<rect x="671.314" y="535.857" width="63.745" height="426.295" rx="7.96813" fill="#EBECE6"/>
<rect x="804.781" y="426.295" width="65.7371" height="316.733" rx="7.96813" fill="#EBECE6"/>
<rect x="1342.63" y="155.378" width="65.7371" height="316.733" rx="7.96813" fill="#EBECE6"/>
<rect x="940.238" y="360.558" width="65.7371" height="223.108" rx="7.96813" fill="#EBECE6"/>
<rect x="1075.7" y="412.351" width="63.745" height="426.295" rx="7.96813" fill="#EBECE6"/>
<rect x="1209.16" y="239.044" width="63.745" height="426.295" rx="7.96813" fill="#EBECE6"/>
<rect x="1478.09" y="199.203" width="63.745" height="426.295" rx="7.96813" fill="#EBECE6"/>
<rect x="1611.55" width="63.745" height="426.295" rx="7.96813" fill="#EBECE6"/>
<rect x="266.932" y="529.88" width="65.7371" height="223.108" rx="7.96813" fill="#EBECE6"/>
</svg>
