<svg width="1676" height="1001" viewBox="0 0 1676 1001" fill="none" xmlns="http://www.w3.org/2000/svg">
<rect y="574.039" width="63.745" height="426.295" rx="7.96813" fill="#ECF1F6"/>
<rect x="133.466" y="424.637" width="63.745" height="424.303" rx="7.96813" fill="#ECF1F6"/>
<rect x="402.39" y="213.481" width="63.745" height="426.295" rx="7.96813" fill="#ECF1F6"/>
<rect x="535.857" y="546.151" width="65.7371" height="310.757" rx="7.96813" fill="#ECF1F6"/>
<rect x="671.315" y="536.19" width="63.745" height="426.295" rx="7.96813" fill="#ECF1F6"/>
<rect x="804.781" y="426.629" width="65.7371" height="316.733" rx="7.96813" fill="#ECF1F6"/>
<rect x="1342.63" y="155.712" width="65.7371" height="316.733" rx="7.96813" fill="#ECF1F6"/>
<rect x="940.239" y="360.892" width="65.7371" height="223.108" rx="7.96813" fill="#ECF1F6"/>
<rect x="1075.7" y="412.685" width="63.745" height="426.295" rx="7.96813" fill="#ECF1F6"/>
<rect x="1209.16" y="239.378" width="63.745" height="426.295" rx="7.96813" fill="#ECF1F6"/>
<rect x="1478.09" y="199.537" width="63.745" height="426.295" rx="7.96813" fill="#ECF1F6"/>
<rect x="1611.55" y="0.333984" width="63.745" height="426.295" rx="7.96813" fill="#ECF1F6"/>
<rect x="266.932" y="530.214" width="65.7371" height="223.108" rx="7.96813" fill="#ECF1F6"/>
</svg>
