<svg xmlns="http://www.w3.org/2000/svg" width="952" height="584" fill="none"><g clip-path="url(#a)"><rect width="952" height="584" fill="#fff" rx="32"/><path fill="#EBECE6" stroke="#171717" stroke-linecap="round" stroke-linejoin="round" stroke-width=".1" d="m607.785 428.1.498.4 1.994 2.9 1.396.5 1.894 1.3 1.395 3.2.1 2.2-.499 2.6.299 2.1-.797.8.698 2 .199 1.9 1.196 2.2 1.197 1.1 1.296 2.4 1.595-.2 1.295 1.1v1.1l1.097 1.8-.797 2.6-1.695.8-1.196 3.1-.299 2-.599.5-1.894.3-1.694 1.3.997 2.2-.898.7-.299 1.5-.697.7-2.692-.9-.698-2.5-1.694-2.7-4.885-2.6-1.196-1.1.399-1.5-.1-1.4-1.396-2.4.299-2.6.798-2.2-.299-2.7.099-2.1-.697-2.9.498-2.1.897-1.3-.199-2.2-1.495-1.1-1.595-.2v-3.1l-.299-.6h1.694l-1.694-2.8 3.189-5.3 1.097.3.797 2.1 3.39-1.2ZM377.212 428.8l-2.792 1.1-.697-.4v-2.1l.897-.7 2.592.6v1.5ZM926.679 472.4l-3.19-2.8-2.293-1.7-1.595-.7-3.489.4-2.89-.9-1.795-.9.499-.6-1.894-3-.798-1.9.997-1.4.199-2.3-1.694-3.3-1.695-1.2-1.296-1.6 4.386-.3 5.284-1.3 3.19.3 1.096-.2 3.489-.1-.498-.7 2.293-.5 1.295 1.5 1.595 1-.897.9 2.293 1h1.196l3.29 2.5v.7l-1.894 1.5-.2 1.1 3.19 3.4 2.393 1.4 3.19 1.5.199.9-.897 2.5h-2.991l.599.9 1.894 1.2 6.08 4.4 1.496-.3 2.193.9.199 1.3-.997 1.4 1.894 1.4.798 1.5-1.795.5 1.396 1.5.499 2.6-2.194-.1-2.492.5-2.99-4.7.099-1-3.09-2.1.1-1.7-.798-1.2-1.694.2-1.894.9-2.891-1.6-1.196.2-.3-1.1-1.794-1.7-3.19.9ZM561.032 334.9l-.897 2.4.1.8 1.595 2.9 2.292 2.9-.598.7-.598 1.9.698 2-3.888.3-2.492-.9-1.296 1.4 2.592.7.498 1.1-.498 1.4-2.193 1.2.399 1.5-.499.7 1.097 1.6-.299 1.8-2.492.5-1.795 1.7-1.296.9-.099 1.9-2.393-.5-1.595.2-2.293 1.1-2.791-.2-2.592.2-1.894.7-.997 1.3-2.99 1.2-4.984-.7-4.985-.9-2.592-.5-3.987-.3-8.573-1.5-1.096-.5-3.091-3.5v-2.3l-4.685 1.5-3.09-.2-3.39.3-1.395.6-1.196 2.2-1.097.4-2.093-.4-.898-.8-2.99-.3-.499-1.5-.797-.3-1.994 1.9-2.293-.4-1.495-.8-.399-1-3.289-.8.299-.8-1.097-2.5.997-3-.897-.7 1.695-.5.697-.5 3.489 1.6.898 1.4 1.196.3-.1 1.3 1.595-.5.997-1.6.199-1.9 2.792-.1 2.691.4 1.396 1.9 3.788-.5 1.096-.9 3.888-1.5 5.682-.5.1-1.4 1.994.3 1.495.8 2.492-.5 1.097.5.199 1.1 1.196.9 1.695.4.299-1.5-.299-1.9-1.695-.3.598-1.3-.099-1.3-2.493-2.8.599-1.3 3.09-1.8 2.891-.8.997-1 .697-2.9 2.293.9 1.296-.9.199-2.8 2.194 1.2.797 1.3 3.888.4 1.395-.7 2.492.4.1-1.1 1.296-1.6h1.196l.299-3.2 1.197-.2 1.595.8 1.395-.4 4.785 1.7 1.495-.1 2.991 1.7 3.788.2 1.196-.9 5.084 1.5.997 1.6ZM423.665 301.8l1.595-.5.797.8 1.197.1 2.99 2.3-.399 1.5 1.695.7.399 2-2.293 1.3-.598 1.7-1.695-.7-1.296 1.3-1.395 2.5-.2 1.7 1.994 2.4-1.096 1.7-3.39.4-2.791-2.6-3.29-1.5-1.694-.1-.399-2-.598-.6.797-2.7-1.894.6-.498 1.4-1.296.6-2.193.3-2.293-.3-.498-.6.698-1.4-.698-.7.398-1.6-1.595-1.1-3.588-.4-.897.3-.598-2-4.187-1.1-.499-2-1.595-1.8-3.19 1-2.891-2.4v-1.2l-.897-2.2 5.084-2.5 4.686-1.7.299 1.3 1.196.7 1.196-.6 3.888 1.1 3.19-1.5.598-1.2 2.093.3-.199-.9 1.395-.7 1.496.8 1.495-1 1.097 1.3 2.492-.8.498 1.6 2.592 1.4 1.894-.4 1.695 1.3 2.592 1.1-.997 2.9-1.097 1.3.698 1.1ZM712.355 409.6l.199 3.7-.897 1.8-1.994-.6-2.193.5-.997 2-1.196 1.2v2.6l.399 4.2-1.595.7-2.891 3.7 2.991 1.8 1.694 2.2 2.393 2.5.498 1.2-1.695-.2-.897.4h-1.794l-1.495.6-3.39-2.5-3.489.3-1.495 1.1-3.389.4-.997 2.2-1.894.3-.299 1.4-1.595-.5-1.595 1.1.698 1 .897 2.7-.2.8-2.492 1.2-1.794-.3-3.19.4-3.389.9-1.695-1.1-3.688-1.2-.898.6-2.392-1.4-1.196-1.7-1.595.5-4.187-.1-.199.9-1.894.2-2.991 1.1-2.592-.2-2.392.2-.997 1-2.991-.2v-4.2l.499-1.7-.897-1-1.695-3.3-3.389-1.8-3.29-3.2.997-.3 1.096-1.7-1.395-2.9v-3.3l1.096-.6 1.795-.1 1.096-1.6 1.595-1.7.299-1.4-1.595-1-1.296-1.6-2.891-1.5-2.392-3.9-.598-2.4.399-2.3 2.093-1 .199-1.9.898-.7 4.286 2.5-1.794 2 .897 1.8 3.688-.6 3.888.3 5.283 1 3.489.4 2.493-.5 9.37 1.7 4.187.2 2.293-.6 1.595-.9 1.196-1.6 3.289-2.1 3.19-1.2 4.387-.9 2.89-.4 4.486 2.3 3.19.4.897.6 1.695-.5 2.492 2.6 2.193.7 2.592.5h1.994ZM591.337 392.2l2.791-.7 1.495.8-.498 2.5-1.595 2.7-.1 2.6.499.8 2.392 1.2 3.29 2.9-.299.8-3.091-.1-.498.8 3.19 3.7-.199 2.2-2.493-.3-.697.8-3.19.5 1.395 2.2-2.293.2-1.993 1.7-.499 1.7.1 1.5-1.695.2-.498.7.598 3 1.097 1.6-.1.8-1.097 1-1.694-.7-6.181-3.8-.598-.9-1.595.1-1.096-.6.299-1.6-2.991-2.5-1.495-1.6-.399-2.2-2.392-1.1-4.985-4.1-1.694-2-2.792-2.3-2.292-2.4-1.296-4-3.39-3.2-1.894-1.3-.099-1.4.299-5 1.196-.6 1.794.4 1.695 1.8 1.794 1 2.692-3.2 3.19.3 1.495-1.2 2.692 1.6 2.492.1 2.791.7 1.695-.6 1.595 1.3 2.193-1 1.794.3 1.794-.2 2.592.7 2.193.2 1.097.8 1.296 2.2 2.193.2ZM677.365 221.5l1.795 1.3 1.196-.4 1.894-.1 3.09 2.2 1.595-.9 1.495-.3 3.589 1.2.199 2.3 1.695 1.5 2.093-1.3 2.692-1.1h3.389l2.692.9 2.392 1.8 3.489 1.4.399 2.5-.598 1.8 2.093 2.1.499 1.3-1.296 2v2l4.087 2 .498.5-.498 1.8 1.396.6 1.794 2.4 1.495 1.4 4.885 2.1.698.8-.399 2.8 5.283.5 3.19 1.3v1.1l.698 1.1 2.791 1.4.598 1.7-2.592 1-.299.9-2.99 1.8-3.489-.2-2.393-1.5-2.891.1-1.395 2.7 3.888 3.3.598 1-.2 1.5.997 1.5.499 3.3 1.595 1.4 1.295 1.8-4.984-.1-1.395.8-1.695-.4-1.097.5-2.193 2.3-.797 1.2-.997 3.3 1.794 3.6-.797 1.4-2.692-.9-.498-1.2-1.994-1.1-7.078.6-2.292.8-.598-.5-2.493-3-3.788 1.6-.598 1.1-.997-.3-.797-1.3-5.084-1-1.894.7-1.894-.5-1.196 1.7-.798-1.4-1.096-.4-2.991.1-.997-.3-1.794-2.1h-2.293l-6.081-.9-6.479-1.5-7.776-.4-2.392.1-2.293.5-5.882.5-.797 1.4-1.595 1.6-1.894 1.2-1.097-.5-1.894-.3-1.096.5.099 1.4-.996-1.6-.1-1.3.797-1.5-.398-1.1.199-2.4-.797-1-1.795-1-3.289-1.3v-1.2l1.993-2.7.798-.5 3.987-1.7.598-1.6-.897-3.9-1.695-3.6-2.89-4.9-2.094-5.1 2.891.4 1.595-.3 3.688-.3 1.595.9 3.29-1.3 1.794.1.798-2.6 1.994.2 1.395-1.2 2.094-.5.996-.7 1.695 2.3 1.994-.2v-1l-.897-1.1-1.894-.5.498-2 .997-1.5-.399-2.3 1.097-3 2.592-.6.797-.6.997-2 3.589.1.398-1.1 1.296-1-3.887-1 .697-3.1v-1.8l2.592-.6 1.196-1.5 1.097-.3 2.99.4 3.091.1.398-1.7 2.493-2.4 1.395-.8 1.296-.2Z"/><path fill="#EBECE6" stroke="#171717" stroke-linecap="round" stroke-linejoin="round" stroke-width=".1" d="m467.626 349.1.798 1.1 2.592 1.3h1.196l.897.7-.997 3-.498 1.5.1 1.7 1.196.1 3.289.8.399 1 1.495.8 2.293.4 1.994-1.9.797.3.499 1.5-.499 3.1.499 1.8-1.894-.2-.997-.9-1.296.3-.598 1.8 1.495 3.5-1.196.3-1.396-1.9-.697-.1-2.891 1.1-1.994-.8-.797-2.1-1.994.1v2.9l-.499 1.1-2.193 2.6-.199 1 .698 1.7-1.197.7-.897-1.4-1.296-1.2.399-1.2-2.193-.6-2.392-2-.2-2.5-.997-.6-3.389 2.9.598 1.5-1.595 2.2-2.392 1.4-3.091-.8-2.591 1-2.393.5-1.395-.7-.898-1.4-2.292-2.3.498-1.7-.797-2.2-2.194-.3-1.894.1-2.292 1.5.498 1.3-2.293 1.6-1.395-.1v-1l1.495-1 .299-1.5-.797-.7 1.096-2.9 2.991-2.2.498-2.9 2.094-.9 3.788-4 .598-.9-1.296-1.1 1.794-1.4h1.097l.797.8 2.692-.3.797-1.4 1.495-.7.997.3 2.792.1 3.289-.6 2.592.2-.199-1.5 1.296-1.2h1.295l1.396 1 .798-.2 1.096.9 3.688-.2ZM532.223 300.5l2.093-.4-.1-1.9 3.29.8.299 1.1.997 1.1 4.585 1.1 2.692 1.1.797.9 3.19-.7 1.795 1.2-.698 1.1-1.595 1.2 1.595.9 1.994 1.8 1.495 1.9.997.4 3.489-2.5-1.695-2.4h1.296l2.193.6 3.29 1.9 3.588-.7v1.6l-1.395.5 2.691 2.3.997.6 1.795-1 3.489 1.8.498-.2 2.692.8.498 1.8 2.791 2.2.499 1.6-2.792.3-1.993 1.5-.598.8-2.293 1.2-.698 3-1.595.8-2.093 1.9-1.496.7-1.694.2-3.589-.5-1.396 1.2-1.096 2.8-.997-1.6-5.084-1.5-1.196.9-3.788-.2-2.991-1.7-1.495.1-4.785-1.7-1.396.4-1.595-.8-1.196.2-.299 3.2h-1.196l-1.296 1.6-.1 1.1-2.492-.4-1.395.7-3.888-.4-.798-1.3-2.193-1.2-.598-.7-2.891-2.2h-1.296l-1.296-1.6-2.492-1.5-2.891-2.6h-1.296l-2.292-2-1.795-2.7-1.395-1.5 1.196-1.7-.598-1.6-2.293-1.3-2.492-3.4.498-.7 1.894 2 1.894-2.6 1.097-.6 2.592-.6 2.093.4.798-1.3 1.993-.3.598-1 1.595-.7 1.097.1.598-1.2 4.386-1 3.489-1.5 1.894-.6-1.495-1.5.798-.6 2.193.4 1.495 1.5v.9l1.395.6.898-.7Z"/><path fill="#A7B896" stroke="#171717" stroke-linecap="round" stroke-linejoin="round" stroke-width=".1" d="m521.258 255.2-3.39-.1-.199-1.7-1.097-1-.099-1 4.685 2.6.1 1.2Zm-34.691-8.1h-1.794l-1.396-.7.798-1 1.694.4.698 1.3Zm28.211.5-1.296.7h-1.296l-1.296 1.3-2.093-1.1-.498-1.1.099-2.2.598-1.4 1.994-.9.897 1.2 1.695.6-.499 1.7 1.695 1.2Zm-46.453-6.6 1.794.7 1.595 1.6.1 1.4-1.695 1.6 3.19-.3.797 1.2 1.695-.4 4.486 1.8 3.19-.9.698 1.4-.599 1.5-2.193 1.6 1.396 1.2 2.093-.2 3.589.9 3.29-2.5 1.096-.5 3.589-.3 5.084-4.5 5.283.9 1.496 1.9 3.688 2.1 3.19-.2 1.296 2 .797 2.5 1.894 1.3 2.791.5.698 2.6 1.795 4.1-.299 2.7-1.894 1.8-.698 1.6 1.595 1.4 3.289 2.1 1.396 1.7-.598 2.6 1.994 2.3.797 1.9-.698 2.6-.797 1.1 1.894 3.1v1.6l2.193.9 1.595 3.2-.399 2.3-1.595 3.6-.897.7-1.396-.6v-.9l-1.495-1.5-2.193-.4-.798.6 1.496 1.5-1.894.6-3.489 1.5-4.386 1-.599 1.2-1.096-.1-1.595.7-.598 1-1.994.3-.797 1.3-2.094-.4-2.592.6-1.096.6-1.894 2.6-1.894-2-.499.7 2.493 3.4 2.292 1.3.598 1.6-1.196 1.7 1.396 1.5 1.794 2.7 2.293 2h1.296l2.891 2.6 2.492 1.5 1.296 1.6h1.296l2.891 2.2.598.7-.2 2.8-1.296.9-2.292-.9-.698 2.9-.997 1-2.891.8-3.09 1.8-.598 1.3 2.492 2.8.1 1.3-.599 1.3 1.695.3.299 1.9-.299 1.5-1.695-.4-1.196-.9-.199-1.1-1.097-.5-2.492.5-1.495-.8-1.994-.3-.1 1.4-5.682.5-3.887 1.5-1.097.9-3.788.5-1.396-1.9-2.691-.4-2.791.1-.2 1.9-.997 1.6-1.595.5.1-1.3-1.196-.3-.897-1.4-3.489-1.6-.698.5-2.193-1.2-5.084-2.3.997 1.6-3.689.2-1.096-.9-.798.2-1.395-1h-1.296l-1.296 1.2.199 1.5-2.592-.2-3.289.6-2.791-.1-.997-.3-1.097-1.3v-1.5l.598-2-.199-2.4.299-1.5.997-1.8 1.395-5.5 3.489-3.8-.099-1.3-1.595-.6-4.785-.8-1.994-1.4-2.99.6-2.094-.1-.299-.9-1.395-.4-1.795.7-3.489-4.3-1.395-.1.598-3 .897-.9v-1.4l-2.791-1.1-1.496-1.6-.299-2.2.598-1.7 2.293-1.3-.399-2-1.694-.7.399-1.5-2.991-2.3.598-2.4-1.894-1.2.498-.8 2.194-1.6-.698-1.2 1.296-2.8V291l-3.091-4.1.698-1.1 1.795-.7 2.292.8 4.486-1.3.698-1-.997-.9.299-.9 2.592-1.6.598-2.6-.797-1-2.592-.3-.698-1 .598-1.6 3.09.1 1.097-3.8.698-1.7-.1-4.3-1.695-1.4.499-2.7 1.096-1.4.898-.4 3.987-.3 4.486.1 1.894 2.2-.598 1.2 1.595.3.897-2.4 1.395.8 1.097-.1-.498-1.7.199-1.6.897-1.4 3.29.6 3.588-.3.1-.6-2.791-.5-.897-1.1-.2-3.9-1.495-.8-1.595.3v-1.5l3.389-1.1v-1l-3.389-3.8-.199-1.6 2.691.1 5.184 1.3 3.09-.7 1.496.4Z"/><path fill="#EBECE6" stroke="#171717" stroke-linecap="round" stroke-linejoin="round" stroke-width=".1" d="m486.965 240 2.093 1 2.393.3.399 1.9-3.489.7-5.084-2.1.099-2.5 2.293-.2 1.296.9Zm13.657-1.1-2.293.1-1.894 1-.299-1.2 1.595-1 1.196.2 1.695.9Zm-28.71 1.2-1.196.2-1.694-.5-.599-2.3 2.692 1.1.797 1.5Zm7.975 2-1.395-1.5 2.492-2.9.698-.2-1.795 4.6Zm49.943-4-2.393-.2-2.392-1 .1-2 .498-.9 4.486 2.3-.299 1.8Zm-51.936-8.7 2.292 4.3-.099 2.8-1.795 1.2h-2.093l-5.383-1.7-1.695-2.9-.099-2.3 4.784-1.4 2.592.8 1.496-.8Zm23.226.2-.996.6-.698-.9.897-.9.797 1.2Zm-23.825-2.8h-.897v-3l1.496 1.6-.599 1.4Zm22.529 0 .1 1.5-.698.7-1.993.7-1.097 1.8 1.994 1.2.498 1.5-.997.7-2.591.7v5.6l-2.194.6-1.495-2.1-.1-.9-1.295-3.1-1.994-.4-2.193.1-1.496-1.8.1-2.1-.997-2-1.296-.6.399-1.4 3.09-.2 1.496-1.9v-.9l1.794-.2.798.7.099 2.6 1.595.5 1.097-2.9-.897-1.1 3.887-2.2 1.097-.1 2.99.9-.398 2.1.697 2Zm-31.5 14.2-1.496-.4-3.09.7-5.183-1.3-2.692-.1-.498-2.1-.798-1.4 1.097-.3-.898-3.9-3.189-1.3-2.493-1.4.499-5.6-.997-2.3.1-6.9 1.296-.1 3.09.8 1.495.9.598-1.9 1.595-1.6 1.994-.8 1.595 1.3.299-4.5-1.595-.5-1.296.4-1.296 1.9-.997 2.4-1.894.2-1.495.7-2.393-1.4.1-1.4 1.595-1.9 1.994-1.9h2.193l1.595-.6 3.888.1 2.791-1.3 2.791-3.6 1.495-1.5 3.29-.5 2.991-1.7-.798 2.5 1.196 1.7v3l-.897 1-1.395 2.5.199 5.6 2.492 1.5h4.087l.997 1.1-.698 2.2-2.592 1.4h-.897l-1.395-1.1-1.097.9-1.196 5.1-1.994-.1-1.196.5 1.395 1.2-1.295.8-3.39 3.1 1.097 3.4-.2.9-1.495 1.3-.598 1.1 2.293.3 1.296 2.9ZM608.582 185.3l3.888.2 3.988 1.8-1.795.7-3.688 2.5-.299.5-2.592-.1-1.396.2-.996.9-.898 2.8-1.595.5-.299-.9 1.595-1.8-1.495-1.4-1.894-.7.897-1.8-1.595-1.6 1.495-.2.997.5 1.994-.5.498-1 3.19-.6Zm8.274 1-.897.2-2.392-1.1.997-1 1.894.5.398 1.4Zm-5.383-4-.797.7-.897-.6-.897 1.6-1.296.3-1.894-2.5-2.891-.5-1.296-.7 4.486-.4 1.196-1.6 1.296.1.399.9 2.093.3.897 1-.399 1.4Zm53.033 18.9-1.894-.2-3.389-1-3.988 1.2-2.791-1.1-3.489-2.7-.598-.7-2.293-.5-5.582-2.5-1.097.7-1.495-1-8.374 2.8.997-3.4.1-3.6-2.293-.4-.897 1.3-1.296.3-4.087-1.3-1.196-2.1-1.595-1.1-.798-1.2v-1.8l-1.495-2 .698-1.1-.698-2.8 2.991-1.2 3.289-.2.897-1.3 1.994-1.3 2.293.2 3.09-1 6.28.1.399-1.7h3.19l7.576 1.2h1.795l2.791 1.2 1.395.3h3.988l6.28.5 1.196-1 1.496 1.2-.997 1.4-1.197.4-.897 3.2-.797 1-1.695-.3-2.492.2-1.994.5-1.296 1.1.1 1.1 2.592 2.3 1.395 2.8 2.592 2.2.798 1.3 2.392 2.9 1.795 2.5-2.293.6-1.196 2-.2 2ZM599.61 160l1.994.2-.598 2.8-2.293-1.8.897-1.2Zm-1.894.5-2.093-.6.897-.8 1.196 1.4Zm-6.48-2.7-1.495.7-.299-1.7 1.794 1Zm25.42-62.8999-1.495.5-1.296-.3-.199-.9 1.993-.6.997 1.3Zm30.006-54.6-3.689 1.3 1.595.8.798 1.2-1.994 3.2.1.6 3.09 4 7.177 1.7 2.293 1.8 3.589 2.3 1.794.9.1 1.9-2.991 3-2.591 3.1-1.197 1.7.399 1.7 2.592 2.1 2.293 2.2 2.99 3.5 2.991 2.5 2.99 4.2.399 1.4-3.688.7 1.196.9-.598 1.3.299 1.9-.498 1.5 1.894.3.299 1.3-1.695 1v.9l1.396 1.7.996.6 3.19.6.898 1.6-.997 1.6999 1.794 2.2 4.486 1.8.698 1.3.199 1.7-2.392 3-1.994.8.698.8 4.486 2.6 6.579 2.9 2.592 1.3 2.093 1.9 2.193 1.6.499 1-1.595 4.5-.698 1.2-2.193 2.2-3.39 2.8-2.292 2.3-5.284 5.9-1.894 1.5-2.093 2.2-4.885 3.3-.698.8-2.492 1.5-5.582 5.2-3.489 1-2.592-1.1-1.794.2-1.197.8-2.492.2-1.993.6-.997-.7-.698.6-1.894.2-1.994-1 .299 1.5-3.289 1.5-.798-.9-1.994 1-2.093.2-1.097.8-5.881 1.1-1.495 1.3-1.197-.3-6.679 1.1-2.89-.2-2.692 2-1.794.4 1.495-3-2.392-1.1-1.197-1.6-.697.4-.3 1.5-1.495.8-1.994-.1-.398-2.4.797-2.3-3.588-.6-3.789-1.4-.897-.1-.697-1.3-1.994.9-2.094-.9-1.694-5.3v-1.3l.897-1.6-.1-3.4-.598-2 1.097-.6-.898-1.6-2.193-3-1.595-1.1.499-3.3-.598-1.6-1.894-1.1-1.097-2.9.598-2.4 2.393-2.2v-1.2l.897-1.1-.499-1.3 2.692-.5.997.4 2.392-.4 1.894-1-1.096-1.8 1.495-.7 1.196-1.2-.099-1 2.292-.5 2.393-1.9 2.293-1.1 2.292-1.9 1.097-.1.299-1.3 2.492-1.9.798-1.6 2.292-1.8 2.193-3.8999 3.789-1.2 3.788.3-.599-1.7.997-.3-.598-1.3-.997-.6v-4.6l-1.296-.9-4.485-1.6-1.695-.1-1.196-1.2-4.586-.7-1.595-2.5-1.894-2.2-1.794-.6-1.296-2.6v-1.3l1.495-1.3-.099-1.8.697-1.4-.598-.9-3.289-2.6-.798-1.6.1-1.1.997-.8-.598-1.3-2.792-.4.299-1.9-.697-1.4-.399-2.4 1.096-1-1.794-.9-1.894-1.5-1.396-.1-1.196-1.6-3.489-1.8-8.274-1.7-4.187-1.8-4.785-2.3-2.89-1.1-.399-.9-2.891-.8.498-.4h2.094l1.894.4.498-.6-.997-1.4 1.894-1.1h3.589l7.875 5.5 1.396 1.8 6.878.6.798.5 1.794-.1 3.688-.9 1.197-1.2 1.495.1 3.589 1.1 3.887.8 2.592.8 1.296-.6.499-1.7 1.595-1.3 2.093-.3 1.495-1.4-.698-3.2.599-1.7.697-3.8 2.592-1.7 1.695-1.8 2.093-.2 3.788.4.897-.2 3.489-1.6 2.891-.3 1.795 1.2 4.187 2 4.186 1.1 3.589.8 2.592 2.7-.698 1-3.19 2.9v.7l1.695 1.3ZM343.02 303.1l-1.595 1.3-1.296.2-2.493-1.2v-.5l2.493-1.1 1.993.6.898.7Zm-36.386-39.7 1.296.9-3.389 1.9-1.196-.6-.898-1.2-.099-1.9 1.196-.5h1.794l1.296 1.4ZM283.407 252l-2.093.4h-2.891l.1-1.5-1.396-.5-1.794-2.7-1.296-.5-1.894 1.6.498.9-2.392 1.8-2.891-.3-.798-.7-2.093-.4-.199-1-2.692-2 .997-1.4 2.891-.9-.997-1.4.199-.8 1.595.1 2.193-.8 1.197-1.6.997-2.3 1.894-.9 1.296.6 1.894-2 2.791-.1 2.691-.7 3.888.3 1.097 1.1.498 1.7 1.296 1.7 1.695 1.4v.9l-1.994 1.1 3.489.3 1.196 2.5-2.093.3-.1 1.4 1.097.2-.599 1.4-2.591.6-1.396 2.2-.997.5-2.293-.5Zm13.657-20.2-2.591-.5-.599-2 .898-1.4 1.794.7.598 1.3-.1 1.9Zm-11.464-7.1.698 3.4-2.392 1.3-.798-2.4-1.395 1 .199-1.9 1.495-.3 2.193-1.1Zm1.695 1.7-1.096-1.2 1.595-2.2 1.694-1-.099 1.6-2.094 2.8Zm2.492-7.8-4.585.8.598-3-1.894-.9.299-.9 2.093-.5 1.695 1.7 2.093.6-.299 2.2Zm-16.149-11.4-1.495-.2-.399-1.4.199-2.3 1.595.2.1 3.7Zm12.76-5.7-.1 2.8 2.891.8 1.994-.1.399.6-3.29 2.7-.698-.1-.199-2.2-1.396.3-1.894-.3-1.196-1.9-2.692-.5-.897-1.1 1.396-.6.299-1.2 2.791-.6 1.495-.7.898 1 .199 1.1Zm-11.863-2.6 1.197.9-1.097 1.3h-1.495l-2.193-1 .199-.5 3.389-.7Zm11.763-9.9-1.595 2.6-.997.7-.199 1.7-2.991 1.6-3.189 2.4-1.396-1 2.592-1.7-2.094-1-.199-2.6.797-.7 1.396.7 1.894-.3-.698-1.2 6.281-3.2.398 2Zm34.691-2.2v1.2l-1.296 1.6-2.193 1.2-4.187 2.8-2.492 1.3-.498 1.6 1.395.1.2.8-2.194 1.6-.598 1.5 2.991-.4 5.283-1.5 3.589.5 2.592-.3 6.878.2 1.894-.3 2.293 1.3.997 1.7-2.791 3.4-.798 2.3-1.994 3.5-1.894 2-1.993 2.5-2.094 1.1-3.09.5 4.486 1.9-1.396 1.8-2.392.1-2.293 1.7-2.093.7 3.588 1.1 2.393-1 2.691-.1 5.184 1.9 3.589 3.4 1.993 1.5.499 1.1 2.093 6.9 1.495 3.8 1.595 1.8 4.486 1.6 1.097.6 3.389 3.3 3.389 2.4-1.395 1.5.399 1.2 2.093 2.9.299 1.6-1.296-.1-2.293-1.4-.299.7 4.985 3.3 1.595 2 .996 2.7-.598 1.1-2.99 2.7 2.791 1.4 1.196-.2 1.994-2.1 1.695-.2 4.186.3 3.788 1 3.29 2.1.698 1.1.399 3.1-2.194 5.8-2.791 1.9-.498 1.7-2.094.9-1.694-.3-2.393 1.2 1.695.6v1.7l-1.097.6-2.492.2 1.097 2 2.492.4 4.286-.2 1.895.2-.2 2.7-.399.4-3.788 1.7-.997 1.8-2.193-.1-1.096.7-5.682 1.9-4.885-.8-2.891.1-3.987.6-4.187-1.2-1.794-.2-2.792 1.7-4.186.5-1.994-.2.897 1.5-.897.4-3.788-.5-.997.5-1.396-.2-2.691-1.4-2.592-.1-4.885 1.2-.996 1.3-1.296 3.5-1.097 1.2-1.395.2-4.486-2.5-1.496.5-2.492.3-2.691.7-3.888 2.4-.897 1.5-1.296.2-1.097-.9-1.395-.3-2.293.8-.299-1.3.997-1 2.791-.7 2.492-1.9 2.193-2.3 4.586-3.8.797-3.1 2.692-.7 1.395-2.5 4.088-.6h2.791l2.791.5 2.891-.1 1.096-.7 1.894-2.4 3.589-3-4.685 1-3.788 2.3-3.19-.4-2.293-1.9-2.093-.8-2.094.4-.698-.9-2.392-1.7h-2.592l-3.589 1.7-2.591-1.2-.898-2.3.3-1.4 1.096-.7 2.492-.6 3.788-1.7 2.193-.7 2.792-1.9 1.196-2.3-.299-2 .498-1.4-.897-1.7.299-1.5-2.991.3-2.691 1.2-.698-1.1 2.791-1.8.997-1.4 2.592-1.7 3.589-1.3 1.894.1 3.688-.7 2.692 1.3-.798-2.1 1.196-.4.1-2.4 1.595-2.2-1.196-.6.1-2 1.495-.8.698-2.6-1.695-.5-2.093.6-1.695-1.5-2.791-3.6-.299-1.4 1.595-3.1 2.292-2-1.894-.8-1.395.2-2.692 1.2-1.993 1.3h-2.094l-.797-.9-1.097.1-2.492 1.1-3.489-1.3-1.097 2.3-2.591-2.5-.3-1.9h1.296l1.197-2.4 2.891-4 .598-1.2-.499-1.4-1.894-1.5.299-2.6.798-1 1.495-.4-1.894-1.2-2.891.9-1.794.9.299-2-.598-.4-1.496 1.4.1 3.3-2.093 5.7-1.097.9-1.395-.5 1.096-3.9 1.396-2.5-.598-.3.299-3.6.996-2.9 1.695-3.8 2.193-3.5-4.087 2.7-.997.5-2.392-.4-.798-.7-.997-2.3 1.795-.2 1.694-1.1-1.495-.7 1.495-.9 1.695-2.1.399-1.9-.997-1.5-1.595-.6-.199-.9 1.694-1.9-.697-1.5 1.594-3.1 2.991.1 1.894-.4-2.293-2 .698-2.9 3.688-.3-.797-1.8.299-2 1.595-.9 1.296.2.997.9 2.592-.9.598.8 2.791-.6 3.688-.3 4.486-.6 2.193-.4 2.293.2-.598 1.7Zm-.598-4-1.296.1-1.296-1.4 1.495-.3 1.097 1.6Zm1.296-3.4 2.691.6-.598 1.4-1.395-.7-1.994.3-1.894-1 .399-2.1 1.694-.1 1.196.5-.099 1.1Zm3.688-2.3-.997.3-.398-1.2-1.695-.6.399-.8 2.691 2.3Zm16.05-19.5 1.595 1.8.996.5-1.296 3.8-.199 1.6-.997 1.7-.797-.4.897-2.9-.498-1.1-1.695.3-.399-.9 1.595-1.4-.797-2-1.097-.2 1.495-1.6 1.197.8Zm2.89.4-1.395-1.3 1.296-.6.099 1.9ZM924.985 447.7l-2.293.5.499.7-3.489.1-1.097.2-3.19-.3-5.283 1.3-4.386.3-1.296-1.2-1.894-.2-1.097-1.7-3.489-2.5-1.196-.4-.598-1.1-1.396-.3-1.395.4-.898 1.9-3.389-.8-3.589-.1-1.096 1-4.287-1.3 1.894-3 .399-1.7-.399-2.4-1.694-2.7-3.689-8-1.096-1.2-3.988-1.4-1.096-1.6-3.19-2.1-4.087-.9-4.785-2.9-2.891-1.7.897-2.1.798-.2 4.784.9 1.496-.4 5.881 2.5 3.589.7 3.09 1.7 5.981.5 2.792-.6h1.794l1.994 1.1 2.392-.2 3.19 1.2 1.495 1.6 3.489 1.4 2.791.8 3.19 1.5.2 2.4 2.492.4 4.286-2.1 2.094-.7 1.794.2 1.894 1.9.798-2.2 4.585 1.7 2.094 1.8 2.791-.1 2.193 1-.199 4.2 2.89 1.4 1.595 1.2 3.39.7 3.09 1.5-1.196 2.1-1.196.3v1.3l1.096.8.897 1.5 4.486 2.6.897.8-.199 2-1.794 1.4-4.087-2-1.695.5-3.19-.9-1.396-1 .1-.7-3.987-1.4-1.894-.4-2.991 2.5ZM665.802 537.7h2.292l1.695-1 2.193 3.7 1.695-.1 3.489-.9 3.688.2 1.396 1 2.592.2 2.292.5 3.29-.7.399.4.099 2.8 1.197.2.697-.7 1.695-.6h1.794l1.595-.8-.398 3.5-.898.4-4.386-.1-8.074 1-5.284.4-.697-.2-.698-2.2-3.29-1.1-6.18-1-1.496-.4-3.09.2-1.096-1-.399-1.8.199-1.9 1.396.3.398-1.4 1.895 1.1Zm43.263 1.1-1.595-2.1 1.097-.5 1.196 2.4-.698.2Zm-54.528-11.4-1.396.2-.697-2.2.498-1 2.093 2.1-.498.9Zm62.503 4.1-1.695-.4.399-1.8-.698-1.6 2.293-2.7 3.19-1.3.897.9-.897 2.5-.897 1.3.399 1-1.595.2-1.396 1.9Zm-18.94-10.3-1.496 1.2-.897-.6 1.894-1.2.499.6Zm6.18-2.2v-.7l1.296-1.1 2.492-1 1.197.6-2.493 1.4-1.495.1-.997.7Zm-22.13-5.4-.897 1.3-1.296-.7.399-1.2 1.096-.6.698 1.2Zm3.589 1.6-1.097.6-1.395-2.2 1.894-2 .897.7.099 1.8-.398 1.1Zm5.383-8.8.598-1.6 1.595-.1v1.1l-2.193.6Zm-21.632-.7-.997-.4.399-1.2 1.096.5-.498 1.1Zm31.501-3.7 2.791.7-.698 1-1.595.9-1.695-.9-1.196-1.2 2.393-.5Zm-76.459.1.398 1.2-1.096 1-1.595-1.2-1.196-1.8.897-1.1.897 1.2 1.695.7Zm52.933.7-1.396-.1-2.392-2.1.897-1.4.897 1.2 1.296.1.698 2.3Zm-57.12-9.7.299 1.8.897.3 1.296 1.6-.199 1.2-2.094-.8-.997.2-1.096-2-1.296.2.598-1.8 1.396.1 1.196-.8Zm70.577 2.5-1.096.9-1.795-1.7 1.396-1.3-2.093-2.4-.1-1 2.093-.5 1.296.9.598 1.2.399 2.6-.698 1.3Zm-69.979-6.1-1.296.1-.399-.9.798-2.4 1.096.3.2 2.5-.399.4Zm34.491-5.4.897 1.7 5.483 2.5 2.791.3 1.695 2.6-.199.6 1.495 3.8 1.096.9 2.692.3.399 1.9-.898.8-1.894-.7-2.093-1.6-.399-1.3-2.193-2.9-3.588-.2-1.496-.7-.598-1.7-1.495-.9-1.994-1.9-1.495-1.1-2.991-1.1-.598-.7 1.894-1.3 2.094-.5 1.395 1.2Zm37.781-5.8-.1.9 1.894 1.5.698 1-1.196 2.1-3.987-.8-.798-.8 1.595-1.3-.897-.5-1.196 1.5-2.193-.7-.898-.9.698-1.4 1.496.1 1.694-.8v-.6l2.293-.2.897.9Zm-81.045-1.6-1.295.3-1.197-.8-1.196-1.9-2.193-2.2.698-1.1 1.595-.4 1.395 1.2-1.096 1.2.797.7.898 2.4 1.594.6Zm67.588-8.6-.698 1.4-.1 1.3-3.788-.7-.299-2.3 2.193-.1.798.8.996-.9.898.5Zm2.392-6.9-1.396.4-1.694-1.3 1.395-.5 1.695 1.4Zm-11.863-3-1.595.6-1.794-1.1 1.097-2.3 1.296.1.996 1.3v1.4Zm15.85-1.7-.498-.7-2.093-1.2-4.586-.6-2.293-.9-.897.2-1.994-1-1.196.4-2.492 1.7-1.495-.2-1.595-1-2.193.4-1.695 1.9-1.794 1-1.795-.4h-2.292l-.2 1.1 1.994 2.1-.499 1 .499 1 2.093.1 2.492 1.3-.697.7-3.19-1.2-1.197-.1-1.196 1.2 3.489 2.7.499 1.4-.598.9-1.496-.8-2.492-3.2-3.09-.6-.399.6 1.196 2.4 2.891 1.7-.598.6-2.99-1-1.097-1.6-.399-2-5.482-2.8-1.396-2.8-2.193 1.3.399 2-.599 3.8.399 1.3 3.489 3.7 1.296 2.7 2.592 2.1 2.592 3.2.698 1.8-1.296 1.1-1.296-.5.299-1.9-2.193-1.2-1.894 1.2 1.495 2.3.498 1.2-.398 1.3-1.595.8-2.592.1 2.392 1.4 3.29 1 1.595 1.1 1.495.1 1.695 2.1 2.592.6 1.694 2.1 1.994.5 1.695.8.997 2.1.299 2.9.598 2.1.099 1.7-1.096.5-1.296-1.6-4.187-3.6-.997-.4-.997.7-2.89.5-1.894 1.3 1.495 1.3.1 1.2.797 1.5 1.994.4 1.993 2.4-2.99 1-1.097.7-.797-.5-.2-1.2-4.286-2.2-.598.6.698 2.4 1.296 1.6 2.193 4.3 1.296 3.7-.2 2.1.997 1.5.1 1.5-1.695-1.2-2.193-2.5-.797-1.5-2.194.1-1.295 3.3.199 1.9-1.595-1.1-.199-2.9-2.094-2.8-.897-.4-1.296-1.9-1.495.6-.1 2.9-.399 1-2.193-1.9-2.293-3.5-.199-1.8 1.396-1.7-.299-1.2-1.595-2.5-2.094-1.5-1.196-.5-.698-1.6-1.993-1.3v-1l1.993-1.7.997-2.6 1.894.5 1.396-.2 1.993-2.4 1.595.1 3.888 2.1 4.187 1.2 2.093 1 1.197 1.1 1.595.3-.499-1.4.798-.4h2.093l.199-1.6-1.993-.6-.798.2-2.392-1.4-2.293-.8-2.193-1.5-1.196 1.3h-1.197l-3.389-.9-2.093.7-4.187.7-1.097-1.3-2.591 1-.997-.7-1.894-4.2-1.695-1.9-1.196-.5-.2-1.9 1.496-.2 2.392.9.897-.6-.598-1.6-2.492-.2-1.794.5-2.792-2.2-1.495-1.7-2.193-1.1-1.695-3.4-2.591-2.6 2.691.9.698-.7.299-1.5.897-.7-.997-2.2 1.695-1.3 1.894-.3.598-.5.299-2 1.196-3.1 1.695-.8.798-2.6-1.097-1.8v-1.1l4.586-.3.897-.6 2.292.6 2.393-1.3 1.695-2.5.797-.3 2.991-.4 3.289.6 2.891-1 .2-2.1 1.993-.3 2.991.2.997-1 2.392-.2 2.592.2 2.991-1.1 1.894-.2.199-.9 4.187.1 1.595-.5 1.196 1.7 2.392 1.4.898-.6 3.688 1.2 1.695 1.1 3.389-.9 3.19-.4 1.794.3 2.492-1.2.2-.8-.897-2.7-.698-1 1.595-1.1 1.595.5 1.196.3 2.293 1.5.897 3.1-3.389 2.5.498 4.4-2.492 3.2-.798.4ZM564.422 421.2l2.292.4-1.096.9-1.196-1.3Zm12.859 1.5 1.595-.1.598.9 6.181 3.8 1.694.7 1.197 1.9-4.785-3.1-4.386-2.5-3.091-.7-4.286-2-.499-.9 5.782 2Zm-6.28-3.5-.798.1-5.582-.1-1.695-.3-.498-1.3 1.794.2.499.6 6.28.8Zm-5.283-2.3-1.994.1-2.592-.8.299-1.1 4.785.6-.498 1.2Zm-21.134-16.5-.299.4-3.289-2.7-.3-1.9 2.792 2.7 1.096 1.5Zm-4.884-6.5-1.894-.2.797-1.1 1.097 1.3Zm-4.187 1.5-.897-.1-1.695-4.2.399-1.2-.798-2 .897-.3.499 2.1.997.9-.1 1.6.698 3.2Zm3.688-4.9-1.495.3-.997-1-1.296-.2-.997-1 .997-.7.499-1.2 3.289 3.8Zm49.345-14.7-.698 1.5 1.595 2.7.199 1.6 1.296.4-.399 2 1.197 1 2.99 1 .897 1.5-2.292.1-1.695.4.698 2.6-.997 1.6-2.193-.2-1.296-2.2-1.097-.8-2.193-.2-2.592-.7-1.794.2-1.794-.3-2.193 1-1.595-1.3-1.695.6-2.791-.7-2.492-.1-2.692-1.6-1.495 1.2-3.19-.3-2.692 3.2-1.794-1-1.695-1.8-1.794-.4-1.196.6-.299 5 .099 1.4 1.894 1.3 3.39 3.2 1.296 4 2.292 2.4 2.792 2.3 1.694 2 4.985 4.1 2.392 1.1.399 2.2 1.495 1.6 2.991 2.5-.299 1.6-3.489-2.8-2.592-1.5-3.09-2.8-3.789-1.1-2.691-1.2-3.29.6-1.794-.2-.698-2.2-5.782-3.9-4.286-4-.798-1.3 3.091-1.2-1.396-.8-3.888-3.4-1.196-1.6-.1-4.1-.797-1.7-2.891-2.2-1.097-1.1-2.093-.7-1.396.9-.299 1.9-2.99 5h-1.296l-3.09-4.2-.499-1.9-1.296-3.9.698-.5.499.6 3.289.8 1.396-1.3 1.096.5 3.589-.1.598-.3 1.196-2.2 2.592 2.1 1.495.7 1.296-.5 1.994.7 1.595.2 1.196-.4-.797-2.3.698-.7-.997-1.1 2.093-1 2.094-.6.398-1.1-.199-2.2-.897-.9.399-1.4 4.386-1.7.698-1h1.993v-1.7l.897-.8 2.493.6 2.89 1.2 1.695 1.2.897 1.3 2.692 1.8 2.193 2.2 1.296.7 2.492.6 1.296 1.3 3.289.9 4.885.2 2.492-.9 1.097-1.4 2.891-.4Z"/><path fill="#EBECE6" stroke="#171717" stroke-linecap="round" stroke-linejoin="round" stroke-width=".1" d="M624.033 337.8h1.495l1.396 2.3 2.193.8.897 1.1 2.293.4.897.7.698 1.7-2.193 2.3-4.586 1.1-1.894 2.4-1.196 1 .1 1.7-1.396 1.4-.698 2.5-1.395 1.5v1.2l-1.595 2.7.199 1.3-2.093 1.5-1.495 4.7-1.296.9-2.592-.3-2.492 2-1.396-.5-3.19.9-.997-.5-2.791-.3-1.096.2-2.891-.4-.997.3-1.496 1.6-2.193 1-1.595-.5-2.093 1.3-2.891.4-1.096 1.4-2.493.9-4.884-.2-3.29-.9-1.296-1.3-2.492-.6-1.296-.7-2.193-2.2-2.691-1.8-.898-1.3-1.694-1.2-2.891-1.2-1.894-2.2-1.396-3.3-2.392-.1 1.794-1.7 2.492-.5.299-1.8-1.096-1.6.498-.7-.399-1.5 2.194-1.2.498-1.4-.498-1.1-2.592-.7 1.296-1.4 2.492.9 3.888-.3-.698-2 .598-1.9.598-.7 2.093.3 4.187 2.7 1.595.7 4.685.1 6.978-.4.599-1-.499-1.3.399-1 1.395-.7 4.287-.4 2.392-.6.997-1.5.698-.2 3.489 1.4 4.984-2.5 1.595-3.5 1.795-.4 2.691.1 2.492.6 4.586-.7 1.396.9 2.193 2.2.598.2 4.286-1.1ZM283.407 252l.698 1.1-2.193.4 1.495 5.2.598.9v4.1l.897 3.2.1 2.5-1.296 1.8-.897 2.1-.2 1.8-1.595 2.1-1.495.9 1.595 1.5-2.791.8-2.592-.3-1.296.8-3.888.2-3.688.7-1.695 1.8-2.492.7-.997 1-2.292.8-1.695-1.2-.997.2.199 2.1-2.89 1.3-1.795.3-.997.7-5.781 1.4-1.895-.5-3.289.8-1.196-.1 1.595-1.8 1.595-1.3-3.788.6-1.396.5-.598-.6 3.19-1.9-3.29.1-2.99-.4-.399-1 2.891-2.3 2.392-.9-.1-.9-5.084.1.499-1.1 1.695-1 1.794-.1 1.495.6 1.097-.8-.598-1.7 3.887-2.3 2.991-.3 3.29-.7 3.289-.8-2.392-1.2-2.293 1.8-2.592.3-1.894-.5h-2.093l2.691-2 1.595-1.7-.797-.7 1.993-2.3 3.589-1-1.595-1.3-3.888.2-1.395-1.3-2.592.1.399-1.2-3.489-.2.498-1-.598-1.1 2.791-.6-.199-2 1.894-.8 1.994-.4.099-1.1-1.993-.2-1.994.4.797-2.1-.797-1-.399-1.7-.897-1 2.791-.2 1.196-.5 4.686.1 1.894 1.3 1.694-1.2 4.785.9.598-2.6 3.788-1.5 1.197-2-3.689.4-3.588-1 .697-.8 2.094-.7 1.894-1.6-.299-1.1 1.694-2.7 3.091-.8h2.392l1.595-.9 1.196 2-.997 1 .599.9 1.196-.8-.499-2.1.898-1.3 1.894-.3.598-.8 3.19 1.7-2.492 1.5-.499.7-1.894.9-.997 2.3-1.196 1.6-2.193.8-1.595-.1-.199.8.996 1.4-2.89.9-.997 1.4 2.691 2 .2 1 2.093.4.797.7 2.891.3 2.393-1.8-.499-.9 1.894-1.6 1.296.5 1.795 2.7 1.395.5-.099 1.5h2.89l2.094-.4ZM194.687 77.8999l1.196.1 2.791-.8 2.193-1.1.498 1.1-2.492 2.4 2.193.9 1.994.3-.1 1.7-1.694 1.6.797.3 3.489-.5.997 2.3 1.495-.2 2.393.3 1.395 1.2 1.197-.3.498.9-.698 1.2-1.495.6 2.093 2.9v1.1l-.996.7h-1.296l-.997 2.1-1.196 1.1-1.994 1-2.592-.5-1.097 1.5.2 1.4001-1.296 1.3-5.283 2.1h-2.493l-2.591.5-6.181 2-4.685 2.8-1.994.7-3.09.3-1.794.5-5.882.8-1.994.5-1.196 1.1-.498 1.4-3.988 1.1-3.788.7-6.38-.5-5.383-1.3-4.486-.3-3.788-2.5-2.891-1-3.588-1.8-2.293 1.1-12.361.3-.798-.5-.199-2.1 1.097-.8 1.296 1.2 4.984-1.1 2.691-1.9 2.492-2.7-3.489 1.2-.199-1.9-.897-1.1-1.695-.8-.299-.8001 1.097-.9-2.293-1.2-2.592.1-6.579-.5-3.788 1-1.994.1-.897-1v-1.1l1.495-.3 1.795.1 4.087-.6 1.395-.6.798.5 3.588-1.1.997.2 3.988-.2 4.386-.1 1.096-.8.399-1.1-2.791.9-3.688-.5-.598-.9 3.588-1.6 2.692-.8-.798-1.3-3.19.2-.698-.8-2.591-.4-1.795.3-.897-.5-2.392.6-5.184.9-3.29.9-3.09-1.1-2.392-.2 1.395-1.4 1.994-.1 1.695.8.099-3.2 1.197.3 2.791 1.1-.698-2.8 2.193.1-2.193-1.6.498-1 1.595-.3.798-1h2.392l2.293 1.1.199 1.4h2.094l1.096-.8.898.6.498 1.2h1.196l.399-2.2-3.589-1.1-.299-1.4 3.689-.1-1.695-1.1-2.991.2-1.395-.4 2.592-1.2h3.389l1.396.2 2.292 1.7 1.994.6 3.09 2.3 2.193.9v1.2l.698.8-2.293 3.4.898.7-.798 1.6 1.894.6.997 1.7.897-1.8 1.495-1.9 2.293-1.3.897.1.898 1 .897.1 1.395-2 .698-4.3 1.695-.9 1.794.7 1.296 1.6 2.592 2.1 1.794-.5.1-2.3.997-1.3 1.994-.3 2.193-.8 2.292-.2 1.695 1.4 1.196 1.4 1.695 1.1.698 1.8.897-.3-.199-1.7-1.396-2.6.299-.9 4.087.2 2.991 2.3 1.296-.3 3.588-2.8 2.293.8 1.794.1 2.792-.8.797-1.2-.897-2.3.598-.4 2.592-.6 2.691.1 2.592 2.1-.099 1 1.595.8ZM555.848 495.6l-1.196 2.5-2.791 4.3-1.495 5.1.299 2 1.595 1.4-.698.5 1.595 1.8.1 1.3-1.795 1.9-.398 1.7.099 1.5-2.891-.6-1.395.3-3.689-1.4-1.894-2.8-2.99-2h-2.991l-1.395-.5-2.891-1.9-2.991-1.4-2.592-2.1-1.694-.4-1.496-1h-2.891l-2.292-1.6-1.296-2.3 1.296-3.7 1.395-.8.897-1.2 2.293 2.3 1.795-.8 1.395-1.6 2.393.1.498.9 1.396.3 2.492 1.6 1.395.4 3.39-1 2.99.4 2.792-.5 1.694-.6 1.196-1 1.396-.3 3.489.3 1.994-1.2.797.2 1.994-1.2 1.096 1.1Zm-78.054-41.5.698.9 1.795 5-.599 1.6-1.295 2 .797 2.8-.598 11.5-.598 2.9-.897.4-2.891-1.2-1.496.3-1.196-.6-.299 3-1.794 2.1-2.991-.2-.698-.6-2.392-3.8-.399-4.3.598-1.3v-2.5l1.097-.1v-1.7l-1.794-1.2v-1.9l.697-1.4-.099-2.6-.798-.9-.797-2.3-2.193-2.4.099-3.4 3.39.6 1.296-.3 3.09-1.5 2.093-2.5 1.396-.5 1.495-1.8.698.9 2.193.8 1.196 1.5.897.5-.697 1.4.996.8Zm8.274-30.8.299 1.4-2.492.5-1.096-1.1 2.891-.2.398-.6Zm37.781-56.6-.199.9-3.29 2.3.698 1.4 2.293.7-1.595 2.1.299 1 1.296.2-.399 2 1.894 1.1 1.495 1.3.2 1.3-1.495.1.697-.6-1.993-2.2-1.994.9-3.19-.9-2.093 2-1.496.4-1.694 1.1-3.19 1.2-1.795-.4-.997.7-.398 3.1.797.6 1.495 2.6 1.695 1.1-.698 1.9-.897.7-1.296-.5-.299 1.7.897 4.5 1.396 3.2 1.196 1.3 2.692 2.2 2.691 1.1 5.084 3.7 2.791 1.1.698.7 1.795 2.8 1.595 3.2 1.794 5.1 1.296 2.5 2.293 2.9 4.785 4.1 4.286 2.9 3.987 1.9 2.991.3 6.978-.4 2.592.7.399 1.2-.399.9-2.891 2.1v1.7l1.495 1.2 7.078 3.2 7.177 2.6 2.193 1.4 2.692 2.1 6.38 2.9 1.096 1.4 3.988 3 1.794 2.4.499 1.8-1.496 4.4-1.595-.5-1.894-1.3-3.09-5.4-4.984-.5-2.891-1.3-.698-1.4-2.293-.4-1.296.9-1.395 2-1.496 3-1.495 4.3v1.7l1.097 1.7 2.891 1 2.392 1.5 1.595 1.6.299 3.8.897 2.1-.897 1.3-1.894-.3-2.492.7-1.695 1.4-.698 1.4.499 3.4-.299 1.4-3.29 2.5-1.595 2.5-.997 2.3h-4.286l-1.097-1.5-.099-2.2.598-1.3 1.595-.7.897-2.8-.499-2 1.097-1.6 2.791-.7v-2.9l-1.395-1.3-1.396-5.1-2.392-4.3-1.396-3.8-1.097-1.8-1.395-1-3.689-.3-4.585-2.6-.299-1.1.598-1.1-1.097-2.8-1.993-1.7-2.592.6-1.196-.1-.1-1.5-1.994-1.3-2.691-.2-.698-.7-2.592-4-1.695-1.7-2.292.1-3.888-.9-1.994.7-3.19-2.6-2.791-.9-5.682-5.3-1.794-2-3.489-2.2-2.293-3.2-1.795-1.2-3.987-1.4-.299-1.3-3.09-3.1-1.695-1-1.296-2.1-2.492-.5.1-2.7-1.197-3.5-1.694-2.2-1.196-5.3-.798-1.5-1.794-1.1-3.988-1.2-5.682-3.4-1.096-.1-3.39-1.3-2.093-.2-2.592 1.2-3.09 3.2-2.492 3.4-.898.6-3.389 1.2-2.99.5-.2-1.5 2.094-2.6-.299-2-3.29.6-5.084-2.4-.897-.9-.1-1.4-.698-1.3 1.396-2.5.797-.7-.498-1.7-3.19-1.4-1.495-3.1.797-.4 1.894.2 1.695-1.3 1.196-.3.798-2.5-1.795-1.6-1.694-2.6-.898-.6-.099-1.6 2.592-1.7 1.395.7 2.393-.5 2.591-1 3.091.8 2.392-1.4 1.595-2.2-.598-1.5 3.389-2.9.997.6.2 2.5 2.392 2 2.193.6-.399 1.2 1.296 1.2.897 1.4 1.197-.7-.698-1.7.199-1 2.193-2.6.499-1.1v-2.9l1.994-.1.797 2.1 1.994.8 2.891-1.1.697.1 1.396 1.9 1.196-.3-1.495-3.5.598-1.8 1.296-.3.997.9 1.894.2-.499-1.8.499-3.1 2.99.3.898.8 2.093.4 1.097-.4 1.196-2.2 1.395-.6 3.39-.3 3.09.2 4.685-1.5v2.3l3.091 3.5 1.096.5 8.573 1.5 3.987.3 2.592.5ZM472.909 358.5l-1.196-.1-.1-1.7.499-1.5 1.096 2.5-.299.8ZM660.818 228.5v1.8l-.698 3.1 3.888 1-1.296 1-.399 1.1-3.588-.1-.997 2-.798.6-2.592.6-1.096 3 .399 2.3-.997 1.5-.499 2 1.894.5.898 1.1v1l-1.994.2-1.695-2.3-.997.7-2.093.5-1.396 1.2-1.993-.2-.798 2.6-1.794-.1-3.29 1.3-1.595-.9-3.688.3-1.595.3-2.891-.4-.798-3-1.096-.9-4.486-2.2-2.293-.7-.598.6-1.296-2v-2.1l.997-3.1-1.296-1.3-1.395-.6-.898-1.3-5.682-.1-2.392-.6-3.888-1.4-1.994-1.2-1.794.2-.598-1.2.199-1.6-1.096-2.4-1.595-2.9-.698-3.8 2.791-1.7 3.589-1.9 4.685-1.4 5.881.5 4.287-.1.997.9 1.595-.7 4.884.5 2.293.1 3.689.9 4.585-.4 1.695-1.3 2.293-.2 2.392 2.9 6.081 1 .897.4 5.383 3.1 2.592 2.1 1.495.7 2.293.5ZM429.048 311.7l.3 2.2 1.495 1.6 2.791 1.1v1.4l-.897.9-.598 3-1.296-.7-1.994.6h-1.396l-2.093-1.2 1.097-1.7-1.994-2.4.199-1.7 1.396-2.5 1.296-1.3 1.694.7Z"/><path fill="#EBECE6" stroke="#171717" stroke-linecap="round" stroke-linejoin="round" stroke-width=".1" d="m664.506 201.2 1.894.3.499 1.1 3.19 1.7.698 2.2-.798 1.6-.299 3.1 1.794-.3.997.6.299 1.2 1.695 2.1 1.296.8 1.894 4.2-.299 1.7-1.296.2-1.396.8-2.492 2.4-.398 1.7-3.091-.1-2.99-.4-1.097.3-1.196 1.5-2.592.6-2.293-.5-1.495-.7-2.592-2.1-5.383-3.1-.897-.4-6.081-1-2.392-2.9-2.293.2-1.695 1.3-4.585.4-3.689-.9-2.293-.1-4.884-.5-1.595.7-.997-.9-4.286.1-5.882-.5-4.685 1.4-3.589 1.9-2.791 1.7-.798-2.8-.598-5.5.1-2.8 1.894-1.6.798-1.2.598-4.5 2.492-3.6 2.392-.4 3.091-1 3.489-.9 1.395 1.9 4.885 3 1.196 1 2.293 3.4 4.386 1.8 3.09-.6 3.589-2.4.997-1.1v-1.1l-1.196-4.7-1.097-2 .1-1.3 8.373-2.8 1.496 1 1.096-.7 5.583 2.5 2.292.5.598.7 3.489 2.7 2.792 1.1 3.987-1.2 3.389 1 1.894.2ZM704.182 383.2l-1.994-2.3.897-.7-1.396-5-.099-2.6.897-4.8-.498-2.9-1.396-2.3-1.396-2.9-2.99-2.1-1.296-1.7-2.094-1.8-2.492-3.2-1.495-1.3-2.991-4.9-2.492-3-2.492-1.6h-2.093l.199-.6 2.293-1.4.698.2 3.987.1 1.196-1 .798.3 1.595-1 3.489 1 3.588 2.4 2.493.3.598 1.2 5.582.6 1.396 1.9 1.395 1 1.396-.7 1.396 1.4.598 2.3-.598 3.1.598 1.2 2.292 1.2 2.891 2v2.4l.897 1.9 1.994 1.3 2.094.8.996 1.6.2 2.9 2.891 1.7-.598.7-2.891.4-1.197-1.3-1.594.6-2.094-.8-1.894-.2-2.093-1-2.492 1.6.498 2.1.997 1.7-.399 2-2.293 1.7v1.3l-2.492 2.9.499 1.4-.399 1-1.994.2-1.096.7ZM636.793 431.8l3.289 3.2 3.39 1.8 1.694 3.3.898 1-.499 1.7v4.2l-1.994.3-.199 2.1-2.891 1-3.289-.6-2.991.4-.797.3-1.695 2.5-2.393 1.3-2.292-.6-.898.6-4.585.3-1.296-1.1-1.595.2-1.296-2.4-1.196-1.1-1.196-2.2-.2-1.9-.698-2 .798-.8-.299-2.1.498-2.6 1.695.3.498-.8.2-2.6 3.389-1.5.997-.1 1.595 1.2 1.495-1.9 2.094-.4 2.193-.3 1.993-.9 1.894.3 2.293-.8 1.396.7ZM595.523 412.9l.399 1.2 2.592 1.7 1.894 2 2.991 1.6 2.093.5 5.283 2.9.1 1-1.595.4-.199.7-1.994.4.897 1.5-.199 1.3-3.39 1.2-.797-2.1-1.097-.3-3.19 5.3-.797.3-2.492-.2 1.595 1.9 1.694.8.299.6v3.1l-2.093-1.2-.897-1.8-3.09-2.9-3.489-2 .099-1-1.595.1-1.196-1.9 1.097-1 .099-.8-1.096-1.6-.598-3 .498-.7 1.695-.2-.1-1.5.499-1.7 1.993-1.7 2.293-.2-1.396-2.2 3.19-.5ZM411.702 160.9l.1 1.7-.997-.1-.698-1.1-.199-2 .698-.5 1.096 2Zm-1.794-11.1h-1.794l.299-1.3.897-.3.598 1.6Zm32.398-31.9-2.293-.2-.997-.8 2.791-.8.698.5-.199 1.3Zm3.589-4.6-.299-.9 2.691-.6.897 1-3.289.5Zm27.912-16.6-4.187.3-.299-1.1 2.093-.8h1.196l1.197 1.6Zm6.778-10.5-1.993.3.099-1.1 1.795-.3.099 1.1Zm4.087-5.7-.099-1.1.997-1.2.996.4-.299 1.5-1.595.4Zm3.091-24.9-1.496.7 1.097-2.6 1.096-.7.399 1.5-1.096 1.1Zm8.473-5.2 2.293.2-.499.8-1.395.3-1.097.8-1.894.2-1.894 1-1.595.3-.399-1.2.898-1h1.295l.997-1.2 3.29-.2Zm12.361-9 2.193 2.1-.299 1.5-1.196.7-3.29.1-1.595-.9-2.193.6-1.595-1.1 1.595-1.4 2.592.4.498-1.7 1.695.3.399-1.5 1.196.9Zm6.28 5 1.296-1.1 1.495-.4.599-2.2 1.794-.5 1.595 1 .897 1.2-.199 1.1-3.091 1.2-2.492 2-1.595-.2-.698.7-2.392.6-1.695-.9-.897.9-1.395.4-1.197-.4-2.891 1.5-2.791.3-.997-1.1 3.091-1.9 5.084-.6 2.891-2.3.398-2.5.598-.9-1.296-.6.2-1.7 2.392-1.7 1.296-1.4 1.495-.3.898 1.1-1.097 1.4-1.595 1.2 1.097 1.5.598 2.4-1.396 2.2Zm15.451-13.7 1.396.8 1.495-.3 2.293.7.997 1.5-1.196.9.399 1.7-3.789.5-.897-.5-1.495.9-1.396 1.4-2.193-.6.2-1.6-.299-2.3.697-.5 2.891.3-.398-2 1.295-.9Zm123.611-2.6-1.794.4.199-1.8 1.595 1.4Zm-92.11-3.8-1.296.4-1.794-.3-.698-1 2.193-1 1.695.3-.1 1.6Zm-15.052.3.997.7 1.495-.5 1.096 1-1.395.8-.798 1.2-1.993.1-2.891 2.3-.1.8-4.984.5-1.496-.3 1.695-2.7h1.695l1.694-.8-.299-.8 2.492-2 .599-1.7 1.395-1 .798 2.4Zm4.785-2 1.395.2 1.296 1.6h-2.293l-1.993-1.8h1.595Zm37.182-4.3.499 1.1-3.29 2.1-1.595.1-2.093-1.2.1-.8 1.894-.9.897.1 2.691-1.4.897.9Zm3.888-.3-1.794.5-1.695-.9-.199-1.6.797-.3 3.19 1.2-.299 1.1Zm-6.38-3.2-.398.8-2.692 2.1-2.193.7-1.794-.3-.798.6h-1.994l-1.993-.6-1.994-1.2 3.489-.1.598-.5h1.495l2.792-.4 1.096.3 2.093-1.4h2.293Zm60.41 23.5-1.695-1.3v-.7l3.19-2.9.698-1-2.592-2.7-3.589-.8-4.186-1.1-4.187-2-1.794-1.2-2.891.3-3.489 1.6-.898.2-3.788-.4-2.093.2-1.695 1.8-2.592 1.7-.697 3.8-.598 1.7.697 3.2-1.495 1.4-2.093.3-1.595 1.3-.499 1.7-1.296.6-2.592-.8-3.887-.8-3.589-1.1-1.495-.1-1.196 1.2-3.689.9-1.794.1-.798-.5-6.878-.6-1.396-1.8-7.875-5.5h-3.588l-1.895 1.1.997 1.4-.498.6-1.894-.4h-2.094l-.498.4-5.084.2 2.592 1.6.1 2-1.396 1.9-1.595.9 2.891.9-2.492 1.6-.997-.1-8.573-1.7-2.891-.1-4.087-.9-2.093.5v.8l.797 3.6-2.093 3.1-6.281-1.8-1.495.9-3.688 1.9-1.496 3.5-1.096 1.1-2.692.6-.498 1.1 2.691 2.3.997 1.3-.199 1.4-1.495 1-3.29 2.9-2.991 2.9-1.295.9.996 2.5-3.289 1.5-2.393.5-3.788.4 1.396 3.9-.598 2.7-.1 4.7-3.29 5-4.386 5 4.686 1.6 1.096 2.9.1 1.2-1.695 2.2-7.078-.9-3.289.4-3.29 1.5-3.489 3.8-1.196 1 .498 1.5-1.993 2.8 2.691 4.1-1.096 1.1.598 2.8-.1 1.8 2.492 4.4v1.6l-.897 6.4 3.788 2.1 1.196.4 3.39 2.7-.399 1.9-1.296 2.5h-2.393l-1.794.6.299 1.6 3.09 4.9.499 1.4-.598 2.1-.1 2.8-1.894 2-1.296.8-2.592.7-.897 2.4-1.495 1.5 1.595 4.4-.598 3.9-.698 1.4-1.894.2-.997-1.8-.399-1-5.981-1.2-2.293-2.9-.398-3.1-2.493 1.2.598 1.1v2.3l-2.492 3.9-1.096-.2-1.296.8-1.296.2-.598-1-1.097.2-.797 1-3.389 1.3.996.7-1.694 1-.598.9-2.692 1.5-4.286 3.9-2.293 1.1-1.595 1.2h-1.396l-1.794.9-4.586.9-3.09-.4-2.093.4-1.097-.7v-1.1l-1.196-.1-.798 1.2-1.595-.4.698-2.4-3.09-.1-3.788-1.6-.897-.8-3.091-1.3-1.395-1.4-.798-1.6.299-3.6.599-.5 2.691.8 2.791 1.3-.099-1.2-2.393-1.6.798-1.8-.2-1.6 2.592-2.1-.399-.7-3.389 2-3.09.9-1.097 1.2-1.096.6h-2.094l-.498-.9.498-3.3 1.197-2.7 1.794-1 3.389.7.997-1 1.296-.2 2.392-1.2-4.087.5-1.196-1 2.791-2.4 1.196-1.4.3-1.5 2.193-1.7 1.794-.8 1.595.6 1.495-1.9-4.984 1.1-1.994 1.1-2.691 2.8-.2 1.1-1.993.9-1.496 1.5-.598 1.2-2.791 1.9-1.396.3v-2.4l1.097-2-.299-1.6 3.19.2 1.794-1.2h-2.691l-1.396-.7-1.196-1.5-.598-1.9 1.096-1.8-2.193-2-.498-2.2-.1-2.5.897-.5 2.094.4 2.392-.2 5.184-.9 3.389.6 1.396-.1 1.993-.7 1.894-.1 2.194 1.2.697-.5 5.383-1.2-2.99-1.5.099 1.4-3.588.3-3.19-.6-1.296-.6-.498 1.3-1.097.3-3.389-.5-4.686.3-2.093.7-1.396-.1-2.492-1.2-.897-.9-.299-2.6 2.791-.3-1.894-2.3-1.894-1.3-.199-1.4.698-1.3 1.495.2 3.788-.1 5.981 1.5 4.885-.3-.798-.6h-2.891l-7.177-1.3-2.193.1-1.196-.3-.698-1 .399-1.9 1.096-.4 1.196.6 1.894-2.3 1.894-1 1.994-.5 1.994 1 1.296-.1 3.987-.8-1.296-.5-3.489.5-.199-.5 2.392-2.3 4.187-.4 5.882.5 2.292.8.399-1.8 5.284-1.4-6.779.8-1.794-.5-4.885.7-.1-1.3 2.293-2.3 4.087-.9 1.894-1.1 3.09-.2 2.592.3 1.196 1.3 4.387 1.7-5.084-4 1.096-1.7 3.29-.4v-1.6l-2.193-.3v-1.2l1.894-.9 2.791-.7 3.19.8-.598 1.3.897.5 1.695-1.5 3.887-.8 2.792 2.1.498 1.1 1.097-.5 2.691-.5 2.692.3 1.794-.2-.997-1.3.399-1 2.392-1 1.695-.3 2.592-1.2-.798-1-1.395-.3 2.891-1.5-1.695-.6-2.392.9-1.596.9 1.496 1-1.097 1.1-6.081 2.8-2.99.8-1.396-.1-1.894-2.5-2.093-.1 1.296-2.2 1.595-.8 1.395-2.3 2.293-1.3 3.19-3.3 2.791-1.1.897-1.1 2.991-1.5 2.991-.9.299-1-2.692.9.399-2.1 1.395-1 6.779-2.8 1.595 1.3 2.093-.2 2.293-1.6-.299-.7-2.093 1h-1.496l-.398-.6-2.094-.5-.299-1.2 1.296-2.8 3.39-3.3.498-1.3 1.296-.7 1.695.2-.2-1.1-2.093-1.1 6.18-1.1h2.991l2.392-.9.499-1-6.38 1.1-2.393.1-.797-2.7.199-1.5 1.894-2.2 1.396-.2 1.695-1.1.099-1.5 2.293-.8 2.093-2.1 2.293-.5 1.396.2 2.99-.7 6.58-.1.099-.6-6.28-.3-3.489.2-.399-.6 2.792-2.7 1.993-1 1.695.2 1.794 1 .598-.8-1.595-1.5.698-1.5-2.592 1.1-1.794.3-.897-2 2.293-2h2.292l.3-1.5 3.289-1.3 1.894-.2 1.495-.6.599.4.897 2.3 1.495.3.997-.8-1.296-1.1-1.097-1.8 1.994-1.5 2.293-.2 2.592.7 2.293-.2.897-1.2-6.281-.1-.797-.9 1.196-1.2 2.193-.8 2.492-.1 2.393-1.4.897-1.1.299-1.6 1.396-1.3 3.887-.8-.598-2.2.798-1.4.997-.6 2.093 1.5 1.794.5-.498-1.4.299-1.2h2.094l.996-.5.299-1.3 1.396-1.2 4.685-.7.499 2.5.697 1.4.798-2.8 1.595-2.1 2.392-.9.898 1.1-.399 4.3-1.894 2.4 1.495-.2 2.492-2.3.598-1.2-.697-2.8.598-.8 3.489-.1 1.894.4.697-1.5 1.695-.1 1.794.9 4.088 1.4-1.296-2.2-.997-.8-2.094-.5-2.193-1 1.197-1 2.392.3 1.994-.8 2.193-.2 1.096.6.798-1 2.492-.5 2.791.9 1.595 2.7 2.393 1.4-.1-1.4.598-1.9 2.293-2 2.093-1 1.396-.1 2.891-3.4-1.595-1 3.289-2.3 1.097-.1 5.383 2.1 1.495-.9 3.39.8-.798 1-3.09 2.9-.499.8-.099 2.2-1.196 1.4.797 1.4 1.595-.4 1.794-1.3.1-1.3 4.287-3.7 1.894-2.1 2.292-1.7 1.496-.3.897 1.1-.2 1.5.2 4.3 3.688-1.4 1.097-3 1.096-.7-.797-1.4.399-1.1 2.292-1.3 2.193.4 3.29.3 2.692.8.199 1.4-.798.9-2.89 1.1.697.7 1.994-.6.897 5.5.897-2.1.997-.7.1-1.5.797-1.9 1.795-1.3h2.691l3.29 1.7 2.492.3 1.794.8 2.393-.7 1.994 1 .099 1 3.788.3 3.788 1.6.598 1.6-4.386 1-1.794 1-3.29.4-11.464-.7.399.7 8.274 1.5.598.5.399 2.1 1.794.7 3.489-.2v-1.3l3.19.6 3.788.2 1.097 1.7-.299 1.5-2.393.1-4.186-1.4-.399 2.3-1.097.9-5.781 1.3-1.097 2.6-2.193 1Zm-40.373-27.7 3.689.5 2.193 1.4-3.589.5-1.695-.1-1.994-1.8 1.396-.5Zm-338.533 3.9-.1-1 4.486-1.5 1.894-1.4 3.389-.5-.199 1.8-2.99.8-3.29.5-3.19 1.3Zm268.354-45-.997.5-1.894-.8-.797-1.2 2.99-.1.698 1.6Zm9.57-50.1 3.888.2 1.994 1.9 1.395 2 1.296.2 4.685-.4 3.39.7-1.396 1.1v1.2l5.483 1.3 1.794.1 2.991-.4 6.479 1.7-6.579 1.1-1.994 1.9-3.688 1.3h-2.592l-2.293 1.3-2.193.1-1.495-1.9 2.193-1.3-3.09-.4-1.196.5-10.467 1-1.097-.2-.897-1.2 2.791-.6.199-1.1 2.493-2.4-5.483-1.6-1.994-1.2-.797-1-2.493-.9v-1l-1.694.1-.399-1.2 10.766-.9Zm46.055-.6h-1.296l-2.592-.8.698-1 3.19 1.8Zm-137.168.4 3.489 1.5 1.894.5 2.293 1.5-.698.9-1.993-1.2-3.589-1.3-2.293-.2-3.29-2.5-1.495-.8-.797-1.7 3.588.7 1.595 1-.299.8 1.595.8Zm155.111-3.4 2.692.1-.1.6-7.277-.4-3.788.7.399-.9 2.392-.6 3.689-.1 1.993.6ZM500.124-93l1.395-.6 5.383.8 2.492.9 1.296 1-1.894 1.9 1.695 1 3.19-1.7 2.691.3 1.695.9.997 1.1-.199 1.4 3.09 1.1 3.389-.2 2.393.3 1.495 1 1.894-.2.199-.8 2.592.2 2.991.8-2.094.9 2.094.8 3.389.6 2.093.6-1.495 1.4h-3.19l-2.891.3-5.383.3-2.99 1.6-2.492 1.8-.399 1.6.598 1.1-1.495.5-3.29.2.199 3.9-.797 1.9-3.29.3-1.794 1.1-1.196 2.1-2.094 2 .997 1-2.093 1.9 1.196 1.8-.997.6-2.093.3-2.193-.3-2.293-1.1-6.679-2.2-4.287-2.4-5.981-1.3-3.289-1.6-1.496-1.3.299-1.4 2.792-.2 2.891.7 1.694-1.9 11.265-1.1 7.277-.2-1.894-1.3-6.879.7-4.286-.2-2.094.1-2.093.6-4.286.5-4.586-.1-2.891-1-1.296-2 1.196-.6 3.789.1 6.379-.9 2.991-.8 3.09-.1-.498-.8 1.794-.4 2.393-.2 5.582.1.199-.6-2.591-.6-.898-.6 2.592-1.8-2.193.1-2.99 1.3-1.795.5-4.585.3-1.695-1.6.897-1.2-.797-.7-1.296 1.3-2.094.3-1.993-.9-1.894.5.697 1-.598 1 1.994.9-2.293.6-2.093 1.1-3.888.2-4.486.1-4.585-1.6-2.193-1.2-1.795-1.2-2.691-.6-1.695-.8-.399-1.1-1.395-.7-.698-1.2h4.386l-1.695-1.8.499-1.6-3.389.1.398.9-2.193 1-1.196-.2-2.293-1.9-2.392-2.4.399-1.3-1.197-1 1.496-.7 2.492.9.797-.7 3.788-.4 4.586 1.1.399-1.1 4.186.5 2.991-.6 4.984-.3 1.994.4-.997 1.1-6.28.3-3.988 1.3 5.683-.2.996.1.598 1.1 2.991.5 2.293 1 .797-.5-.598-2.2 4.386-2.3 2.094.4 2.093.9 3.988 3 2.292 1.9 6.081 2.8-.698-1.5-4.186-4.5-.898-1.7.898-1.7 1.096-.5-.399-1.3 1.296-.5 2.393.3 2.592 1.3Zm134.277-2.3-7.975.4-.898-.3 15.651-1.4 1.695.5-8.473.8Zm-118.527-1.9-1.794.6-3.19-.5.897-.7 4.087.6Zm18.542.5 5.582.1 1.495.9 5.483 1.1.798-1.5-.599-2.2 1.894-.1 1.695-.6 3.09.3.2 1.3-.499 1.4 2.094.1 2.791-.3 1.894-1.1 2.392.1 1.296-.6 1.396.6 8.174.7 3.29.6h5.183l3.689.2 2.791 1 1.097 1.7-.898.4-6.679 2-1.595.7-2.392 2.3-4.087.7-3.489-.3-2.991.7-1.894 1-1.495.2-9.171-.4-2.193-1.1 1.196-.9-8.174.3-9.171-.1-.997-.5-5.583-.5-4.186-1.1 1.096-.5h5.782l-.698-1.5-2.891-.1-1.794.4-4.287.2-3.987-.1-1.894-.3-3.788-1-.698-.8 2.791-.4 2.094-.7-4.486-.3-1.894-.3-.598-.9 5.881-.2 4.984.8-.697-2.2 3.887 1.1.2-1.1-1.994-1.4 1.994-.1 4.486.7 5.084 1.6ZM619.847 248l.598-.6 2.293.7 4.486 2.2 1.097.9.797 3 2.093 5.1 2.891 4.9 1.695 3.6.897 3.9-.598 1.6-3.987 1.7-.798.5-1.994 2.7v1.2l3.29 1.3 1.794 1 .798 1-.2 2.4.399 1.1-.797 1.5.099 1.3.997 1.6 1.197 1.8v1.3l2.691 2.8 1.894 2.8 1.396 1-1.197 1.3 1.795 2.6.099 1.3-1.196 1.8-2.99.5-4.785 4.6-2.393 2.7-3.389 4.4-.598 1 1.495 3.8-.1 1.8 1.894 1.4-.398.9-3.29-.7-.897-.2-5.682-1.9-.798-1.4-.996-.7-3.091-1-3.588-.3-3.19.2-1.396 1.5-1.794-.1-2.393-1-2.99.1-2.293 1-1.097 2.1-1.694-.6-1.396.4-.598-2.7-1.396-.4-2.99-3-2.193 1.3-.997 1.7h-2.193l-.499-1.5-1.296-.2-.498-1.6-2.791-2.2-.499-1.8-2.691-.8-.499.2-3.489-1.8-1.794 1-.997-.6-2.691-2.3 1.395-.5V309l-3.588.7-3.29-1.9-2.193-.6h-1.296l1.695 2.4-3.489 2.5-.997-.4-1.496-1.9-1.993-1.8-1.595-.9 1.595-1.2.697-1.1-1.794-1.2-3.19.7-.797-.9-2.692-1.1-4.585-1.1-.997-1.1-.299-1.1-3.29-.8.1 1.9-2.094.4 1.595-3.6.399-2.3-1.595-3.2-2.193-.9v-1.6l-1.894-3.1.797-1.1.698-2.6-.797-1.9-1.994-2.3.598-2.6-1.395-1.7-3.29-2.1-1.595-1.4.698-1.6 1.894-1.8.299-2.7-1.795-4.1-.697-2.6 2.791.9.698-.5-.1-1.8-4.087-.7-.1-1.2 1.994.4 3.788-1.4 6.48-1.8 6.878-1.7 3.29-.5 1.993-2.2 1.894-1.7 3.788-.7 1.296-.8 2.791-1.2 6.58-1.2 5.482-.4 5.383 2.3-.897.3-2.99-1.2 2.193 3.5 1.096 1.2 1.994.9 1.695.3 4.884-.5 2.193-1.1.499.1 6.579.4 22.828.9 6.978.1ZM260.18 511.9l-1.196.2-4.486 2.5h-1.296l-2.492-1.1-4.486-.4-1.495-.3-1.795.7h-1.495l-1.097 1-.797-.3.997-2.1 1.595-4.1v-2.6l.399-2.2-.299-2.1-.698-1.4 1.096-3.5v-1.8l-.897-2.3 2.791.3-1.694-1.4h-1.496l-2.292.9-1.496.1.1-1.4-.498-1.8 1.993-.6 1.595-1.7-.299-1.6-1.196 1.1-.598 1.4-2.791.7-1.496-.5v-1.9l.598-1.7.399-2.3.798-2.2-.2-1.4 1.595-1.3 1.396-1.9 4.286-8.9-.598-1 1.695-6.6 1.196-2.3.598-4.3-.199-2-.698-2-.698-4.3v-1.4l-.897-1.8.1-1 1.395-1.7 1.197-1.1 1.894-.9 4.087-1 .997 1.8-1.296 1.9.897 1.3 2.99-1.1 2.891-.1 2.193.8h1.396l2.492-.9.798-1.4 1.495.5 5.184.1.697 1.1.1 3.1 1.894.2 1.894.9.299 1.1-2.492 2.5-2.093 1.1-1.595 1.4-1.097 1.6-1.994 1.6.798 2 .399 3.5-.399 3.8.399 1.1-2.692 2.1-.199 1 1.395 1.3v1.9l-1.694 3.5-.997.5h-4.287l-1.096.3 1.096 1.9 1.396 1.2.299 1.9 1.595 3.2 1.695.4.498.8-.598 2.4-3.19 3-.897 4 2.99 4.3 1.695-.2-.698 2.4-2.093.6-3.489 4.3-.798 2.2 1.097 6.4Z"/><path fill="#EBECE6" stroke="#171717" stroke-linecap="round" stroke-linejoin="round" stroke-width=".1" d="m704.181 383.2 1.495 1.6 1.794.9 3.988.9.598-1.2.897.3 1.595-.5 2.193-1.3 2.193-.2 2.193.7 1.894 1.8-.199 4.3-.698 2.1-6.18 1.3.399-.6-.698-2-.997-1-.897 1.1.598 1.7-.698 1.4-.199 2.4.598.9-1.595 2-.499 1.3.798 4.8-.399 3.7h-1.994l-2.591-.5-2.194-.7-2.492-2.6-1.694.5-.898-.6-3.189-.4-4.486-2.3-2.891.4-4.386.9-3.19 1.2-3.29 2.1-1.196 1.6-1.595.9-2.293.6-4.187-.2-9.37-1.7-2.492.5-3.489-.4-5.284-1-3.888-.3-3.688.6-.897-1.8 1.794-2-4.286-2.5-.798-1.2-1.595-.9-.498-1.7 2.492-1.8-2.991-1.6-1.694.5-1.695 1.8-1.296.2-.997-1.2-1.495-.7-3.489-.7-1.495-1.2-2.094-.6.2-.6 1.794-.8-2.293-1.1 1.496-2-.898-1.1-2.591-.8-3.788-1.9-2.194-1.8-.398-4.1-.798.2-1.794-2-2.891-1.7-1.695-2 3.19-.9 1.396.5 2.492-2 2.592.3 1.296-.9 1.495-4.7 2.094-1.5-.2-1.3 1.595-2.7v-1.2l1.396-1.5.698-2.5 1.395-1.4-.1-1.7 1.197-1 1.894-2.4 4.585-1.1 2.193-2.3 2.094-.9.897-1.2h.698l2.691 1.5 2.692-.1 6.878 1.4 3.589-.7 1.196.3 4.286 3.3 2.094-.5.997-1.2 3.389-1.3 8.374-1.2 1.096-1.9.2-1.4 3.688-.8h2.093l2.493 1.6 2.492 3 2.99 4.9 1.496 1.3 2.492 3.2 2.093 1.8 1.296 1.7 2.991 2.1 1.395 2.9 1.396 2.3.498 2.9-.897 4.8.1 2.6 1.395 5-.897.7 1.994 2.3Z"/><path fill="#EBECE6" stroke="#171717" stroke-linecap="round" stroke-linejoin="round" stroke-width=".1" d="m604.694 373.1 1.695 2 2.891 1.7 1.794 2 .798-.2.399 4.1 2.193 1.8 3.788 1.9 2.592.8.897 1.1-1.496 2 2.293 1.1-1.794.8-.2.6 2.094.6 1.495 1.2 3.489.7 1.495.7.997 1.2 1.296-.2 1.695-1.8 1.695-.5 2.99 1.6-2.492 1.8.498 1.7 1.595.9.798 1.2-.897.7-.2 1.9-2.093 1-.399 2.3.598 2.4 2.393 3.9 2.891 1.5 1.296 1.6 1.595 1-.3 1.4-1.594 1.7-1.097 1.6-1.794.1-1.097.6v3.3l1.396 2.9-1.097 1.7-.997.3-1.395-.7-2.293.8-1.894-.3-1.994.9-2.193.3-.598-1.3.997-.9 1.196-3.2.199-1.2-4.685-1.2v-1.3l-2.193-1.2-.199-.7-2.293-2.1-2.791-1.3-1.097-1.3-1.694.9.598 1.6-.399 1-1.695 1.3v1.4l-1.495.5-.1-1-5.283-2.9-2.093-.5-2.991-1.6-1.894-2-2.592-1.7-.399-1.2.698-.8 2.492.3.2-2.2-3.19-3.7.498-.8 3.09.1.299-.8-3.289-2.9-2.393-1.2-.498-.8.1-2.6 1.595-2.7.498-2.5-1.495-.8-2.791.7.996-1.6-.697-2.6 1.694-.4 2.293-.1-.897-1.5-2.991-1-1.196-1 .399-2-1.296-.4-.2-1.6-1.594-2.7.697-1.5 2.094-1.3 1.595.5 2.193-1 1.495-1.6.997-.3 2.891.4 1.096-.2 2.792.3.996.5ZM627.821 327.7l-1.495 3-.797 2.9-1.595 1.7.099 2.5-4.286 1.1-.598-.2-2.193-2.2-1.396-.9-4.585.7-2.493-.6-2.691-.1-1.794.4-1.595 3.5-4.985 2.5-3.489-1.4-.698.2-.996 1.5-2.393.6-4.286.4-1.396.7-.399 1 .499 1.3-.598 1-6.978.4-4.686-.1-1.595-.7-4.186-2.7-2.094-.3-2.293-2.9-1.595-2.9-.099-.8.897-2.4 1.096-2.8 1.396-1.2 3.589.5 1.694-.2 1.496-.7 2.093-1.9 1.595-.8.698-3 2.293-1.2.598-.8 1.994-1.5 2.791-.3 1.296.2.498 1.5h2.193l.997-1.7 2.193-1.3 2.991 3 1.395.4.598 2.7 1.396-.4 1.695.6 1.096-2.1 2.293-1 2.991-.1 2.392 1 1.794.1 1.396-1.5 3.19-.2 3.589.3 3.09 1 .997.7.797 1.4 5.682 1.9.897.2ZM558.44 367.1l-2.492-.6-.897.8v1.7h-1.994l-.698 1-4.386 1.7-.399 1.4.898.9.199 2.2-.399 1.1-2.093.6-2.094 1 .997 1.1-.698.7.798 2.3-1.196.4-1.595-.2-1.994-.7-1.296.5-1.495-.7-2.592-2.1-1.196 2.2-.598.3-3.589.1-1.097-.5-1.395 1.3-3.29-.8-.498-.6 1.694-1.1 1.496-.1-.2-1.3-1.495-1.3-1.894-1.1.399-2-1.296-.2-.299-1 1.595-2.1-2.293-.7-.698-1.4 3.29-2.3.199-.9 4.985.9 4.984.7 2.99-1.2.997-1.3 1.894-.7 2.592-.2 2.791.2 2.293-1.1 1.595-.2 2.393.5.099-1.9 1.296-.9 2.393.1 1.395 3.3 1.894 2.2ZM544.384 219.4l-1.495-.3-.299-3.8 1.994-4.6.997-.3 2.691-6.5.499 2-1.496 3.2-.299 2.2-.598.5-1.994 7.6Zm26.118-22.7-1.296 1.4-1.395.5.099 3.3 1.496 1.2-1.296.5-.698 1.8-1.794.6-1.496 1.6-.299 1.6-2.093.9 1.196-2.4-.897-.7-1.396-2.1.399-.9-.598-3.2 2.691-2.9 1.296-1.1 3.29-1h1.296l1.495.9Zm36.684-112.9999-2.691.3-2.193-.6-.997.3-3.788.3-1.097.7-2.093-.7-1.994-1.2-1.993 1.1-1.595-1-.997 1.9.099 1.8-1.794-.2.299 1.1-1.994 1.5-3.189.2.697 1.5-.897.7.997 1.7-1.296 1.5-2.093 1.9-.499 1 1.695 1.1 1.595 2.4999 1.595 1.1-.399 1.2-2.093 1.1-2.193 1.7-1.994 4.3-3.09 1.3-2.393 1.6-2.99.7-2.393 2.2-1.794-.8-1.495.5-.997 1.8-1.894 1.5-2.393-.2.2.8-2.293.3-.997 4-2.193.6-.698.8-.897-.6-2.094.1 1.595 2.8-1.694 1.8h-1.197l-1.495.7-1.894-.8-.199 1.2.797 1.3 1.296 1-.099 1.3-.898 4.3.698 1.8-2.093 1.2-.798 1.1.598 1.7-.099 1.1.697 1.9.798 4.2 1.097 2-.1 1.6 1.296.9 2.093-.1 1.396 1.6 3.09-.8.798 1.1 2.89 2.2 1.695.3 1.894 1.2v1.5l2.891 1 1.894 2 .798 1.6-.1 1-2.592 1.5-1.296 1.3-3.788 2.1-.598-.1-2.093 1 1.993.6 1.396-.7 2.592-.6 1.395 1.2-2.193.5-.299 1.6-.797 1-1.994.7-2.791 1.5-3.988 1.4-1.096 1.2-2.592 1-1.296.8h-3.788l-3.688-.1.996.9.898-.2 3.588.4 1.695 1.3-2.991.9 1.695 3.2-.698.8.399 3.5-1.097.1-.299 1.4.598 2.5.997 2.1-.099 1-1.496 2.4.897 2.9-1.495 5.3-1.894 3.1-1.296 4.1-1.794 1.4-2.393-.9-3.389.5-3.19-.3-2.99.2-.798.4.698 1.4-2.293-.2-1.694 1.1-1.994 2.1v1.5l1.894 3-1.695 2h-1.096l-3.19-.5-5.483 1.2-5.084-1 .498-1 .2-3.1-.598-1.7-1.296-1.1-3.091-3.8-1.196-2.3 2.393.9.997-.5-1.795-2.6 2.193-.1.698-1-.598-1.5-1.894-.6-1.894-2.4-1.794-1.2-3.489-4.7-1.296-3.2-1.097.3-1.196-3.7-1.695-.6-.598-3.7-1.794-.4-1.296-1.7-.399-3.2-1.196-.6-.798-1.4-.797-3-.299-2.7-.897-1.8.498-1.2 1.097-.2 1.096.8.997 1.8 1.894-.2.698-1.4.598-3.9-1.595-4.4 1.495-1.5.897-2.4 2.592-.7 1.296-.8 1.894-2 .1-2.8.598-2.1-.498-1.4-3.091-4.9-.299-1.6 1.795-.6h2.392l1.296-2.5.399-1.9-3.39-2.7-1.196-.4-3.788-2.1.897-6.4v-1.6l-2.492-4.4.1-1.8-.598-2.8 1.096-1.1-2.691-4.1 1.994-2.8-.499-1.5 1.196-1 3.489-3.8 3.29-1.5 3.29-.4 7.077.9 1.695-2.2-.1-1.2-1.096-2.9-4.686-1.6 4.387-4.9999 3.289-5 .1-4.7.598-2.7-1.396-3.9 3.789-.4 2.392-.5 3.29-1.5-.997-2.5 1.296-.9 2.99-2.9 3.29-2.9 1.495-1 .2-1.4-.997-1.3-2.692-2.3.499-1.1 2.691-.6 1.097-1.1 1.495-3.5 3.688-1.9 1.496-.9 6.28 1.8 2.093-3.1-.797-3.6v-.8l2.093-.5 4.087.9 2.891.1 8.573 1.7.997.1 2.492-1.6-2.891-.9 1.595-.9 1.396-1.9-.1-2-2.592-1.6 5.084-.2 2.891.8.399.9 2.891 1.1 4.785 2.3 4.187 1.8 8.273 1.7 3.489 1.8 1.197 1.6 1.395.1 1.894 1.5 1.795.9-1.097 1 .399 2.4.698 1.4-.299 1.9 2.791.4.598 1.3-.997.8-.1 1.1.798 1.6 3.29 2.6.598.9-.698 1.4.1 1.8-1.496 1.3v1.3l1.296 2.6 1.794.6 1.895 2.2 1.594 2.5ZM686.238 465.7l-2.891.5-.1-1.5 2.193-.6.798 1.6Zm193.889-21.5 4.286 1.3 1.097-1 3.588.1 3.39.8.897-1.9 1.395-.4 1.396.3.598 1.1 1.196.4 3.489 2.5 1.097 1.7 1.894.2 1.296 1.2 1.296 1.6 1.694 1.2 1.695 3.3-.199 2.3-.997 1.4.797 1.9 1.894 3-.498.6 1.794.9 2.891.9 3.489-.4 1.595.7 2.293 1.7 3.19 2.8.797.9-3.289-1.9-1.396 1.6-.1 3.8-.598.4-2.791-.1-1.196.4 1.196 2.5 1.396 1.2v2.3l2.093 2.5.2 2.1.897 2.2.299 2.2.498.7 1.396.3-.598 3.8-.598 1.2-.399 2 1.694.6 3.19 2 .1 1.3.598 1.5.299 2 3.19 2.3v2.3l-2.093-.5-3.689 3.1-1.196-1.2-.299-2.4-1.495-1.5-1.296-.2-2.093 1.4-4.187-.3-2.891-1.1-2.891-.8-1.894.6-2.193-.7-1.495 1.9-1.994 1.9-1.196.3-1.595-2.6-1.296-.2-1.196 1.3-2.194.8-4.585 1-3.19.3-4.087-.6-3.19.2-3.09 1.4-5.184 2.8-4.087 1.4-4.187.9-7.576-.2-1.097-.3-3.489-2.3-3.389-.6-3.389 1.6-2.293.8-3.489 1.6-4.785-.1-1.894-1.7-3.688-.7-.599 1.6-.299 3.8 1.795 3.1-3.29 1.4v2.6l-1.794 1.1-.798 1.6-2.193-1.2-.997-.1.698-1.3-2.492-4.9.698-1.5 3.489-3.9-.399-2.4-1.994-1.6-2.891 2.1-1.694.8-.299 1.2-1.097.8-1.794.4-2.891-1-3.19-1.4-1.894-1.1-1.396-.3-1.296.5-3.489 2.8-3.09 4.1-.797.8-3.19 1.7-2.193.6-.997-.1-4.386.8-2.193.1-1.595.9-3.489-1-2.194-1.3-1.395-1.3-2.293-2.9-1.595-1.3-3.29-1.2-5.781-3-5.284-.7-3.987-.3-.698 1.1.1 4.2-.499 1.2-.099 2.2-1.097 1.1-2.093-1-1.894.9-3.689 1.3-1.196.1-4.585-1.6-2.891-2.1-.598-2-1.296-2.7-1.795.3-2.292-.4-3.19-1.6-2.393-.1-1.196 1.9-.997.7-1.296-.4.798-1.3-3.689.2-1.794 1-1.495-.1-.997-1 1.993-.6 3.888-.4.897-.4.898-1.3 1.694-1.2-1.196-.5-5.981.3-4.187-.2-.997.7-.399-1.6 3.589-1.4-.299-1.3-4.187-2.2-.299-1.6-1.994-3.1 1.894-.5.1-2.5-.399-1.5-3.887-1.3-.798.1-1.096-1.3-1.695-.9-1.196.7-3.29-1.4-.598-.6.498-1.4.997-1.1-.897-1.9-.1-1 1.795-.1.997 1.1.299 2.2 3.588.7 2.891-.6-2.492-1.1-1.096-1.2-1.197-2.3 1.795-1.1 1.196-1.7-2.692-1.2.2-2.4-2.492-2.7.299-.8 2.292-2.8-1.196-.7-4.286.7-1.595.6-3.091.2-.299-1.6.599-1.3-.499-3.4.199-1.8 1.695-.6 1.695-2.7 2.99-3.1h3.489l1.296-.9h2.094l.797 1.2 1.894.9 3.19-.1 1.396-.9-1.595-1.5 1.694-.5 1.496.4-.1 1.8 4.087-.5 4.386.4 1.396-.2h3.389l.499-.5-3.589-1.7 1.994-1.5 6.778-1.2 3.689-.8-5.682-.8-1.396-.6-1.994-1.4-.996-1.1.299-2.6.598-.7 2.193-.1 7.676 1.2 5.283-.8 6.081 1.8 5.582-.4 1.097-.7 1.096-2.6 7.377-4.2 2.392-2.1 2.792-1.2 4.984-1.4 3.987-1.7 1.197-.2 10.367.8 6.978.1 2.991-1.6 1.993.5-.099 2.1 2.591 2.6 3.489 1.4 4.387-1.2 1.794.5 2.193 4 1.495 1.4 1.795.9 1.296.2 1.495-1.4 1.695-.1 2.89 1.3 1.197 1.4 4.785 1.1 4.286.6 1.994 1.2 6.18 1.2 2.193-.2 3.589-1.3 6.978-1.3 5.184 1.9 2.492.1 1.695.5 1.694-.3 4.985-2.3 1.395-1.2 1.695-.4 5.183-3.3.898-1.4Zm-171.36-7.1-.1 1.8.997 2 2.293 2.7 1.993 1.4 8.075 3.3 1.395.3-.897 3.5-2.093.5-6.38-1.5-1.595-.1-2.891 1.4-2.293-.4-3.09.6-.598 2.1-1.994 2.4-3.289 1.9-2.493 1-3.489 3.7-1.495 2.2-1.495.7.498-2-.299-1.7 2.293-2 3.29-1.6.697-1.3-5.383.3h-3.289l-.997-1.8.797-.4 2.493-3.2-.499-4.4 3.389-2.5-.897-3.1-2.293-1.5-1.196-.3.299-1.4 1.894-.3.997-2.2 3.39-.4 1.495-1.1 3.489-.3 3.389 2.5 1.495-.6h1.795l.897-.4 1.695.2Z"/><path fill="#EBECE6" stroke="#171717" stroke-linecap="round" stroke-linejoin="round" stroke-width=".1" d="M749.339 371.6v.6l-3.887-.8-.898-.9 4.785 1.1Zm-26.317 14.6-1.894-1.8-2.193-.7-2.193.2-2.193 1.3-1.595.5-.897-.3-.598 1.2-3.988-.9-1.794-.9-1.495-1.6 1.096-.7 1.994-.2.399-1-.499-1.4 2.492-2.9v-1.3l2.293-1.7.399-2-.997-1.7-.498-2.1 2.492-1.6 2.093 1 1.894.2 2.094.8 1.595-.6 1.196 1.3 2.891-.4.598-.7-2.891-1.7-.199-2.9-.997-1.6-2.094-.8-1.993-1.3-.898-1.9v-2.4l-2.89-2-2.293-1.2-.598-1.2.598-3.1-.598-2.3-1.396-1.4-1.396.7-1.395-1-1.396-1.9-5.582-.6-.598-1.2-2.492-.3-3.589-2.4-3.489-1-1.595 1-.798-.3-1.196 1-3.987-.1-.698-.2-2.293 1.4-.199.6-3.689.8-.199 1.4-1.096 1.9-8.374 1.2-3.389 1.3-.997 1.2-2.094.5-4.286-3.3-1.196-.3-3.589.7-6.878-1.4-2.692.1-2.692-1.5h-.697l-.897 1.2-2.094.9-.698-1.7-.897-.7-2.293-.4-.897-1.1-2.193-.8-1.395-2.3h-1.496l-.099-2.5 1.595-1.7.797-2.9 1.495-3 3.29.7.399-.9-1.894-1.4.099-1.8-1.495-3.8.598-1 3.389-4.4 2.393-2.7 4.785-4.6 2.99-.5 1.197-1.8-.1-1.3-1.794-2.6 1.196-1.3-1.396-1-1.894-2.8-2.691-2.8v-1.3l-1.197-1.8-.099-1.4 1.096-.5 1.894.3 1.097.5 1.894-1.2 1.595-1.6.797-1.4 5.882-.5 2.293-.5 2.392-.1 7.776.4 6.479 1.5 6.081.9h2.293l1.794 2.1.997.3 2.991-.1 1.096.4.798 1.4 1.196-1.7 1.894.5 1.894-.7 5.084 1 .797 1.3.997.3.598-1.1 3.788-1.6 2.493 3 .598.5 2.292-.8 7.078-.6 1.994 1.1.498 1.2 2.692.9.797-1.4-1.794-3.6.997-3.3.797-1.2 2.193-2.3 1.097-.5 1.695.4 1.395-.8 4.984.1 2.592.8 1.695-.1 1.794-.9.499-2.4 1.595-.6 3.688.9.997-.1 2.691-1.2 1.595-.2 1.994.3 3.389-.2 2.493 1.4 1.395 1.4 1.695 2.7 3.987 3-.099 1-2.891.5 1.296 1.9.498 2 1.196 1.7-.398 1 3.09.1 2.891 1 4.087-.5 1.495 2.2 1.894.2.2.9 1.395 2.8.897 1.1-.199 1.8.498 1 1.894 1.6.698 1 1.097.4 2.293-1.4 2.791.4 2.691 2h2.293l1.695 1.1 1.395-1.3 4.287-.9 2.293-1 .996.1 2.293 1.8.499 1.2 1.495 1.6 4.685 2.9 1.296-.6.897-1.5 2.592 1.4 2.393.2 3.588 1.9 1.396.1 1.595-.6 1.993 1.8 1.895.2 4.386 2.3 2.891-.3.996.8-.099 1.7.997.9-.1 2.6-1.695 2.1-2.293.8 1.097 1.5 3.09.9-.897.9-1.395-.2-.798 1-.299 2.3 2.492.7 1.196 2.8v1.1l1.197.3-1.296 4.7-.1 1.8-4.187.2-5.981-.3-.897.2-.897 1.9-2.293 1.4-1.695.2-.797.8v2.3l-.399 1.3 1.097.7-.698 1.6.498 1.3-.498.1-4.287-.2-3.389.3-2.093 2.4h-1.496l-3.19 1.5-1.395 1.7-1.396-.8-3.09.5-1.695 1.1-3.09-.1-2.293.6-4.585 3.8-1.296.1-.997-1-1.595 2.6-2.393 1.2.599 3.1 2.791 4.5 3.588 3.9 1.695 1.4 2.393.7 3.09-1.4 2.392.4 1.695-1.2 1.495-.1 3.689 1-1.097 2.5-.299 2.6-1.894.6-2.193-.1-2.193.4-2.692-1.5h-2.492l-1.096 1.9-2.293 1.3-.598 1.4-2.592-.3-2.094.2-2.791 1.4-1.894 2.8-2.293 1.8-1.894.5-1.993-.1-1.296-.6-2.891-1.8.698-2 .498-3.5-1.196-2.9-2.293-1.4-1.595.2-.897-.3-3.688-2.4-1.894-.2-1.894.5-1.496-1.2 3.489-2.9 3.489-2.4 1.695-.2 2.093-1.2 2.193-1.6-1.296-2.3-1.894.6-2.193-1.1-.897-.8-3.09.8-1.794-.1-3.788.8-1.895-.8-3.987-2-2.592-.3v-1l1.795-.3.099-1-3.788-.6-.099-1.3 1.993.5 3.19.2 2.891.5 2.093-1.8-2.392.5-2.891-.5-2.093-1.8-2.193 1.2-3.19-.5-2.393.8-2.293-.2-4.087 1.1-.398 2.9-1.994 4-3.09 3.7-4.586 2.1-1.695-.4-.897 1.1.2 1.3.996.9 1.097 3.1-.1 1.3ZM627.024 432.8l-2.093.4-1.496 1.9-1.595-1.2-.996.1-3.39 1.5-.199 2.6-.499.8-1.694-.3-.1-2.2-1.396-3.2-1.894-1.3-1.395-.5-1.994-2.9-.498-.4.199-1.3-.897-1.5 1.994-.4.199-.7 1.595-.4 1.495-.5v-1.4l1.695-1.3.399-1-.598-1.6 1.694-.9 1.097 1.3 2.791 1.3 2.293 2.1.199.7 2.193 1.2v1.3l4.685 1.2-.199 1.2-1.196 3.2-.997.9.598 1.3Z"/><path fill="#EBECE6" d="m405.921 292.5-.598 1.2-3.19 1.5-3.888-1.1-1.196.6-1.196-.7-.299-1.3 2.791-.4 3.489.7 1.495-.6 1.196.5 1.396-.4Zm-3.389-5.3 1.495 1.4-1.495.3-1.595-1 1.595-.7Zm18.043-8.5-2.991-.4-.897-.7 2.393-1.7 3.19-1.5 1.694.4.499.9-1.097 1.1-2.791 1.9Zm-7.576-11.5-1.097 1.1-.598-1.4 1.695-1.4v1.7Zm-7.078 25.3-2.592-.8-2.193.5-2.791-.7-1.695-1.3 1.197-.7 2.292-.1 3.988.7 1.196-.9-.598-1-2.293-2.1 1.595-2.7 1.396-1 3.19-3.8.897-2 1.196-5.5.997-2 1.395.5 1.994-.8 3.389-2 .997-1.7.997-.9 3.988-1.6 2.093-.4 8.872-.5 1.794 1.7 2.692.6.1 4.3-.698 1.7-1.097 3.8-3.09-.1-.598 1.6.698 1 2.592.3.797 1-.598 2.6-2.592 1.6-.299.9.997.9-.698 1-4.486 1.3-2.293-.8-1.794.7-.698 1.1 3.091 4.1v1.2l-1.296 2.8.697 1.2-2.193 1.6-.498.8 1.894 1.2-.598 2.4-1.196-.1-2.393-.3-.698-1.1 1.097-1.3.997-2.9-2.592-1.1-1.695-1.3-1.894.4-2.592-1.4-.498-1.6-2.492.8-1.097-1.3-1.495 1-1.495-.8-1.396.7.199.9-2.093-.3Zm18.043-15.6.897-.9-.498-1.9-2.093-.3-.499-.8.399-2.5-2.791-.4-.399-2.5-1.495.3-2.293 1.5.598 1.3 1.595 1.6v.9l-2.093.7.099 2.6-.199 1.6 5.383 1.4 3.389-2.6Z"/><path stroke="#171717" stroke-linecap="round" stroke-linejoin="round" stroke-width=".1" d="m405.921 292.5-.598 1.2-3.19 1.5-3.888-1.1-1.196.6-1.196-.7-.299-1.3 2.791-.4 3.489.7 1.495-.6 1.196.5 1.396-.4Zm0 0-2.592-.8-2.193.5-2.791-.7-1.695-1.3 1.197-.7 2.292-.1 3.988.7 1.196-.9-.598-1-2.293-2.1 1.595-2.7 1.396-1 3.19-3.8.897-2 1.196-5.5.997-2 1.395.5 1.994-.8 3.389-2 .997-1.7.997-.9 3.988-1.6 2.093-.4 8.872-.5 1.794 1.7 2.692.6.1 4.3-.698 1.7-1.097 3.8-3.09-.1-.598 1.6.698 1 2.592.3.797 1-.598 2.6-2.592 1.6-.299.9.997.9-.698 1-4.486 1.3-2.293-.8-1.794.7-.698 1.1 3.091 4.1v1.2l-1.296 2.8.697 1.2-2.193 1.6-.498.8 1.894 1.2-.598 2.4-1.196-.1-2.393-.3-.698-1.1 1.097-1.3.997-2.9-2.592-1.1-1.695-1.3-1.894.4-2.592-1.4-.498-1.6-2.492.8-1.097-1.3-1.495 1-1.495-.8-1.396.7.199.9-2.093-.3Zm-3.389-5.3 1.495 1.4-1.495.3-1.595-1 1.595-.7Zm18.043-8.5-2.991-.4-.897-.7 2.393-1.7 3.19-1.5 1.694.4.499.9-1.097 1.1-2.791 1.9Zm-7.576-11.5-1.097 1.1-.598-1.4 1.695-1.4v1.7Zm10.965 9.7.897-.9-.498-1.9-2.093-.3-.499-.8.399-2.5-2.791-.4-.399-2.5-1.495.3-2.293 1.5.598 1.3 1.595 1.6v.9l-2.093.7.099 2.6-.199 1.6 5.383 1.4 3.389-2.6Z"/><path fill="#EBECE6" stroke="#171717" stroke-linecap="round" stroke-linejoin="round" stroke-width=".1" d="m374.221 484.7-.399 1-1.993-.4v-1.5l1.196-1.6 2.691-.7.798 1.3-2.293 1.9Zm21.632-13.6 1.196.5 1.296-.5 1.396.4.199 1-2.193 3.5-.598 1.4-2.094 1.3-3.987-1.7-.299-1.6-1.396-.7-1.694 1.3-1.396-1-.299-1.2 5.283-3.7 1.496-.9 3.19-.9.498 1.2-.598 1.6Zm14.654-.8-.299.2-3.888-1.9-1.595-.4.1-1.4 2.592-.2 2.093.7 1.196 1.8-.199 1.2Zm-77.157-55.5.498 1.3 4.287 1.3-.299 3.2 1.794-.4 4.386 1.7 2.193.2 2.193 2.1 3.589-.4 3.19 2.1 3.09-.4.698.4h4.685l.798-2.4 3.987 1.1 2.493 1 1.694.3 1.097 1.5v2.1l.698.4 2.791-1.1 2.791 1.2 1.296 1.2 2.093-1.1 4.685 1.2 1.197-.8 3.788-1.1 3.09.6 1.196 2.2-1.794.5-.199 1.4 1.196 1.3.099 2.1-2.99 2.8-8.673 4.7-2.891 2.7-6.579 1.5-4.486 1.5-2.193.5-4.087 3.8 1.097.3 1.196 1.2-.399.6-2.492 1.1h-.897l-2.891 4.6-2.592 3.3-1.495 1.5-1.496 2.1-3.19 5.6-.099 1.6 1.595 5.5 2.193 2.7 2.392 1.1.598 1-.797 1-2.393 1.7-4.286 2.3-1.794 1.9-.299 1.8-1.296.8-.499 2.5-1.794 4.4 1.296 1.2-1.296.8-6.48.3-4.087 2.8-1.994 2.4-1.894 4.5-2.193 2.6-.997.5-1.495-1.2-1.894-.1-1.894.3-.997 1-1.495.5-1.495-.5-4.586-.2-2.293.8-1.894-.5-3.19-.3-6.978.6-3.987 3.4h-3.389l-3.091 1.2-2.093 3-.498 1.6-.997-.3-.299 1.2-2.094.8-2.392-1-1.994-1.5-.997-.1-1.595-2.2-1.196-3.1V521l-1.495-.6-.299-1.4.199-1.6-1.196-2-4.985-3.7-3.688-.3-2.99.5-1.097-6.4.797-2.2 3.489-4.3 2.094-.6.698-2.4-1.695.2-2.991-4.3.898-4 3.19-3 .598-2.4-.499-.8-1.694-.4-1.595-3.2-.299-1.9-1.396-1.2-1.097-1.9 1.097-.3h4.286l.997-.5 1.695-3.5v-1.9l-1.396-1.3.2-1 2.691-2.1-.399-1.1.399-3.8-.399-3.5-.797-2 1.994-1.6 1.096-1.6 1.595-1.4 2.094-1.1 2.492-2.5-.299-1.1-1.894-.9-1.894-.2-.1-3.1-.698-1.1-5.183-.1-1.496-.5-.797 1.4-2.492.9h-1.396l-2.193-.8-2.891.1-2.991 1.1-.897-1.3 1.296-1.9-.997-1.8-4.087 1-1.894.9-1.196 1.1-1.296-.1V435l2.592-2.6-1.595-.2 1.196-1.9-.997-1 .1-2.6-2.293.9-.498-1.2 1.395-2.2-1.395-.2-2.293-2.5.797-3.1 1.994-1 1.894-1.5 2.592.3 1.695-.3 3.588-1.6-.398-1.5.398-.7 3.19-1.7 1.994-.2 1.894-.9 1.296.5 1.097-.1 1.295.6 1.695 1.6 2.492.6 1.994-.5 3.589-.1 1.694.2 3.19-.3 1.795.1 2.891-.8 2.292 1 4.386.4 2.592.8 7.178 1.4h2.691l3.689-.8 1.595-.5 1.495.3 2.093-.6 2.293 1 4.685 1.3 2.094-1.3 3.389.6 3.29 1.3 1.794.1 2.592-.3 2.492-1Z"/><path fill="#EBECE6" stroke="#171717" stroke-linecap="round" stroke-linejoin="round" stroke-width=".1" d="m474.704 424.1-.299 2.3.997 1.7.598 6.5-1.794 3.2.099 3-1.595 4.3-.797 1.1-3.788-2-1.196-1.1.997-1.8-2.194-.9.399-1.7-.199-.9-1.595-.5.997-1.3v-.8l-1.496-1-.299-.9 1.296-1.1-.598-.9.1-1.3.897-1.9 1.196-.9 2.791-.8 1.197-1.1 1.894.6.598-1.2-.2-2.7.299-1.1 1.296.5.399 2.7Zm-133.479-47.9-.399 1.4-1.894-2.4.997-.5 1.296 1.5Zm84.135-55.6 2.093 1.2h1.396l1.993-.6 1.296.7 1.396.1 3.489 4.3 1.794-.7 1.396.4.299.9 2.093.1 2.991-.6 1.994 1.4 4.784.8 1.595.6.1 1.3-3.489 3.8-1.395 5.5-.997 1.8-.299 1.5.199 2.4-.598 2v1.5l1.096 1.3-1.495.7-.797 1.4-2.692.3-.797-.8h-1.097l-1.794 1.4 1.296 1.1-.598.9-3.788 4-2.094.9-.498 2.9-2.991 2.2-1.096 2.9.797.7-.299 1.5-1.495 1v1l1.395.1 2.293-1.6-.498-1.3 2.292-1.5 1.894-.1 2.194.3.797 2.2-.498 1.7 2.292 2.3.898 1.4-2.592 1.7.099 1.6.898.6 1.694 2.6 1.795 1.6-.798 2.5-1.196.3-1.695 1.3-1.894-.2-.797.4 1.495 3.1 3.19 1.4.498 1.7-.797.7-1.396 2.5.698 1.3.1 1.4.897.9 5.084 2.4 3.29-.6.299 2-2.094 2.6.2 1.5-.599.3-.797.3-2.393 1.1-3.887 3.4-1.795 1-.697 1.8-1.994 1.4-2.393.5-2.292 1-1.097-.4h-2.791l-1.695-1.2-3.389-.8-1.097-1.8-2.492-.1-.797-1.5-1.894.3-1.496.7-1.993-.1-5.882-1.8-1.395-1.4-1.695.5-1.595 1.6-6.48 4.1-2.591 4.3-.1 1.2.698 3.9 1.595 2.5-3.091-.6-3.788 1.1-1.196.8-4.685-1.2-2.094 1.1-1.295-1.2-2.792-1.2v-1.5l-2.591-.6-.898.7-1.096-1.5-1.695-.3-2.492-1-3.987-1.1-.798 2.4h-4.685l-.698-.4-3.09.4-3.19-2.1-3.589.4-2.193-2.1-2.193-.2-4.386-1.7-1.795.4.3-3.2-4.287-1.3-.498-1.3 1.993-.5 1.894-1.9 1.695-7.1 1.296-8.3.997-1.6 1.196-.4-.997-1.2-1.096 1.5.697-7.6.499-2.8.897-3 3.09 2.4.798 1 .897 3.4.598.1-1.097-4.6-1.794-2.3-3.589-2.3-.498-1.3 1.794-.6-.498-1.8-.498-5.9-2.991-.6-4.785-2.6-1.695-2.6-1.595-1.9-.398-1.7.897-1.8-.798-1.1-1.395-.8 1.096-1.6-2.99-.2-1.795-.5-.299-1.1 1.296-1.4-1.595-.8-2.592.2-.199-1.7-2.193.3-1.196-.3-1.097-1.1-1.296.2-2.193-.4-.797-.7-4.785-1.3-1.994-.1-1.894.6-1.097-.3-1.295-2.2-3.091-1.1.598-.7 3.091-.6.598-.7-2.193-.9-.2-1.2 1.595.3.1-1.2-3.987.1-.399-1.3.498-1.4 2.293-1.2 5.782-1.4 2.492.2 1.695-.2 2.99-1.6 2.891-.4 2.692.8 2.492 2.8 1.196 1 3.09-1.7 4.386.1.898.9 1.196-1.7.997 1 4.685-.2-1.495-2.5-.2-6-1.296-1.7-2.093-4.3.199-1.4 3.19.3 2.692-.6 1.296.4.299 2.8 1.096 1.6h2.193l2.293.5 2.991.1 4.286.8 1.795-.5 3.489-2-1.795-.7-.199-.7.897-2.2 5.184-2.5 3.688-.7 3.788-1.3 1.994-1.4 1.196-1.8.498-1.3.3-6.8.996-2.2 2.891-1.6 6.38-1.1.897-.5.898 2.2v1.2l2.89 2.4 3.19-1 1.595 1.8.499 2 4.187 1.1.598 2 .897-.3 3.589.4 1.595 1.1-.399 1.6.698.7-.698 1.4.498.6 2.293.3 2.193-.3 1.296-.6.498-1.4 1.894-.6-.797 2.7.598.6.399 2 1.694.1 3.29 1.5 2.791 2.6 3.39-.4ZM260.18 511.9l-1.196.2-4.486 2.5h-1.296l-2.492-1.1-4.486-.4-1.495-.3-1.795.7h-1.495l-1.097 1-.797-.3.997-2.1 1.595-4.1v-2.6l.399-2.2-.299-2.1-.698-1.4 1.096-3.5v-1.8l-.897-2.3 2.791.3-1.694-1.4h-1.496l-2.292.9-1.496.1.1-1.4-.498-1.8 1.993-.6 1.595-1.7-.299-1.6-1.196 1.1-.598 1.4-2.791.7-1.496-.5v-1.9l.598-1.7.399-2.3.798-2.2-.2-1.4 1.595-1.3 1.396-1.9 4.286-8.9-.598-1 1.695-6.6 1.196-2.3.598-4.3-.199-2-.698-2-.698-4.3v-1.4l-.897-1.8.1-1 1.395-1.7 1.197-1.1 1.894-.9 4.087-1 .997 1.8-1.296 1.9.897 1.3 2.99-1.1 2.891-.1 2.193.8h1.396l2.492-.9.798-1.4 1.495.5 5.184.1.697 1.1.1 3.1 1.894.2 1.894.9.299 1.1-2.492 2.5-2.093 1.1-1.595 1.4-1.097 1.6-1.994 1.6.798 2 .399 3.5-.399 3.8.399 1.1-2.692 2.1-.199 1 1.395 1.3v1.9l-1.694 3.5-.997.5h-4.287l-1.096.3 1.096 1.9 1.396 1.2.299 1.9 1.595 3.2 1.695.4.498.8-.598 2.4-3.19 3-.897 4 2.99 4.3 1.695-.2-.698 2.4-2.093.6-3.489 4.3-.798 2.2 1.097 6.4Z"/><path fill="#EBECE6" d="M795.693 546.3h-.2l.1-.1.1.1Zm0 0h.199l.1.1H795.693v-.1Zm-.399-.3h-.1v-.1h.1v-.1l.1.1v.1h-.1Zm3.489-.8.199.1.3.3.199.4.1.3.199.2.199.1h-.498l-.299-.1-.2-.2h-.199l-.698.1-.598.1-.099.1-.1.1h-.598l-.1-.1.199-.1h.1l-.1-.3h-.199l-.199-.1v-.4l-.1-.1-.299-.1v-.2l.1-.1.199-.1.1.1.099.1.2-.1.099-.1.1-.1.1-.1.199.2.2.1h.099l.2.1h.099l.299-.1h.2l.099.1h.399v-.1Zm-3.987 1.1v.2l-.299.1-.299.3v.2l-.1.3V548.4h-.1l-.099.1v.3l-.1.1H793.201l-.2.1-.099.1-.1.2-.1.1-.199.1-.399.1-.399.2-.299.1-.199-.3.1.5-.399.2-.897.2-.2.1-.099.1-.2.1h-.199l-.897-.1-.997.1-.1.1-.199.1-.598.5-.1.3h-.299l-.299.1v.1l-.1-.1-.099-.2.099-.2.1.1h.299l-.1-.4-.398-.1-.2.2-.099.1-.2-.1v.1l-.399-.1-.299-.2-.099-.1v-.2h-.399l-.1.1v.1h-.199l-.1.2h-.399l-.099.1.099.2-.199.1h-.498l-.598-.1-.499-.2-.698-.4-.299-.1-.299-.1h-.498l-.299-.1-.2-.2-.598-.4-.099-.1-.1-.4v-.1l-.1-.1-.399-.9-.099-.1-.299-.2-.2-.1-.099-.1-.1-.2v-.2l.1-.2-.299-.4-.1-.2v-.4l-.1-.2-.299-.5-.199-.3-.1-.4.1-.3h.099l.3.1.398.5.299.1.2.1h.598l.399-.2.299-.4.299-.4.099-.5.1-.3.199-.1.1-.1v-.1h.1l.099.1H779.943l.099.1.2.2H780.541l.199-.2.1-.2v-.2l.398.1.2.4.099.2.1.2.2.1.398.1.299.1.2.2.199.1.1.2v.2l.099.1.1.1h.1l.399-.1.099-.2.1-.2.1-.1.099.1.1.1.199.1h.2l.199-.1.199-.2.2-.2.199-.1.299-.2.1-.2h.199l.299.1h.698l.1-.1h.1l.099-.2.299-.2h.2l.199.1.1.1H788.416l.199.2.2.2.199.1.299.1h.1l.099-.1v-.1l.1-.2.299-.3h.897v.2l.1.2.1.1.199.2.199.2v.1l.1.3v.9l-.1.3.1.2.1.1h.398v-.7l.1-.1.1-.1.1-.1.099.1.1.4.1.2.099.1.299-.1v-.2l.1-.1h.199l.1.1h.199l.1-.1.1.1h.1l.299.2H794.497l.299.2Z"/><path stroke="#171717" stroke-linecap="round" stroke-linejoin="round" stroke-width=".1" d="M795.693 546.3h-.2l.1-.1.1.1Zm0 0h.199l.1.1H795.693v-.1Zm-.399-.3h-.1v-.1h.1v-.1l.1.1v.1h-.1Zm3.489-.8.199.1.3.3.199.4.1.3.199.2.199.1h-.498l-.299-.1-.2-.2h-.199l-.698.1-.598.1-.099.1-.1.1h-.598l-.1-.1.199-.1h.1l-.1-.3h-.199l-.199-.1v-.4l-.1-.1-.299-.1v-.2l.1-.1.199-.1.1.1.099.1.2-.1.099-.1.1-.1.1-.1.199.2.2.1h.099l.2.1h.099l.299-.1h.2l.099.1h.399v-.1Zm-3.987 1.1v.2l-.299.1-.299.3v.2l-.1.3V548.4h-.1l-.099.1v.3l-.1.1H793.201l-.2.1-.099.1-.1.2-.1.1-.199.1-.399.1-.399.2-.299.1-.199-.3.1.5-.399.2-.897.2-.2.1-.099.1-.2.1h-.199l-.897-.1-.997.1-.1.1-.199.1-.598.5-.1.3h-.299l-.299.1v.1l-.1-.1-.099-.2.099-.2.1.1h.299l-.1-.4-.398-.1-.2.2-.099.1-.2-.1v.1l-.399-.1-.299-.2-.099-.1v-.2h-.399l-.1.1v.1h-.199l-.1.2h-.399l-.099.1.099.2-.199.1h-.498l-.598-.1-.499-.2-.698-.4-.299-.1-.299-.1h-.498l-.299-.1-.2-.2-.598-.4-.099-.1-.1-.4v-.1l-.1-.1-.399-.9-.099-.1-.299-.2-.2-.1-.099-.1-.1-.2v-.2l.1-.2-.299-.4-.1-.2v-.4l-.1-.2-.299-.5-.199-.3-.1-.4.1-.3h.099l.3.1.398.5.299.1.2.1h.598l.399-.2.299-.4.299-.4.099-.5.1-.3.199-.1.1-.1v-.1h.1l.099.1H779.943l.099.1.2.2H780.541l.199-.2.1-.2v-.2l.398.1.2.4.099.2.1.2.2.1.398.1.299.1.2.2.199.1.1.2v.2l.099.1.1.1h.1l.399-.1.099-.2.1-.2.1-.1.099.1.1.1.199.1h.2l.199-.1.199-.2.2-.2.199-.1.299-.2.1-.2h.199l.299.1h.698l.1-.1h.1l.099-.2.299-.2h.2l.199.1.1.1H788.416l.199.2.2.2.199.1.299.1h.1l.099-.1v-.1l.1-.2.299-.3h.897v.2l.1.2.1.1.199.2.199.2v.1l.1.3v.9l-.1.3.1.2.1.1h.398v-.7l.1-.1.1-.1.1-.1.099.1.1.4.1.2.099.1.299-.1v-.2l.1-.1h.199l.1.1h.199l.1-.1.1.1h.1l.299.2H794.497l.299.2Z"/><path fill="#171717" d="M725.974 332.18c-.668 0-1.258-.138-1.77-.414-.512-.276-.914-.662-1.206-1.158-.288-.5-.432-1.086-.432-1.758v-5.484l1.08-.006v5.4c0 .408.068.764.204 1.068.14.3.324.55.552.75.228.2.478.35.75.45.276.096.55.144.822.144.276 0 .552-.05.828-.15.276-.1.526-.248.75-.444.228-.2.41-.452.546-.756.136-.304.204-.658.204-1.062v-5.4h1.08v5.49c0 .668-.146 1.252-.438 1.752-.288.5-.688.888-1.2 1.164-.512.276-1.102.414-1.77.414Zm5.088-.18v-8.64h1.068v4.056l3.78-4.056h1.344l-3.924 4.194 4.23 4.446h-1.38l-4.05-4.224V332h-1.068Zm7.336 0v-8.64h3.414c.084 0 .184.004.3.012.116.004.228.016.336.036.468.072.86.232 1.176.48.32.248.56.562.72.942.16.376.24.794.24 1.254 0 .668-.174 1.248-.522 1.74-.348.488-.858.794-1.53.918l-.408.066h-2.658V332h-1.068Zm5.142 0-1.704-3.516 1.056-.324 1.872 3.84h-1.224Zm-4.074-4.206h2.31c.076 0 .162-.004.258-.012.1-.008.194-.022.282-.042.276-.064.5-.18.672-.348.176-.172.304-.372.384-.6.08-.232.12-.468.12-.708 0-.24-.04-.474-.12-.702-.08-.232-.208-.434-.384-.606-.172-.172-.396-.288-.672-.348-.088-.024-.182-.038-.282-.042-.096-.008-.182-.012-.258-.012h-2.31v3.42Zm6.019 4.206 2.892-8.64h1.488l2.892 8.64h-1.11l-2.706-8.016h.336L746.595 332h-1.11Zm1.392-2.022v-1.002h4.488v1.002h-4.488Zm7.074 2.022v-8.64h1.068V332h-1.068Zm2.868 0v-8.64h1.08l4.506 6.75v-6.75h1.08V332h-1.08l-4.506-6.756V332h-1.08Zm8.344 0v-8.64h5.46v1.014h-4.392v2.706h3.672v1.014h-3.672v2.892h4.392V332h-5.46ZM639.826 381v-8.64h3.414c.084 0 .184.004.3.012.116.004.228.016.336.036.468.072.86.232 1.176.48.32.248.56.562.72.942.16.376.24.794.24 1.254 0 .668-.174 1.248-.522 1.74-.348.488-.858.794-1.53.918l-.408.066h-2.658V381h-1.068Zm5.142 0-1.704-3.516 1.056-.324 1.872 3.84h-1.224Zm-4.074-4.206h2.31c.076 0 .162-.004.258-.012.1-.008.194-.022.282-.042.276-.064.5-.18.672-.348.176-.172.304-.372.384-.6.08-.232.12-.468.12-.708 0-.24-.04-.474-.12-.702-.08-.232-.208-.434-.384-.606-.172-.172-.396-.288-.672-.348-.088-.024-.182-.038-.282-.042-.096-.008-.182-.012-.258-.012h-2.31v3.42Zm10.172 4.386c-.86 0-1.59-.19-2.19-.57-.6-.38-1.058-.908-1.374-1.584-.312-.676-.468-1.458-.468-2.346 0-.888.156-1.67.468-2.346.316-.676.774-1.204 1.374-1.584.6-.38 1.33-.57 2.19-.57.864 0 1.596.19 2.196.57.6.38 1.056.908 1.368 1.584.312.676.468 1.458.468 2.346 0 .888-.156 1.67-.468 2.346-.312.676-.768 1.204-1.368 1.584-.6.38-1.332.57-2.196.57Zm0-1.02c.644.004 1.18-.14 1.608-.432.432-.296.754-.706.966-1.23.216-.524.324-1.13.324-1.818 0-.692-.108-1.298-.324-1.818-.212-.52-.534-.926-.966-1.218-.428-.292-.964-.44-1.608-.444-.644-.004-1.18.14-1.608.432-.424.292-.744.7-.96 1.224-.216.524-.326 1.132-.33 1.824-.004.688.102 1.292.318 1.812.216.52.538.928.966 1.224.432.292.97.44 1.614.444Zm5.237.84v-8.64h.972l3.264 6.882 3.246-6.882h.984v8.634h-1.014v-6.288L660.821 381h-.57l-2.934-6.294V381h-1.014Zm9.548 0 2.892-8.64h1.488l2.892 8.64h-1.11l-2.706-8.016h.336L666.961 381h-1.11Zm1.392-2.022v-1.002h4.488v1.002h-4.488Zm6.954 2.022v-8.64h1.08l4.506 6.75v-6.75h1.08V381h-1.08l-4.506-6.756V381h-1.08Zm8.464 0v-8.64h1.068V381h-1.068Zm2.268 0 2.892-8.64h1.488l2.892 8.64h-1.11l-2.706-8.016h.336L686.039 381h-1.11Zm1.392-2.022v-1.002h4.488v1.002h-4.488ZM567.913 362v-7.2h.89v3.175h3.79V354.8h.89v7.2h-.89v-3.18h-3.79V362h-.89Zm9.813.15c-.557 0-1.049-.115-1.475-.345-.427-.23-.762-.552-1.005-.965-.24-.417-.36-.905-.36-1.465v-4.57l.9-.005v4.5c0 .34.056.637.17.89.116.25.27.458.46.625.19.167.398.292.625.375.23.08.458.12.685.12.23 0 .46-.042.69-.125.23-.083.438-.207.625-.37.19-.167.341-.377.455-.63.113-.253.17-.548.17-.885v-4.5h.9v4.575c0 .557-.122 1.043-.365 1.46-.24.417-.574.74-1 .97-.427.23-.919.345-1.475.345Zm4.24-.15v-7.2h.9l3.755 5.625V354.8h.9v7.2h-.9l-3.755-5.63V362h-.9Zm9.868.15c-.494 0-.944-.087-1.35-.26-.407-.173-.757-.422-1.05-.745-.294-.327-.52-.72-.68-1.18-.157-.463-.235-.985-.235-1.565 0-.767.136-1.43.41-1.99.273-.56.658-.992 1.155-1.295.496-.307 1.08-.46 1.75-.46.806 0 1.456.188 1.95.565.493.373.833.885 1.02 1.535l-.9.185c-.15-.437-.397-.785-.74-1.045-.344-.26-.772-.39-1.285-.39-.537-.003-.984.117-1.34.36-.354.24-.62.578-.8 1.015-.18.437-.272.943-.275 1.52-.004.573.085 1.077.265 1.51.18.433.448.773.805 1.02.36.243.808.367 1.345.37.463.003.853-.085 1.17-.265.316-.18.561-.44.735-.78.173-.34.278-.748.315-1.225h-1.53v-.735h2.47c.01.067.015.147.015.24.003.09.005.152.005.185 0 .657-.124 1.245-.37 1.765-.244.517-.605.923-1.085 1.22-.477.297-1.067.445-1.77.445Zm3.528-.15 2.41-7.2h1.24l2.41 7.2h-.925l-2.255-6.68h.28l-2.235 6.68h-.925Zm1.16-1.685v-.835h3.74v.835h-3.74Zm5.795 1.685v-7.2h2.845c.07 0 .154.003.25.01.097.003.19.013.28.03.39.06.717.193.98.4.267.207.467.468.6.785.134.313.2.662.2 1.045 0 .557-.145 1.04-.435 1.45-.29.407-.715.662-1.275.765l-.34.055h-2.215V362h-.89Zm4.285 0-1.42-2.93.88-.27 1.56 3.2h-1.02Zm-3.395-3.505h1.925c.064 0 .135-.003.215-.01.084-.007.162-.018.235-.035.23-.053.417-.15.56-.29.147-.143.254-.31.32-.5.067-.193.1-.39.1-.59 0-.2-.033-.395-.1-.585-.066-.193-.173-.362-.32-.505-.143-.143-.33-.24-.56-.29-.073-.02-.151-.032-.235-.035-.08-.007-.151-.01-.215-.01h-1.925v2.85Zm7.114 3.505v-2.995l-2.425-4.205h1.035l1.84 3.185 1.835-3.185h1.035l-2.42 4.205V362h-.9ZM649.655 429v-7.2h2.805c.43 0 .797.088 1.1.265.307.177.54.41.7.7.163.287.245.597.245.93 0 .39-.1.732-.3 1.025-.2.293-.47.495-.81.605l-.01-.245c.463.123.823.35 1.08.68.257.33.385.723.385 1.18 0 .42-.087.783-.26 1.09-.17.307-.417.545-.74.715-.32.17-.7.255-1.14.255h-3.055Zm.9-.85h1.985c.267 0 .505-.048.715-.145.21-.1.375-.24.495-.42.123-.18.185-.397.185-.65 0-.243-.055-.462-.165-.655-.107-.193-.258-.347-.455-.46-.193-.117-.418-.175-.675-.175h-2.085v2.505Zm0-3.345h1.895c.213 0 .405-.045.575-.135.173-.093.31-.223.41-.39.103-.167.155-.362.155-.585 0-.31-.105-.563-.315-.76-.21-.197-.485-.295-.825-.295h-1.895v2.165Zm8.131 4.345c-.556 0-1.048-.115-1.475-.345-.426-.23-.761-.552-1.005-.965-.24-.417-.36-.905-.36-1.465v-4.57l.9-.005v4.5c0 .34.057.637.17.89.117.25.27.458.46.625.19.167.399.292.625.375.23.08.459.12.685.12.23 0 .46-.042.69-.125.23-.083.439-.207.625-.37.19-.167.342-.377.455-.63.114-.253.17-.548.17-.885v-4.5h.9v4.575c0 .557-.121 1.043-.365 1.46-.24.417-.573.74-1 .97-.426.23-.918.345-1.475.345Zm4.34-.15v-7.2h.89v6.355h3.34V429h-4.23Zm7.796.15c-.493 0-.943-.087-1.35-.26-.407-.173-.757-.422-1.05-.745-.293-.327-.52-.72-.68-1.18-.157-.463-.235-.985-.235-1.565 0-.767.137-1.43.41-1.99.273-.56.658-.992 1.155-1.295.497-.307 1.08-.46 1.75-.46.807 0 1.457.188 1.95.565.493.373.833.885 1.02 1.535l-.9.185c-.15-.437-.397-.785-.74-1.045-.343-.26-.772-.39-1.285-.39-.537-.003-.983.117-1.34.36-.353.24-.62.578-.8 1.015-.18.437-.272.943-.275 1.52-.003.573.085 1.077.265 1.51.18.433.448.773.805 1.02.36.243.808.367 1.345.37.463.003.853-.085 1.17-.265.317-.18.562-.44.735-.78.173-.34.278-.748.315-1.225h-1.53v-.735h2.47c.01.067.015.147.015.24.003.09.005.152.005.185 0 .657-.123 1.245-.37 1.765-.243.517-.605.923-1.085 1.22-.477.297-1.067.445-1.77.445Zm3.528-.15 2.41-7.2H678l2.41 7.2h-.925l-2.255-6.68h.28l-2.235 6.68h-.925Zm1.16-1.685v-.835h3.74v.835h-3.74Zm5.795 1.685v-7.2h2.845c.07 0 .154.003.25.01.097.003.19.013.28.03.39.06.717.193.98.4.267.207.467.468.6.785.134.313.2.662.2 1.045 0 .557-.145 1.04-.435 1.45-.29.407-.715.662-1.275.765l-.34.055h-2.215V429h-.89Zm4.285 0-1.42-2.93.88-.27 1.56 3.2h-1.02Zm-3.395-3.505h1.925c.064 0 .135-.003.215-.01.084-.007.162-.018.235-.035.23-.053.417-.15.56-.29.147-.143.254-.31.32-.5.067-.193.1-.39.1-.59 0-.2-.033-.395-.1-.585-.066-.193-.173-.362-.32-.505-.143-.143-.33-.24-.56-.29-.073-.02-.151-.032-.235-.035-.08-.007-.151-.01-.215-.01h-1.925v2.85Zm5.617 3.505v-7.2h.89v7.2h-.89Zm1.89 0 2.41-7.2h1.24l2.41 7.2h-.925l-2.255-6.68h.28l-2.235 6.68h-.925Zm1.16-1.685v-.835h3.74v.835h-3.74ZM604.707 407.12c-.408 0-.776-.069-1.104-.208-.326-.139-.595-.336-.808-.592-.211-.259-.348-.564-.412-.916l.736-.116c.093.363.286.647.58.852.296.203.644.304 1.044.304.258 0 .492-.04.7-.12.21-.083.377-.2.5-.352.122-.152.184-.332.184-.54 0-.128-.023-.237-.068-.328-.043-.093-.103-.172-.18-.236-.075-.067-.16-.123-.256-.168-.096-.045-.196-.083-.3-.112l-1.468-.436c-.16-.048-.315-.108-.464-.18-.15-.075-.283-.167-.4-.276-.118-.112-.211-.245-.28-.4-.07-.157-.104-.343-.104-.556 0-.341.088-.632.264-.872.178-.243.42-.428.724-.556.304-.128.646-.191 1.028-.188.386.003.732.072 1.036.208.306.133.56.325.76.576.202.251.338.551.408.9l-.756.132c-.04-.235-.13-.436-.268-.604-.136-.171-.307-.301-.512-.392-.206-.093-.431-.141-.676-.144-.235-.003-.447.035-.636.112-.19.077-.34.185-.452.324-.112.136-.168.293-.168.472 0 .176.05.319.152.428.101.107.225.192.372.256.149.061.294.112.436.152l1.096.316c.125.035.269.083.432.144.165.061.325.148.48.26.154.109.282.256.384.44.101.181.152.411.152.688 0 .277-.056.524-.168.74-.11.216-.263.397-.46.544-.198.144-.427.253-.688.328-.262.077-.542.116-.84.116Zm2.995-.12v-5.76h3.64v.676h-2.928v1.804h2.448v.676h-2.448v1.928h2.928V407h-3.64Zm4.601 0v-5.76h2.276c.056 0 .123.003.2.008.078.003.152.011.224.024.312.048.574.155.784.32.214.165.374.375.48.628.107.251.16.529.16.836 0 .445-.116.832-.348 1.16-.232.325-.572.529-1.02.612l-.272.044h-1.772V407h-.712Zm3.428 0-1.136-2.344.704-.216 1.248 2.56h-.816Zm-2.716-2.804h1.54c.051 0 .108-.003.172-.008.067-.005.13-.015.188-.028.184-.043.334-.12.448-.232.118-.115.203-.248.256-.4.054-.155.08-.312.08-.472 0-.16-.026-.316-.08-.468-.053-.155-.138-.289-.256-.404-.114-.115-.264-.192-.448-.232-.058-.016-.121-.025-.188-.028-.064-.005-.121-.008-.172-.008h-1.54v2.28Zm4.413 2.804v-5.76h2.244c.344 0 .638.071.88.212.246.141.432.328.56.56.131.229.196.477.196.744 0 .312-.08.585-.24.82-.16.235-.376.396-.648.484l-.008-.196c.371.099.659.28.864.544.206.264.308.579.308.944 0 .336-.069.627-.208.872-.136.245-.333.436-.592.572-.256.136-.56.204-.912.204h-2.444Zm.72-.68h1.588c.214 0 .404-.039.572-.116.168-.08.3-.192.396-.336.099-.144.148-.317.148-.52 0-.195-.044-.369-.132-.524-.085-.155-.206-.277-.364-.368-.154-.093-.334-.14-.54-.14h-1.668v2.004Zm0-2.676h1.516c.171 0 .324-.036.46-.108.139-.075.248-.179.328-.312.083-.133.124-.289.124-.468 0-.248-.084-.451-.252-.608-.168-.157-.388-.236-.66-.236h-1.516v1.732Zm4.313 3.356v-5.76h.712V407h-.712Zm1.513 0 1.928-5.76h.992l1.928 5.76h-.74l-1.804-5.344h.224L624.714 407h-.74Zm.928-1.348v-.668h2.992v.668h-2.992ZM562.165 403.12c-.573 0-1.06-.127-1.46-.38-.4-.253-.705-.605-.916-1.056-.208-.451-.312-.972-.312-1.564 0-.592.104-1.113.312-1.564.211-.451.516-.803.916-1.056s.887-.38 1.46-.38c.667 0 1.215.169 1.644.508.432.339.73.795.892 1.368l-.724.192c-.117-.429-.326-.768-.628-1.016-.301-.248-.696-.372-1.184-.372-.429 0-.786.097-1.072.292-.285.195-.5.467-.644.816-.144.347-.217.751-.22 1.212-.002.459.068.863.212 1.212.144.347.36.619.648.816.288.195.647.292 1.076.292.488 0 .883-.124 1.184-.372.302-.251.511-.589.628-1.016l.724.192c-.162.571-.46 1.027-.892 1.368-.429.339-.977.508-1.644.508Zm3.414-.12v-5.76h2.276c.056 0 .122.003.2.008.077.003.152.011.224.024.312.048.573.155.784.32.213.165.373.375.48.628.106.251.16.529.16.836 0 .445-.116.832-.348 1.16-.232.325-.572.529-1.02.612l-.272.044h-1.772V403h-.712Zm3.428 0-1.136-2.344.704-.216 1.248 2.56h-.816Zm-2.716-2.804h1.54c.05 0 .108-.003.172-.008.066-.005.129-.015.188-.028.184-.043.333-.12.448-.232.117-.115.202-.248.256-.4.053-.155.08-.312.08-.472 0-.16-.027-.316-.08-.468-.054-.155-.139-.289-.256-.404-.115-.115-.264-.192-.448-.232-.059-.016-.122-.025-.188-.028-.064-.005-.122-.008-.172-.008h-1.54v2.28Zm6.781 2.924c-.574 0-1.06-.127-1.46-.38-.4-.253-.706-.605-.916-1.056-.208-.451-.312-.972-.312-1.564 0-.592.104-1.113.312-1.564.21-.451.516-.803.916-1.056s.886-.38 1.46-.38c.576 0 1.064.127 1.464.38.4.253.704.605.912 1.056.208.451.312.972.312 1.564 0 .592-.104 1.113-.312 1.564-.208.451-.512.803-.912 1.056s-.888.38-1.464.38Zm0-.68c.429.003.786-.093 1.072-.288.288-.197.502-.471.644-.82.144-.349.216-.753.216-1.212 0-.461-.072-.865-.216-1.212-.142-.347-.356-.617-.644-.812-.286-.195-.643-.293-1.072-.296-.43-.003-.787.093-1.072.288-.283.195-.496.467-.64.816-.144.349-.218.755-.22 1.216-.003.459.068.861.212 1.208s.358.619.644.816c.288.195.646.293 1.076.296Zm2.935.56 1.928-5.76h.992l1.928 5.76h-.74l-1.804-5.344h.224L576.747 403h-.74Zm.928-1.348v-.668h2.992v.668h-2.992Zm5.643 1.348v-5.084h-1.964v-.676h4.64v.676h-1.964V403h-.712Zm3.393 0v-5.76h.712V403h-.712Zm1.512 0 1.928-5.76h.992l1.928 5.76h-.74l-1.804-5.344h.224L588.223 403h-.74Zm.928-1.348v-.668h2.992v.668h-2.992ZM576.448 335.15c-.51 0-.97-.087-1.38-.26-.406-.173-.743-.42-1.01-.74-.263-.323-.435-.705-.515-1.145l.92-.145c.117.453.359.808.725 1.065.37.253.805.38 1.305.38.324 0 .615-.05.875-.15.264-.103.472-.25.625-.44.154-.19.23-.415.23-.675 0-.16-.028-.297-.085-.41-.053-.117-.128-.215-.225-.295-.093-.083-.2-.153-.32-.21-.12-.057-.245-.103-.375-.14l-1.835-.545c-.2-.06-.393-.135-.58-.225-.186-.093-.353-.208-.5-.345-.146-.14-.263-.307-.35-.5-.086-.197-.13-.428-.13-.695 0-.427.11-.79.33-1.09.224-.303.525-.535.905-.695.38-.16.809-.238 1.285-.235.484.003.915.09 1.295.26.384.167.7.407.95.72.254.313.424.688.51 1.125l-.945.165c-.05-.293-.161-.545-.335-.755-.17-.213-.383-.377-.64-.49-.256-.117-.538-.177-.845-.18-.293-.003-.558.043-.795.14-.236.097-.425.232-.565.405-.14.17-.21.367-.21.59 0 .22.064.398.19.535.127.133.282.24.465.32.187.077.369.14.545.19l1.37.395c.157.043.337.103.54.18.207.077.407.185.6.325.194.137.354.32.48.55.127.227.19.513.19.86s-.07.655-.21.925c-.136.27-.328.497-.575.68-.246.18-.533.317-.86.41-.326.097-.676.145-1.05.145Zm3.844-.15v-7.2h.89v6.355h3.34V335h-4.23Zm7.841.15c-.717 0-1.325-.158-1.825-.475-.5-.317-.882-.757-1.145-1.32-.26-.563-.39-1.215-.39-1.955s.13-1.392.39-1.955c.263-.563.645-1.003 1.145-1.32.5-.317 1.108-.475 1.825-.475.72 0 1.33.158 1.83.475.5.317.88.757 1.14 1.32.26.563.39 1.215.39 1.955s-.13 1.392-.39 1.955c-.26.563-.64 1.003-1.14 1.32-.5.317-1.11.475-1.83.475Zm0-.85c.536.003.983-.117 1.34-.36.36-.247.628-.588.805-1.025.18-.437.27-.942.27-1.515 0-.577-.09-1.082-.27-1.515-.177-.433-.445-.772-.805-1.015-.357-.243-.804-.367-1.34-.37-.537-.003-.984.117-1.34.36-.354.243-.62.583-.8 1.02-.18.437-.272.943-.275 1.52-.004.573.085 1.077.265 1.51.18.433.448.773.805 1.02.36.243.808.367 1.345.37Zm5.821.7-2.41-7.2h.925l2.095 6.255 2.115-6.255h.925l-2.41 7.2h-1.24Zm3.199 0 2.41-7.2h1.24l2.41 7.2h-.925l-2.255-6.68h.28l-2.235 6.68h-.925Zm1.16-1.685v-.835h3.74v.835h-3.74Zm5.795 1.685v-7.2h.89v3.38l3.15-3.38h1.12l-3.27 3.495 3.525 3.705h-1.15l-3.375-3.52V335h-.89Zm6.213 0v-7.2h.89v7.2h-.89Zm1.891 0 2.41-7.2h1.24l2.41 7.2h-.925l-2.255-6.68h.28l-2.235 6.68h-.925Zm1.16-1.685v-.835h3.74v.835h-3.74ZM784.603 486v-7.626h-2.946v-1.014h6.96v1.014h-2.946V486h-1.068Zm8.377.18c-.668 0-1.258-.138-1.77-.414-.512-.276-.914-.662-1.206-1.158-.288-.5-.432-1.086-.432-1.758v-5.484l1.08-.006v5.4c0 .408.068.764.204 1.068.14.3.324.55.552.75.228.2.478.35.75.45.276.096.55.144.822.144.276 0 .552-.05.828-.15.276-.1.526-.248.75-.444.228-.2.41-.452.546-.756.136-.304.204-.658.204-1.062v-5.4h1.08v5.49c0 .668-.146 1.252-.438 1.752-.288.5-.688.888-1.2 1.164-.512.276-1.102.414-1.77.414Zm5.089-.18v-8.64h3.414c.084 0 .184.004.3.012.116.004.228.016.336.036.468.072.86.232 1.176.48.32.248.56.562.72.942.16.376.24.794.24 1.254 0 .668-.174 1.248-.522 1.74-.348.488-.858.794-1.53.918l-.408.066h-2.658V486h-1.068Zm5.142 0-1.704-3.516 1.056-.324 1.872 3.84h-1.224Zm-4.074-4.206h2.31c.076 0 .162-.004.258-.012.1-.008.194-.022.282-.042.276-.064.5-.18.672-.348.176-.172.304-.372.384-.6.08-.232.12-.468.12-.708 0-.24-.04-.474-.12-.702-.08-.232-.208-.434-.384-.606-.172-.172-.396-.288-.672-.348-.088-.024-.182-.038-.282-.042-.096-.008-.182-.012-.258-.012h-2.31v3.42Zm6.619 4.206v-8.64h1.068v4.056l3.78-4.056h1.344l-3.924 4.194 4.23 4.446h-1.38l-4.05-4.224V486h-1.068Zm7.336 0v-8.64h5.46v1.014h-4.392v2.706h3.672v1.014h-3.672v2.892h4.392V486h-5.46Zm8.972 0v-3.594l-2.91-5.046h1.242l2.208 3.822 2.202-3.822h1.242l-2.904 5.046V486h-1.08ZM456.912 298.18c-.592 0-1.132-.104-1.62-.312-.488-.208-.908-.506-1.26-.894-.352-.392-.624-.864-.816-1.416-.188-.556-.282-1.182-.282-1.878 0-.92.164-1.716.492-2.388.328-.672.79-1.19 1.386-1.554.596-.368 1.296-.552 2.1-.552.968 0 1.748.226 2.34.678.592.448 1 1.062 1.224 1.842l-1.08.222c-.18-.524-.476-.942-.888-1.254-.412-.312-.926-.468-1.542-.468-.644-.004-1.18.14-1.608.432-.424.288-.744.694-.96 1.218-.216.524-.326 1.132-.33 1.824-.004.688.102 1.292.318 1.812.216.52.538.928.966 1.224.432.292.97.44 1.614.444.556.004 1.024-.102 1.404-.318.38-.216.674-.528.882-.936.208-.408.334-.898.378-1.47h-1.836v-.882h2.964c.012.08.018.176.018.288.004.108.006.182.006.222 0 .788-.148 1.494-.444 2.118-.292.62-.726 1.108-1.302 1.464-.572.356-1.28.534-2.124.534Zm5.069-.18v-8.64h5.46v1.014h-4.392v2.706h3.672v1.014h-3.672v2.892h4.392V298h-5.46Zm6.902 0v-8.64h3.414c.084 0 .184.004.3.012.116.004.228.016.336.036.468.072.86.232 1.176.48.32.248.56.562.72.942.16.376.24.794.24 1.254 0 .668-.174 1.248-.522 1.74-.348.488-.858.794-1.53.918l-.408.066h-2.658V298h-1.068Zm5.142 0-1.704-3.516 1.056-.324 1.872 3.84h-1.224Zm-4.074-4.206h2.31c.076 0 .162-.004.258-.012.1-.008.194-.022.282-.042.276-.064.5-.18.672-.348.176-.172.304-.372.384-.6.08-.232.12-.468.12-.708 0-.24-.04-.474-.12-.702-.08-.232-.208-.434-.384-.606-.172-.172-.396-.288-.672-.348-.088-.024-.182-.038-.282-.042-.096-.008-.182-.012-.258-.012h-2.31v3.42ZM476.57 298v-8.64h.972l3.264 6.882 3.246-6.882h.984v8.634h-1.014v-6.288L481.088 298h-.57l-2.934-6.294V298h-1.014Zm9.549 0 2.892-8.64h1.488l2.892 8.64h-1.11l-2.706-8.016h.336L487.229 298h-1.11Zm1.392-2.022v-1.002h4.488v1.002h-4.488Zm6.954 2.022v-8.64h1.08l4.506 6.75v-6.75h1.08V298h-1.08l-4.506-6.756V298h-1.08Zm10.414 0v-3.594l-2.91-5.046h1.242l2.208 3.822 2.202-3.822h1.242l-2.904 5.046V298h-1.08ZM467.49 392v-8.64h1.068V392h-1.068Zm5.095 0v-7.626h-2.946v-1.014h6.96v1.014h-2.946V392h-1.068Zm4.134 0 2.892-8.64h1.488l2.892 8.64h-1.11l-2.706-8.016h.336L477.829 392h-1.11Zm1.392-2.022v-1.002h4.488v1.002h-4.488Zm7.075 2.022v-8.64h1.068v7.626h4.008V392h-5.076Zm6.965 0v-3.594l-2.91-5.046h1.242l2.208 3.822 2.202-3.822h1.242l-2.904 5.046V392h-1.08ZM367.684 367v-8.64h5.04v1.068h-3.972v2.718h3.252v1.068h-3.252V367h-1.068Zm6.117 0v-8.64h3.414c.084 0 .184.004.3.012.116.004.228.016.336.036.468.072.86.232 1.176.48.32.248.56.562.72.942.16.376.24.794.24 1.254 0 .668-.174 1.248-.522 1.74-.348.488-.858.794-1.53.918l-.408.066h-2.658V367h-1.068Zm5.142 0-1.704-3.516 1.056-.324 1.872 3.84h-1.224Zm-4.074-4.206h2.31c.076 0 .162-.004.258-.012.1-.008.194-.022.282-.042.276-.064.5-.18.672-.348.176-.172.304-.372.384-.6.08-.232.12-.468.12-.708 0-.24-.04-.474-.12-.702-.08-.232-.208-.434-.384-.606-.172-.172-.396-.288-.672-.348-.088-.024-.182-.038-.282-.042-.096-.008-.182-.012-.258-.012h-2.31v3.42Zm6.02 4.206 2.892-8.64h1.488l2.892 8.64h-1.11l-2.706-8.016h.336L381.999 367h-1.11Zm1.392-2.022v-1.002h4.488v1.002h-4.488Zm6.954 2.022v-8.64h1.08l4.506 6.75v-6.75h1.08V367h-1.08l-4.506-6.756V367h-1.08Zm11.896.18c-.86 0-1.59-.19-2.19-.57-.6-.38-1.058-.908-1.374-1.584-.312-.676-.468-1.458-.468-2.346 0-.888.156-1.67.468-2.346.316-.676.774-1.204 1.374-1.584.6-.38 1.33-.57 2.19-.57 1 0 1.822.254 2.466.762.648.508 1.094 1.192 1.338 2.052l-1.086.288c-.176-.644-.49-1.152-.942-1.524-.452-.372-1.044-.558-1.776-.558-.644 0-1.18.146-1.608.438-.428.292-.75.7-.966 1.224-.216.52-.326 1.126-.33 1.818-.004.688.102 1.294.318 1.818.216.52.54.928.972 1.224.432.292.97.438 1.614.438.732 0 1.324-.186 1.776-.558.452-.376.766-.884.942-1.524l1.086.288c-.244.856-.69 1.54-1.338 2.052-.644.508-1.466.762-2.466.762Zm5.119-.18v-8.64h5.46v1.014h-4.392v2.706h3.672v1.014h-3.672v2.892h4.392V367h-5.46ZM292.995 468.18c-.612 0-1.164-.104-1.656-.312-.488-.208-.892-.504-1.212-.888-.316-.388-.522-.846-.618-1.374l1.104-.174c.14.544.43.97.87 1.278.444.304.966.456 1.566.456.388 0 .738-.06 1.05-.18.316-.124.566-.3.75-.528.184-.228.276-.498.276-.81 0-.192-.034-.356-.102-.492-.064-.14-.154-.258-.27-.354-.112-.1-.24-.184-.384-.252-.144-.068-.294-.124-.45-.168l-2.202-.654c-.24-.072-.472-.162-.696-.27-.224-.112-.424-.25-.6-.414-.176-.168-.316-.368-.42-.6-.104-.236-.156-.514-.156-.834 0-.512.132-.948.396-1.308.268-.364.63-.642 1.086-.834.456-.192.97-.286 1.542-.282.58.004 1.098.108 1.554.312.46.2.84.488 1.14.864.304.376.508.826.612 1.35l-1.134.198c-.06-.352-.194-.654-.402-.906-.204-.256-.46-.452-.768-.588-.308-.14-.646-.212-1.014-.216-.352-.004-.67.052-.954.168-.284.116-.51.278-.678.486-.168.204-.252.44-.252.708 0 .264.076.478.228.642.152.16.338.288.558.384.224.092.442.168.654.228l1.644.474c.188.052.404.124.648.216.248.092.488.222.72.39.232.164.424.384.576.66.152.272.228.616.228 1.032 0 .416-.084.786-.252 1.11-.164.324-.394.596-.69.816-.296.216-.64.38-1.032.492-.392.116-.812.174-1.26.174Zm4.493-.18v-8.64h3.414c.084 0 .184.004.3.012.116.004.228.016.336.036.468.072.86.232 1.176.48.32.248.56.562.72.942.16.376.24.794.24 1.254 0 .456-.082.874-.246 1.254-.16.376-.4.69-.72.942-.316.248-.706.408-1.17.48-.108.016-.22.028-.336.036-.116.008-.216.012-.3.012h-2.346V468h-1.068Zm1.068-4.206h2.31c.076 0 .162-.004.258-.012.1-.008.194-.022.282-.042.276-.064.5-.18.672-.348.176-.172.304-.372.384-.6.08-.232.12-.468.12-.708 0-.24-.04-.474-.12-.702-.08-.232-.208-.434-.384-.606-.172-.172-.396-.288-.672-.348-.088-.024-.182-.038-.282-.042-.096-.008-.182-.012-.258-.012h-2.31v3.42Zm5.117 4.206 2.892-8.64h1.488l2.892 8.64h-1.11l-2.706-8.016h.336L304.783 468h-1.11Zm1.392-2.022v-1.002h4.488v1.002h-4.488Zm7.074 2.022v-8.64h1.068V468h-1.068Zm2.868 0v-8.64h1.08l4.506 6.75v-6.75h1.08V468h-1.08l-4.506-6.756V468h-1.08ZM202.205 459v-8.64h3.414c.084 0 .184.004.3.012.116.004.228.016.336.036.468.072.86.232 1.176.48.32.248.56.562.72.942.16.376.24.794.24 1.254 0 .456-.082.874-.246 1.254-.16.376-.4.69-.72.942-.316.248-.706.408-1.17.48-.108.016-.22.028-.336.036-.116.008-.216.012-.3.012h-2.346V459h-1.068Zm1.068-4.206h2.31c.076 0 .162-.004.258-.012.1-.008.194-.022.282-.042.276-.064.5-.18.672-.348.176-.172.304-.372.384-.6.08-.232.12-.468.12-.708 0-.24-.04-.474-.12-.702-.08-.232-.208-.434-.384-.606-.172-.172-.396-.288-.672-.348-.088-.024-.182-.038-.282-.042-.096-.008-.182-.012-.258-.012h-2.31v3.42Zm9.867 4.386c-.86 0-1.59-.19-2.19-.57-.6-.38-1.058-.908-1.374-1.584-.312-.676-.468-1.458-.468-2.346 0-.888.156-1.67.468-2.346.316-.676.774-1.204 1.374-1.584.6-.38 1.33-.57 2.19-.57.864 0 1.596.19 2.196.57.6.38 1.056.908 1.368 1.584.312.676.468 1.458.468 2.346 0 .888-.156 1.67-.468 2.346-.312.676-.768 1.204-1.368 1.584-.6.38-1.332.57-2.196.57Zm0-1.02c.644.004 1.18-.14 1.608-.432.432-.296.754-.706.966-1.23.216-.524.324-1.13.324-1.818 0-.692-.108-1.298-.324-1.818-.212-.52-.534-.926-.966-1.218-.428-.292-.964-.44-1.608-.444-.644-.004-1.18.14-1.608.432-.424.292-.744.7-.96 1.224-.216.524-.326 1.132-.33 1.824-.004.688.102 1.292.318 1.812.216.52.538.928.966 1.224.432.292.97.44 1.614.444Zm5.237.84v-8.64h3.414c.084 0 .184.004.3.012.116.004.228.016.336.036.468.072.86.232 1.176.48.32.248.56.562.72.942.16.376.24.794.24 1.254 0 .668-.174 1.248-.522 1.74-.348.488-.858.794-1.53.918l-.408.066h-2.658V459h-1.068Zm5.142 0-1.704-3.516 1.056-.324 1.872 3.84h-1.224Zm-4.074-4.206h2.31c.076 0 .162-.004.258-.012.1-.008.194-.022.282-.042.276-.064.5-.18.672-.348.176-.172.304-.372.384-.6.08-.232.12-.468.12-.708 0-.24-.04-.474-.12-.702-.08-.232-.208-.434-.384-.606-.172-.172-.396-.288-.672-.348-.088-.024-.182-.038-.282-.042-.096-.008-.182-.012-.258-.012h-2.31v3.42Zm8.846 4.206v-7.626h-2.946v-1.014h6.96v1.014h-2.946V459h-1.068Zm8.377.18c-.668 0-1.258-.138-1.77-.414-.512-.276-.914-.662-1.206-1.158-.288-.5-.432-1.086-.432-1.758v-5.484l1.08-.006v5.4c0 .408.068.764.204 1.068.14.3.324.55.552.75.228.2.478.35.75.45.276.096.55.144.822.144.276 0 .552-.05.828-.15.276-.1.526-.248.75-.444.228-.2.41-.452.546-.756.136-.304.204-.658.204-1.062v-5.4h1.08v5.49c0 .668-.146 1.252-.438 1.752-.288.5-.688.888-1.2 1.164-.512.276-1.102.414-1.77.414Zm-30.965 16c-.592 0-1.132-.104-1.62-.312-.488-.208-.908-.506-1.26-.894-.352-.392-.624-.864-.816-1.416-.188-.556-.282-1.182-.282-1.878 0-.92.164-1.716.492-2.388.328-.672.79-1.19 1.386-1.554.596-.368 1.296-.552 2.1-.552.968 0 1.748.226 2.34.678.592.448 1 1.062 1.224 1.842l-1.08.222c-.18-.524-.476-.942-.888-1.254-.412-.312-.926-.468-1.542-.468-.644-.004-1.18.14-1.608.432-.424.288-.744.694-.96 1.218-.216.524-.326 1.132-.33 1.824-.004.688.102 1.292.318 1.812.216.52.538.928.966 1.224.432.292.97.44 1.614.444.556.004 1.024-.102 1.404-.318.38-.216.674-.528.882-.936.208-.408.334-.898.378-1.47h-1.836v-.882h2.964c.012.08.018.176.018.288.004.108.006.182.006.222 0 .788-.148 1.494-.444 2.118-.292.62-.726 1.108-1.302 1.464-.572.356-1.28.534-2.124.534Zm4.235-.18 2.892-8.64h1.488l2.892 8.64h-1.11l-2.706-8.016h.336L211.048 475h-1.11Zm1.392-2.022v-1.002h4.488v1.002h-4.488Zm7.074 2.022v-8.64h1.068v7.626h4.008V475h-5.076ZM560.077 285v-8.64h3.414c.084 0 .184.004.3.012.116.004.228.016.336.036.468.072.86.232 1.176.48.32.248.56.562.72.942.16.376.24.794.24 1.254 0 .456-.082.874-.246 1.254-.16.376-.4.69-.72.942-.316.248-.706.408-1.17.48-.108.016-.22.028-.336.036-.116.008-.216.012-.3.012h-2.346V285h-1.068Zm1.068-4.206h2.31c.076 0 .162-.004.258-.012.1-.008.194-.022.282-.042.276-.064.5-.18.672-.348.176-.172.304-.372.384-.6.08-.232.12-.468.12-.708 0-.24-.04-.474-.12-.702-.08-.232-.208-.434-.384-.606-.172-.172-.396-.288-.672-.348-.088-.024-.182-.038-.282-.042-.096-.008-.182-.012-.258-.012h-2.31v3.42Zm9.867 4.386c-.86 0-1.59-.19-2.19-.57-.6-.38-1.058-.908-1.374-1.584-.312-.676-.468-1.458-.468-2.346 0-.888.156-1.67.468-2.346.316-.676.774-1.204 1.374-1.584.6-.38 1.33-.57 2.19-.57.864 0 1.596.19 2.196.57.6.38 1.056.908 1.368 1.584.312.676.468 1.458.468 2.346 0 .888-.156 1.67-.468 2.346-.312.676-.768 1.204-1.368 1.584-.6.38-1.332.57-2.196.57Zm0-1.02c.644.004 1.18-.14 1.608-.432.432-.296.754-.706.966-1.23.216-.524.324-1.13.324-1.818 0-.692-.108-1.298-.324-1.818-.212-.52-.534-.926-.966-1.218-.428-.292-.964-.44-1.608-.444-.644-.004-1.18.14-1.608.432-.424.292-.744.7-.96 1.224-.216.524-.326 1.132-.33 1.824-.004.688.102 1.292.318 1.812.216.52.538.928.966 1.224.432.292.97.44 1.614.444Zm5.357.84v-8.64h1.068v7.626h4.008V285h-5.076Zm5.491 0 2.892-8.64h1.488l2.892 8.64h-1.11l-2.706-8.016h.336L582.97 285h-1.11Zm1.392-2.022v-1.002h4.488v1.002h-4.488Zm6.954 2.022v-8.64h1.08l4.506 6.75v-6.75h1.08V285h-1.08l-4.506-6.756V285h-1.08Zm8.344 0v-8.64h2.664c.088 0 .242.002.462.006.22.004.43.02.63.048.668.088 1.226.332 1.674.732.452.396.792.9 1.02 1.512.228.612.342 1.286.342 2.022 0 .736-.114 1.41-.342 2.022-.228.612-.568 1.118-1.02 1.518-.448.396-1.006.638-1.674.726-.2.024-.412.04-.636.048-.22.004-.372.006-.456.006h-2.664Zm1.098-1.02h1.566c.152 0 .322-.004.51-.012.188-.012.352-.03.492-.054.472-.088.854-.286 1.146-.594.292-.308.506-.692.642-1.152.136-.46.204-.956.204-1.488 0-.544-.07-1.046-.21-1.506-.136-.46-.35-.842-.642-1.146-.292-.304-.672-.498-1.14-.582-.14-.028-.306-.046-.498-.054s-.36-.012-.504-.012h-1.566v6.6ZM658.767 263v-8.64h3.366c.516 0 .956.106 1.32.318.368.212.648.492.84.84.196.344.294.716.294 1.116 0 .468-.12.878-.36 1.23s-.564.594-.972.726l-.012-.294c.556.148.988.42 1.296.816.308.396.462.868.462 1.416 0 .504-.104.94-.312 1.308-.204.368-.5.654-.888.858-.384.204-.84.306-1.368.306h-3.666Zm1.08-1.02h2.382c.32 0 .606-.058.858-.174.252-.12.45-.288.594-.504.148-.216.222-.476.222-.78 0-.292-.066-.554-.198-.786-.128-.232-.31-.416-.546-.552-.232-.14-.502-.21-.81-.21h-2.502v3.006Zm0-4.014h2.274c.256 0 .486-.054.69-.162.208-.112.372-.268.492-.468.124-.2.186-.434.186-.702 0-.372-.126-.676-.378-.912s-.582-.354-.99-.354h-2.274v2.598Zm6.349 5.034v-8.64h5.46v1.014h-4.392v2.706h3.672v1.014h-3.672v2.892h4.392V263h-5.46Zm7.023 0v-8.64h1.068v7.626h4.008V263h-5.076Zm5.491 0 2.892-8.64h1.488l2.892 8.64h-1.11l-2.706-8.016h.336L679.82 263h-1.11Zm1.392-2.022v-1.002h4.488v1.002h-4.488Zm6.954 2.022v-8.64h3.414c.084 0 .184.004.3.012.116.004.228.016.336.036.468.072.86.232 1.176.48.32.248.56.562.72.942.16.376.24.794.24 1.254 0 .668-.174 1.248-.522 1.74-.348.488-.858.794-1.53.918l-.408.066h-2.658V263h-1.068Zm5.142 0-1.704-3.516 1.056-.324 1.872 3.84h-1.224Zm-4.074-4.206h2.31c.076 0 .162-.004.258-.012.1-.008.194-.022.282-.042.276-.064.5-.18.672-.348.176-.172.304-.372.384-.6.08-.232.12-.468.12-.708 0-.24-.04-.474-.12-.702-.08-.232-.208-.434-.384-.606-.172-.172-.396-.288-.672-.348-.088-.024-.182-.038-.282-.042-.096-.008-.182-.012-.258-.012h-2.31v3.42Zm10.027 4.386c-.668 0-1.258-.138-1.77-.414-.512-.276-.914-.662-1.206-1.158-.288-.5-.432-1.086-.432-1.758v-5.484l1.08-.006v5.4c0 .408.068.764.204 1.068.14.3.324.55.552.75.228.2.478.35.75.45.276.096.55.144.822.144.276 0 .552-.05.828-.15.276-.1.526-.248.75-.444.228-.2.41-.452.546-.756.136-.304.204-.658.204-1.062v-5.4h1.08v5.49c0 .668-.146 1.252-.438 1.752-.288.5-.688.888-1.2 1.164-.512.276-1.102.414-1.77.414Zm7.791 0c-.612 0-1.164-.104-1.656-.312-.488-.208-.892-.504-1.212-.888-.316-.388-.522-.846-.618-1.374l1.104-.174c.14.544.43.97.87 1.278.444.304.966.456 1.566.456.388 0 .738-.06 1.05-.18.316-.124.566-.3.75-.528.184-.228.276-.498.276-.81 0-.192-.034-.356-.102-.492-.064-.14-.154-.258-.27-.354-.112-.1-.24-.184-.384-.252-.144-.068-.294-.124-.45-.168l-2.202-.654c-.24-.072-.472-.162-.696-.27-.224-.112-.424-.25-.6-.414-.176-.168-.316-.368-.42-.6-.104-.236-.156-.514-.156-.834 0-.512.132-.948.396-1.308.268-.364.63-.642 1.086-.834.456-.192.97-.286 1.542-.282.58.004 1.098.108 1.554.312.46.2.84.488 1.14.864.304.376.508.826.612 1.35l-1.134.198c-.06-.352-.194-.654-.402-.906-.204-.256-.46-.452-.768-.588-.308-.14-.646-.212-1.014-.216-.352-.004-.67.052-.954.168-.284.116-.51.278-.678.486-.168.204-.252.44-.252.708 0 .264.076.478.228.642.152.16.338.288.558.384.224.092.442.168.654.228l1.644.474c.188.052.404.124.648.216.248.092.488.222.72.39.232.164.424.384.576.66.152.272.228.616.228 1.032 0 .416-.084.786-.252 1.11-.164.324-.394.596-.69.816-.296.216-.64.38-1.032.492-.392.116-.812.174-1.26.174Z"/></g><rect width="950" height="582" x="1" y="1" stroke="#565F51" stroke-width="2" rx="31"/><defs><clipPath id="a"><rect width="952" height="584" fill="#fff" rx="32"/></clipPath></defs></svg>