<svg width="20" height="20" viewBox="0 0 20 20" fill="none" xmlns="http://www.w3.org/2000/svg">
<rect width="20" height="20" rx="10" fill="#D9D9D9"/>
<path d="M9.032 12.642C9.032 12.33 9.046 12.056 9.074 11.82C9.106 11.58 9.186 11.34 9.314 11.1C9.434 10.872 9.582 10.684 9.758 10.536C9.934 10.384 10.118 10.242 10.31 10.11C10.502 9.974 10.684 9.814 10.856 9.63C11.012 9.45 11.116 9.268 11.168 9.084C11.22 8.9 11.246 8.706 11.246 8.502C11.246 8.298 11.22 8.116 11.168 7.956C11.12 7.796 11.044 7.658 10.94 7.542C10.78 7.346 10.584 7.212 10.352 7.14C10.12 7.068 9.878 7.032 9.626 7.032C9.378 7.032 9.146 7.068 8.93 7.14C8.718 7.208 8.542 7.314 8.402 7.458C8.266 7.586 8.166 7.74 8.102 7.92C8.042 8.1 8.012 8.29 8.012 8.49H7.1C7.116 8.174 7.184 7.866 7.304 7.566C7.428 7.262 7.608 7.008 7.844 6.804C8.08 6.588 8.354 6.432 8.666 6.336C8.982 6.236 9.3 6.186 9.62 6.186C10.012 6.186 10.384 6.246 10.736 6.366C11.088 6.482 11.384 6.678 11.624 6.954C11.816 7.158 11.956 7.392 12.044 7.656C12.136 7.916 12.182 8.194 12.182 8.49C12.182 8.822 12.12 9.134 11.996 9.426C11.872 9.718 11.698 9.978 11.474 10.206C11.338 10.354 11.184 10.492 11.012 10.62C10.84 10.744 10.674 10.874 10.514 11.01C10.358 11.142 10.238 11.286 10.154 11.442C10.05 11.634 9.992 11.816 9.98 11.988C9.972 12.16 9.968 12.378 9.968 12.642H9.032ZM9.038 15V13.824H9.968V15H9.038Z" fill="#5C5C5C"/>
</svg>
