<svg width="1873" height="506" viewBox="0 0 1873 506" fill="none" xmlns="http://www.w3.org/2000/svg">
<line x1="-2.0595e-07" y1="2.64429" x2="1872.07" y2="2.64413" stroke="#EBECE6" stroke-width="4.7116"/>
<path d="M1371.07 506C1371.07 390.621 1325.24 279.967 1243.66 198.382C1162.07 116.797 1051.42 70.9625 936.038 70.9625C820.658 70.9625 710.005 116.797 628.42 198.382C546.834 279.967 501 390.621 501 506" stroke="#EBECE6" stroke-width="4.7116"/>
<path d="M435.037 506C435.037 390.621 389.203 279.967 307.618 198.382C226.033 116.797 115.379 70.9625 0 70.9625" stroke="#EBECE6" stroke-width="4.7116"/>
<path d="M1437.04 506C1437.04 390.621 1482.87 279.967 1564.46 198.382C1646.04 116.797 1756.7 70.9624 1872.07 70.9623" stroke="#EBECE6" stroke-width="4.7116"/>
</svg>
