<svg width="180" height="60" viewBox="0 0 180 60" fill="none" xmlns="http://www.w3.org/2000/svg">
<path d="M23.8273 48.1004H22.8084C22.8084 42.2611 17.8433 37.5097 11.7402 37.5097V36.4908C18.4052 36.4921 23.8273 41.7004 23.8273 48.1004Z" fill="#565E50"/>
<path d="M48.9417 48.1004H47.9228C47.9228 42.2611 42.9577 37.5097 36.8546 37.5097C30.7516 37.5097 25.7865 42.2611 25.7865 48.1004H24.7676C24.7676 41.6992 30.1897 36.4908 36.8546 36.4908C43.5196 36.4908 48.9417 41.7004 48.9417 48.1004Z" fill="#565E50"/>
<path d="M50.8997 48.1004H49.8809C49.8809 41.6992 55.3042 36.4908 61.9692 36.4908V37.5097C55.8649 37.5097 50.8997 42.2611 50.8997 48.1004Z" fill="#565E50"/>
<path d="M61.97 33.511H11.7402V34.5299H61.97V33.511Z" fill="#565E50"/>
<path d="M12.7553 26.91H11.7402V31.536H12.7553V26.91Z" fill="#565E50"/>
<path d="M18.2221 26.7949H17.207V31.536H18.2221V26.7949Z" fill="#565E50"/>
<path d="M23.6908 26.0333H22.6758V31.536H23.6908V26.0333Z" fill="#565E50"/>
<path d="M29.1596 24.5293H28.1445V31.536H29.1596V24.5293Z" fill="#565E50"/>
<path d="M34.6283 22.0756H33.6133V31.536H34.6283V22.0756Z" fill="#565E50"/>
<path d="M40.0971 18.0973H39.082V31.5347H40.0971V18.0973Z" fill="#565E50"/>
<path d="M45.5639 11.8995H44.5488V31.536H45.5639V11.8995Z" fill="#565E50"/>
<path d="M51.0346 18.0999H50.0195V31.536H51.0346V18.0999Z" fill="#565E50"/>
<path d="M56.5014 22.0768H55.4863V31.5347H56.5014V22.0768Z" fill="#565E50"/>
<path d="M61.9701 24.5293H60.9551V31.536H61.9701V24.5293Z" fill="#565E50"/>
<path d="M77.8429 20.3577C76.6768 20.3577 75.6938 19.9737 74.9988 19.2467C74.2858 18.5004 73.9082 17.4227 73.9082 16.1273C73.9082 14.8806 74.273 13.8156 74.9616 13.0502C75.64 12.2963 76.5693 11.8982 77.6509 11.8982C79.8781 11.8982 80.7319 13.4982 80.7767 14.6156L79.8269 14.7705C79.7872 13.9347 79.1972 12.7712 77.6637 12.7712C76.0317 12.7712 74.9348 14.1203 74.9348 16.1286C74.9348 18.6041 76.4503 19.486 77.8685 19.486C79.114 19.486 79.9063 18.6694 80.234 18.2444L80.8317 18.8524C80.3991 19.4387 79.4596 20.3577 77.8429 20.3577Z" fill="#565E50"/>
<path d="M85.9588 20.3578C83.6279 20.3578 82.0625 18.6579 82.0625 16.1287C82.0625 13.5994 83.6279 11.8995 85.9588 11.8995C88.2897 11.8995 89.8551 13.5994 89.8551 16.1287C89.8551 18.6579 88.2897 20.3578 85.9588 20.3578ZM85.9588 12.7712C84.2423 12.7712 83.0891 14.1203 83.0891 16.1287C83.0891 18.137 84.2423 19.4861 85.9588 19.4861C87.6753 19.4861 88.8286 18.137 88.8286 16.1287C88.8286 14.1203 87.6753 12.7712 85.9588 12.7712Z" fill="#565E50"/>
<path d="M95.6509 20.3066L93.1344 14.8781C92.9731 14.5351 92.8925 14.1985 92.8592 14.0282L92.8426 13.945L92.6429 13.9949L92.657 14.0666C92.6685 14.1242 92.7069 14.7949 92.7069 15.1533L92.7325 20.2797H91.7188V11.9738H92.8618L95.4039 17.5418C95.5588 17.89 95.7994 18.5005 95.8749 18.7143L95.8928 18.7655H96.0298L96.0464 18.7105C96.0925 18.553 96.2602 18.1485 96.5303 17.5405L99.0724 11.9725H100.151V20.2785H99.1376L99.1632 15.1521C99.1632 14.7937 99.2016 14.1229 99.2132 14.0641L99.2272 13.9937L99.1568 13.9757L99.0327 13.945L99.0135 14.0167C98.9764 14.1511 98.7984 14.7514 98.6973 14.9652L96.2692 20.3041H95.6509V20.3066Z" fill="#565E50"/>
<path d="M106.396 20.3066L103.879 14.8781C103.718 14.5338 103.637 14.1972 103.604 14.0269L103.589 13.9476L103.511 13.9642L103.389 13.9949L103.403 14.0666C103.415 14.1242 103.453 14.7962 103.453 15.1533L103.479 20.2797H102.465V11.9738H103.608L106.15 17.5418C106.305 17.8887 106.545 18.5005 106.621 18.7143L106.639 18.7655H106.776L106.793 18.7105C106.839 18.5543 107.01 18.1396 107.276 17.5405L109.818 11.9725H110.897V20.2785H109.884L109.909 15.1521C109.909 14.7924 109.948 14.1217 109.959 14.0641L109.973 13.9937L109.903 13.9757L109.779 13.945L109.76 14.0167C109.722 14.1511 109.543 14.754 109.443 14.9652L107.015 20.3041H106.396V20.3066Z" fill="#565E50"/>
<path d="M116.637 20.3578C114.306 20.3578 112.74 18.6579 112.74 16.1287C112.74 13.5994 114.306 11.8995 116.637 11.8995C118.967 11.8995 120.533 13.5994 120.533 16.1287C120.533 18.6579 118.967 20.3578 116.637 20.3578ZM116.637 12.7712C114.92 12.7712 113.767 14.1203 113.767 16.1287C113.767 18.137 114.92 19.4861 116.637 19.4861C118.353 19.4861 119.506 18.137 119.506 16.1287C119.508 14.1203 118.354 12.7712 116.637 12.7712Z" fill="#565E50"/>
<path d="M122.396 20.281V11.9751H124.884C127.588 11.9751 129.138 13.4893 129.138 16.1274C129.138 17.5239 128.785 18.5901 128.087 19.2941C127.438 19.9482 126.508 20.281 125.319 20.281H122.396ZM123.41 19.4477H125.306C127.089 19.4477 128.112 18.2381 128.112 16.1287C128.112 13.9578 126.99 12.8097 124.869 12.8097H123.41V19.4477Z" fill="#565E50"/>
<path d="M132.037 11.9763H131.023V20.2822H132.037V11.9763Z" fill="#565E50"/>
<path d="M136.145 20.281V12.8096H133.428V11.9763H139.875V12.8096H137.159V20.281H136.145Z" fill="#565E50"/>
<path d="M142.293 11.9763H141.279V20.2822H142.293V11.9763Z" fill="#565E50"/>
<path d="M144.572 20.281V11.9763H149.66V12.8096H145.586V15.5514H149.212V16.3859H145.586V19.4477H149.66V20.281H144.572Z" fill="#565E50"/>
<path d="M154.022 20.3578C152.66 20.3578 151.588 19.8842 151.014 19.4234L151.647 18.6336C152.31 19.1981 153.108 19.4848 154.022 19.4848C155.215 19.4848 155.956 18.9843 155.956 18.1779C155.956 17.0631 154.904 16.7354 153.79 16.3885C152.568 16.0083 151.304 15.6141 151.304 14.1408C151.304 13.4867 151.565 12.9274 152.059 12.5203C152.556 12.112 153.238 11.897 154.034 11.897C155.572 11.897 156.532 12.5472 156.889 13.8285L155.952 14.0602C155.828 13.5456 155.308 12.7699 154.036 12.7699C152.985 12.7699 152.332 13.2896 152.332 14.128C152.332 14.9549 153.246 15.2455 154.212 15.5527C155.5 15.9623 156.958 16.4269 156.958 18.1767C156.958 18.8192 156.684 19.3632 156.166 19.7523C155.638 20.1491 154.897 20.3578 154.022 20.3578Z" fill="#565E50"/>
<path d="M74.3691 34.3316V26.0256H75.3829V33.497H79.5992V34.3316H74.3691Z" fill="#565E50"/>
<path d="M84.0955 34.4083C81.7647 34.4083 80.1992 32.7085 80.1992 30.1792C80.1992 27.6499 81.7647 25.9501 84.0955 25.9501C86.4264 25.9501 87.9919 27.6499 87.9919 30.1792C87.9919 32.7085 86.4264 34.4083 84.0955 34.4083ZM84.0955 26.8218C82.3791 26.8218 81.2258 28.1709 81.2258 30.1792C81.2258 32.1875 82.3791 33.5366 84.0955 33.5366C85.812 33.5366 86.9653 32.1875 86.9653 30.1792C86.9653 28.1709 85.812 26.8218 84.0955 26.8218Z" fill="#565E50"/>
<path d="M93.0516 34.4083C91.9789 34.4083 91.065 34.009 90.4084 33.2525C89.7479 32.4909 89.3984 31.4285 89.3984 30.1792C89.3984 28.9325 89.762 27.8688 90.4506 27.1021C91.1277 26.3482 92.0532 25.9501 93.1284 25.9501C94.1588 25.9501 94.9997 26.2726 95.5629 26.8819C95.9815 27.335 96.2375 27.9494 96.2541 28.5395L95.3287 28.6931C95.2864 27.9085 94.6874 26.823 93.1399 26.823C91.7882 26.823 90.4237 27.8611 90.4237 30.1805C90.4237 32.2195 91.5207 33.5379 93.2167 33.5379C94.8628 33.5379 95.6 32.4563 95.6 31.385V31.129H92.8954V30.3072H96.4077V34.3328H95.8381C95.7959 34.1587 95.7216 33.7299 95.6756 33.2102L95.6538 32.9581L95.5322 33.1808C95.097 33.9834 94.2381 34.4083 93.0516 34.4083Z" fill="#565E50"/>
<path d="M99.5138 26.0256H98.5V34.3316H99.5138V26.0256Z" fill="#565E50"/>
<path d="M104.149 34.4083C102.787 34.4083 101.715 33.9347 101.141 33.4739L101.774 32.6841C102.437 33.2486 103.236 33.5353 104.149 33.5353C105.342 33.5353 106.083 33.0349 106.083 32.2285C106.083 31.1136 105.031 30.7859 103.917 30.439C102.695 30.0589 101.431 29.6646 101.431 28.1913C101.431 27.5373 101.692 26.9779 102.186 26.5709C102.683 26.1625 103.365 25.9475 104.161 25.9475C105.699 25.9475 106.659 26.5977 107.016 27.879L106.079 28.1107C105.955 27.5961 105.435 26.8205 104.163 26.8205C103.112 26.8205 102.459 27.3401 102.459 28.1785C102.459 29.0054 103.373 29.296 104.339 29.6032C105.627 30.0128 107.085 30.4774 107.085 32.2272C107.085 32.8697 106.811 33.4137 106.293 33.8029C105.765 34.1997 105.024 34.4083 104.149 34.4083Z" fill="#565E50"/>
<path d="M110.785 34.3316V26.8602H108.068V26.0256H114.516V26.8602H111.798V34.3316H110.785Z" fill="#565E50"/>
<path d="M116.934 26.0256H115.92V34.3316H116.934V26.0256Z" fill="#565E50"/>
<path d="M122.708 34.4084C121.542 34.4084 120.559 34.0244 119.864 33.2973C119.151 32.5511 118.773 31.4733 118.773 30.178C118.773 28.9313 119.138 27.8663 119.827 27.1009C120.505 26.3469 121.435 25.9489 122.516 25.9489C124.743 25.9489 125.597 27.5489 125.642 28.6663L124.692 28.8212C124.652 27.9853 124.062 26.8218 122.529 26.8218C120.897 26.8218 119.8 28.1709 119.8 30.1793C119.8 32.6548 121.316 33.5367 122.734 33.5367C123.979 33.5367 124.772 32.7201 125.099 32.2951L125.697 32.9031C125.263 33.4881 124.325 34.4084 122.708 34.4084Z" fill="#565E50"/>
<path d="M129.84 34.4083C128.478 34.4083 127.407 33.9347 126.832 33.4739L127.466 32.6841C128.129 33.2486 128.926 33.5353 129.84 33.5353C131.033 33.5353 131.774 33.0349 131.774 32.2285C131.774 31.1136 130.722 30.7859 129.608 30.439C128.386 30.0589 127.123 29.6646 127.123 28.1913C127.123 27.5373 127.384 26.9779 127.878 26.5709C128.374 26.1625 129.057 25.9475 129.853 25.9475C131.39 25.9475 132.35 26.5977 132.707 27.879L131.77 28.1107C131.646 27.5961 131.126 26.8205 129.853 26.8205C128.802 26.8205 128.149 27.3401 128.149 28.1785C128.149 29.0054 129.063 29.296 130.029 29.6032C131.317 30.0128 132.775 30.4774 132.775 32.2272C132.775 32.8697 132.501 33.4137 131.983 33.8029C131.457 34.1997 130.716 34.4083 129.84 34.4083Z" fill="#565E50"/>
<path d="M74.3691 48.0237V39.7178H77.1378C78.9234 39.7178 79.9064 40.4922 79.9064 41.8976C79.9064 43.2775 78.789 43.5283 78.661 43.5527L78.5983 43.5642V43.7152L78.6597 43.728C78.8312 43.7626 80.3416 44.112 80.3416 45.7939C80.3416 46.4928 80.1035 47.0419 79.6363 47.4272C79.1538 47.824 78.4511 48.025 77.5474 48.025H74.3691V48.0237ZM75.3829 47.1904H77.4066C78.6098 47.1904 79.3279 46.6259 79.3279 45.6787C79.3279 44.6842 78.5522 44.0903 77.253 44.0903H75.3829V47.1904ZM75.3829 43.3709H77.1506C78.2015 43.3709 78.8799 42.8179 78.8799 41.9616C78.8799 41.0131 78.2591 40.5523 76.9842 40.5523H75.3829V43.3709Z" fill="#565E50"/>
<path d="M87.8194 48.1005C86.661 48.1005 86.2757 47.2903 85.8686 46.4327C85.4808 45.6147 85.0789 44.7687 83.9486 44.7687H83.1934V48.0237H82.1797V39.7178H84.6539C86.6891 39.7178 87.6786 40.5523 87.6786 42.2688C87.6786 43.3389 87.0066 44.176 85.8341 44.5677L85.6715 44.6215L85.8213 44.7059C86.2872 44.9696 86.5522 45.5034 86.8082 46.0192C87.1397 46.6874 87.452 47.3171 88.1662 47.3171C88.243 47.3171 88.307 47.3107 88.3544 47.3043L88.4286 48.0493C88.3173 48.0685 88.0805 48.1005 87.8194 48.1005ZM83.1947 44.0122H84.4888C85.8046 44.0122 86.6546 43.3287 86.6546 42.2701C86.6546 41.1475 85.9454 40.5536 84.6053 40.5536H83.196V44.0122H83.1947Z" fill="#565E50"/>
<path d="M93.0584 48.1004C90.7275 48.1004 89.1621 46.4006 89.1621 43.8713C89.1621 41.342 90.7275 39.6422 93.0584 39.6422C95.3893 39.6422 96.9547 41.342 96.9547 43.8713C96.9547 46.4006 95.388 48.1004 93.0584 48.1004ZM93.0584 40.5139C91.3419 40.5139 90.1887 41.863 90.1887 43.8713C90.1887 45.8796 91.3419 47.2288 93.0584 47.2288C94.7749 47.2288 95.9282 45.8796 95.9282 43.8713C95.9282 41.863 94.7749 40.5139 93.0584 40.5139Z" fill="#565E50"/>
<path d="M98.8164 48.0236V39.719H99.8302V43.55H100.893L103.814 39.719H104.864L101.59 43.975L104.896 48.0108H103.812L100.891 44.3846H99.8302V48.0236H98.8164Z" fill="#565E50"/>
<path d="M106.359 48.0236V39.719H111.449V40.5523H107.373V43.294H110.999V44.1286H107.373V47.1904H111.449V48.0236H106.359Z" fill="#565E50"/>
<path d="M118.855 48.1005C117.696 48.1005 117.311 47.2903 116.904 46.4327C116.516 45.6147 116.114 44.7687 114.984 44.7687H114.229V48.0237H113.215V39.7178H115.689C117.724 39.7178 118.714 40.5523 118.714 42.2688C118.714 43.3389 118.042 44.176 116.869 44.5677L116.707 44.6215L116.856 44.7059C117.322 44.9696 117.587 45.5034 117.843 46.0192C118.175 46.6874 118.487 47.3171 119.201 47.3171C119.278 47.3171 119.342 47.3107 119.39 47.3043L119.464 48.0493C119.352 48.0685 119.116 48.1005 118.855 48.1005ZM114.23 44.0122H115.524C116.84 44.0122 117.69 43.3287 117.69 42.2701C117.69 41.1475 116.981 40.5536 115.64 40.5536H114.231V44.0122H114.23Z" fill="#565E50"/>
<path d="M123.578 48.1004C122.216 48.1004 121.145 47.6268 120.57 47.166L121.204 46.3763C121.867 46.9408 122.664 47.2275 123.578 47.2275C124.771 47.2275 125.512 46.727 125.512 45.9206C125.512 44.8057 124.46 44.4781 123.347 44.1312C122.124 43.751 120.861 43.3568 120.861 41.8835C120.861 41.2294 121.122 40.67 121.616 40.263C122.113 39.8547 122.795 39.6396 123.591 39.6396C125.128 39.6396 126.088 40.2899 126.446 41.5712L125.509 41.8029C125.384 41.2883 124.865 40.5126 123.591 40.5126C122.54 40.5126 121.887 41.0323 121.887 41.8707C121.887 42.6976 122.801 42.9881 123.768 43.2953C125.055 43.7049 126.513 44.1696 126.513 45.9193C126.513 46.5619 126.239 47.1059 125.721 47.495C125.195 47.8931 124.454 48.1004 123.578 48.1004Z" fill="#565E50"/>
<path d="M166.726 19.7063L166.67 19.7421C166.064 20.1287 165.308 20.3322 164.481 20.3322C163.654 20.3322 162.949 20.1095 162.439 19.6897C161.939 19.2762 161.674 18.7092 161.674 18.05C161.674 17.0605 162.215 16.3745 163.329 15.9559L163.433 15.9175L163.36 15.8343C163.032 15.4631 162.597 14.8756 162.597 14.0525C162.597 12.8788 163.508 12.0276 164.764 12.0276C165.972 12.0276 166.814 12.7815 166.814 13.8605C166.814 14.8218 166.188 15.5399 164.902 16.0583L164.803 16.098L166.823 18.4327L166.878 18.3495C167.205 17.8605 167.376 17.1962 167.39 16.3745L168.263 16.6586C168.253 17.5994 167.971 18.4314 167.448 19.0663L167.407 19.1162L168.176 19.9981L167.43 20.5242L166.726 19.7063ZM163.851 16.4551C163.105 16.7457 162.726 17.2397 162.726 17.9233C162.726 18.8129 163.448 19.4349 164.481 19.4349C165.093 19.4349 165.626 19.3197 166.067 19.0932L166.153 19.0484L163.901 16.4359L163.851 16.4551ZM164.764 12.7969C164.043 12.7969 163.559 13.2756 163.559 13.9885C163.559 14.7015 164.037 15.234 164.322 15.5514L164.357 15.5911L164.405 15.5719C165.667 15.0829 165.914 14.6209 165.914 13.9885C165.916 13.2756 165.452 12.7969 164.764 12.7969Z" fill="#565E50"/>
</svg>
