<svg width="42" height="30" viewBox="0 0 42 30" fill="none" xmlns="http://www.w3.org/2000/svg">
<path d="M10.4707 29.4804H9.64486C9.64486 24.8089 5.6205 21.0078 0.673828 21.0078V20.1927C6.07595 20.1938 10.4707 24.3604 10.4707 29.4804Z" fill="#565E50"/>
<path d="M30.8262 29.4804H30.0003C30.0003 24.8089 25.976 21.0078 21.0293 21.0078C16.0826 21.0078 12.0583 24.8089 12.0583 29.4804H11.2324C11.2324 24.3594 15.6272 20.1927 21.0293 20.1927C26.4314 20.1927 30.8262 24.3604 30.8262 29.4804Z" fill="#565E50"/>
<path d="M32.4137 29.4804H31.5879C31.5879 24.3594 35.9837 20.1927 41.3858 20.1927V21.0078C36.4381 21.0078 32.4137 24.8089 32.4137 29.4804Z" fill="#565E50"/>
<path d="M41.3864 17.8088H0.673828V18.6239H41.3864V17.8088Z" fill="#565E50"/>
<path d="M1.49655 12.5281H0.673828V16.2288H1.49655V12.5281Z" fill="#565E50"/>
<path d="M5.92818 12.4359H5.10547V16.2288H5.92818V12.4359Z" fill="#565E50"/>
<path d="M10.3598 11.8267H9.53711V16.2288H10.3598V11.8267Z" fill="#565E50"/>
<path d="M14.7934 10.6234H13.9707V16.2288H14.7934V10.6234Z" fill="#565E50"/>
<path d="M19.2251 8.6604H18.4023V16.2288H19.2251V8.6604Z" fill="#565E50"/>
<path d="M23.6587 5.47791H22.8359V16.2279H23.6587V5.47791Z" fill="#565E50"/>
<path d="M28.0883 0.519653H27.2656V16.2288H28.0883V0.519653Z" fill="#565E50"/>
<path d="M32.5239 5.47986H31.7012V16.2288H32.5239V5.47986Z" fill="#565E50"/>
<path d="M36.9536 8.6615H36.1309V16.2278H36.9536V8.6615Z" fill="#565E50"/>
<path d="M41.3872 10.6234H40.5645V16.2288H41.3872V10.6234Z" fill="#565E50"/>
</svg>
