<svg width="390" height="211" viewBox="0 0 390 211" fill="none" xmlns="http://www.w3.org/2000/svg">
<path d="M163.647 113.57H161.197C161.197 99.516 149.248 88.0826 134.559 88.0826V85.6323C150.599 85.6323 163.647 98.165 163.647 113.57Z" fill="#565F51"/>
<path d="M224.085 113.57H221.635C221.635 99.516 209.687 88.0826 194.997 88.0826C180.308 88.0826 168.359 99.516 168.359 113.57H165.909C165.909 98.165 178.957 85.6323 194.997 85.6323C211.037 85.6323 224.085 98.165 224.085 113.57Z" fill="#565F51"/>
<path d="M228.8 113.57H226.35C226.35 98.165 239.401 85.6323 255.441 85.6323V88.0826C240.752 88.0826 228.8 99.516 228.8 113.57Z" fill="#565F51"/>
<path d="M255.441 78.4583H134.559V80.9085H255.441V78.4583Z" fill="#565F51"/>
<path d="M137.003 62.5708H134.559V73.7017H137.003V62.5708Z" fill="#565F51"/>
<path d="M150.162 62.2952H147.718V73.7046H150.162V62.2952Z" fill="#565F51"/>
<path d="M163.324 60.4619H160.88V73.7046H163.324V60.4619Z" fill="#565F51"/>
<path d="M176.483 56.8406H174.038V73.7016H176.483V56.8406Z" fill="#565F51"/>
<path d="M189.644 50.9365H187.2V73.7015H189.644V50.9365Z" fill="#565F51"/>
<path d="M202.803 41.3662H200.359V73.7045H202.803V41.3662Z" fill="#565F51"/>
<path d="M215.962 26.4463H213.518V73.7016H215.962V26.4463Z" fill="#565F51"/>
<path d="M229.127 41.3694H226.682V73.7046H229.127V41.3694Z" fill="#565F51"/>
<path d="M242.282 50.9426H239.838V73.7046H242.282V50.9426Z" fill="#565F51"/>
<path d="M255.441 56.8406H252.997V73.7016H255.441V56.8406Z" fill="#565F51"/>
<path d="M156.905 180.49C156.905 182.5 155.506 183.722 152.885 183.722H148.326V171.875H152.31C154.787 171.875 156.294 172.936 156.294 175.036C156.294 176.722 155.126 177.333 154.464 177.459V177.495C155.272 177.654 156.905 178.39 156.905 180.49ZM152.094 173.256H149.958V176.992H152.328C153.87 176.992 154.643 176.165 154.643 175.125C154.643 173.885 153.87 173.256 152.094 173.256ZM155.272 180.328C155.272 178.84 154.032 178.211 152.472 178.211H149.958V182.338H152.687C154.158 182.338 155.272 181.712 155.272 180.328Z" fill="#565F51"/>
<path d="M171.591 183.74C171.591 183.74 171.142 183.83 170.621 183.83C167.299 183.83 168.287 179.163 165.199 179.163H164.246V183.722H162.614V171.875H166.187C168.952 171.875 170.531 172.99 170.531 175.554C170.531 177.204 169.434 178.355 167.874 178.876C169.399 179.738 169.416 182.521 171.106 182.521C171.322 182.521 171.465 182.485 171.465 182.485L171.591 183.74ZM165.954 177.887C167.622 177.887 168.88 177.061 168.88 175.554C168.88 174.029 167.91 173.256 166.116 173.256H164.249V177.887H165.954Z" fill="#565F51"/>
<path d="M186.883 177.797C186.883 181.497 184.567 183.83 181.317 183.83C178.085 183.83 175.752 181.497 175.752 177.797C175.752 174.098 178.085 171.765 181.317 171.765C184.567 171.768 186.883 174.101 186.883 177.797ZM185.232 177.797C185.232 174.979 183.618 173.202 181.32 173.202C179.041 173.202 177.408 174.979 177.408 177.797C177.408 180.616 179.041 182.392 181.32 182.392C183.618 182.392 185.232 180.616 185.232 177.797Z" fill="#565F51"/>
<path d="M195.59 178.624H194.263V183.722H192.631V171.875H194.263V177.243H195.59L199.682 171.875H201.422L196.755 177.944L201.476 183.707H199.682L195.59 178.624Z" fill="#565F51"/>
<path d="M208.177 173.256V176.884H213.257V178.268H208.177V182.341H213.886V183.725H206.544V171.878H213.886V173.259H208.177V173.256Z" fill="#565F51"/>
<path d="M228.477 183.74C228.477 183.74 228.027 183.83 227.506 183.83C224.184 183.83 225.173 179.163 222.085 179.163H221.132V183.722H219.5V171.875H223.073C225.838 171.875 227.416 172.99 227.416 175.554C227.416 177.204 226.32 178.355 224.759 178.876C226.284 179.738 226.302 182.521 227.992 182.521C228.207 182.521 228.351 182.485 228.351 182.485L228.477 183.74ZM222.839 177.887C224.508 177.887 225.766 177.061 225.766 175.554C225.766 174.029 224.795 173.256 223.001 173.256H221.135V177.887H222.839Z" fill="#565F51"/>
<path d="M237.475 173.202C236.091 173.202 235.195 173.867 235.195 174.997C235.195 177.51 241.674 176.234 241.674 180.67C241.674 182.572 240.006 183.83 237.457 183.83C235.339 183.83 233.811 183.039 233.096 182.431L234.12 181.155C234.605 181.587 235.663 182.392 237.46 182.392C239.092 182.392 240.063 181.727 240.063 180.67C240.063 177.51 233.548 179.055 233.548 175.015C233.548 173.077 235.162 171.765 237.478 171.765C240.692 171.765 241.39 173.811 241.605 174.655L240.081 175.033C239.97 174.404 239.323 173.202 237.475 173.202Z" fill="#565F51"/>
<path d="M41.1147 146.1L38.7843 146.481C38.7843 144.773 37.5921 142.224 34.3661 142.224C31.2748 142.224 28.7527 144.746 28.7527 149.165C28.7527 154.098 31.6523 156.105 34.7974 156.105C37.1278 156.105 38.8352 154.694 39.7848 153.394L41.2765 154.913C40.7343 155.671 38.7004 158.274 34.7435 158.274C29.7023 158.274 26.2576 154.913 26.2576 149.165C26.2576 143.662 29.6184 140.056 34.3361 140.056C39.3534 140.056 41.0877 143.77 41.1147 146.1Z" fill="#565F51"/>
<path d="M60.3183 149.164C60.3183 154.748 56.8226 158.273 51.9132 158.273C47.0337 158.273 43.5081 154.748 43.5081 149.164C43.5081 143.581 47.0337 140.055 51.9132 140.055C56.8226 140.055 60.3183 143.581 60.3183 149.164ZM57.8231 149.164C57.8231 144.908 55.3818 142.224 51.9132 142.224C48.4715 142.224 46.0033 144.908 46.0033 149.164C46.0033 153.421 48.4715 156.105 51.9132 156.105C55.3848 156.105 57.8231 153.421 57.8231 149.164Z" fill="#565F51"/>
<path d="M82.0977 158.112H79.6295L79.6834 147.107C79.6834 146.349 79.7643 144.911 79.7913 144.776L79.6834 144.749C79.6026 145.049 79.2221 146.322 79.0065 146.783L73.8274 158.169H72.3088L66.941 146.591C66.5337 145.723 66.3719 144.884 66.3449 144.749L66.2371 144.776C66.2641 144.911 66.3449 146.349 66.3449 147.107L66.3989 158.112H63.9307V140.22H66.6145L72.0362 152.094C72.3627 152.825 72.8779 154.128 73.0397 154.589H73.0936C73.2284 154.128 73.7975 152.828 74.124 152.094L79.5456 140.22H82.0947V158.112H82.0977Z" fill="#565F51"/>
<path d="M104.83 158.112H102.362L102.415 147.107C102.415 146.349 102.496 144.911 102.523 144.776L102.415 144.749C102.335 145.049 101.954 146.322 101.739 146.783L96.5595 158.169H95.0408L89.6731 146.591C89.2657 145.723 89.104 144.884 89.077 144.749L88.9692 144.776C88.9961 144.911 89.077 146.349 89.077 147.107L89.1309 158.112H86.6627V140.22H89.3466L94.7682 152.094C95.0947 152.825 95.61 154.128 95.7717 154.589H95.8256C95.9604 154.128 96.5295 152.828 96.856 152.094L102.278 140.22H104.827V158.112H104.83Z" fill="#565F51"/>
<path d="M125.213 149.164C125.213 154.748 121.715 158.273 116.808 158.273C111.929 158.273 108.403 154.748 108.403 149.164C108.403 143.581 111.929 140.055 116.808 140.055C121.715 140.055 125.213 143.581 125.213 149.164ZM122.718 149.164C122.718 144.908 120.277 142.224 116.808 142.224C113.367 142.224 110.898 144.908 110.898 149.164C110.898 153.421 113.367 156.105 116.808 156.105C120.28 156.105 122.718 153.421 122.718 149.164Z" fill="#565F51"/>
<path d="M143.416 149.164C143.416 155.401 140.11 158.112 135.176 158.112H128.832V140.22H134.254C140.107 140.217 143.416 143.554 143.416 149.164ZM140.921 149.164C140.921 144.584 138.51 142.305 134.227 142.305H131.3V156.021H135.149C138.48 156.024 140.921 153.963 140.921 149.164Z" fill="#565F51"/>
<path d="M147.08 140.217H149.548V158.109H147.08V140.217Z" fill="#565F51"/>
<path d="M157.914 142.305H152.166V140.217H166.127V142.305H160.379V158.109H157.911V142.305H157.914Z" fill="#565F51"/>
<path d="M168.778 140.217H171.247V158.109H168.778V140.217Z" fill="#565F51"/>
<path d="M178.208 142.305V147.781H185.879V149.868H178.208V156.021H186.829V158.109H175.74V140.217H186.829V142.305H178.208Z" fill="#565F51"/>
<path d="M195.922 142.224C193.835 142.224 192.481 143.228 192.481 144.935C192.481 148.73 202.267 146.804 202.267 153.502C202.267 156.374 199.745 158.273 195.896 158.273C192.696 158.273 190.393 157.081 189.309 156.159L190.854 154.233C191.585 154.883 193.185 156.102 195.896 156.102C198.364 156.102 199.825 155.098 199.825 153.499C199.825 148.727 189.986 151.058 189.986 144.959C189.986 142.032 192.427 140.052 195.922 140.052C200.775 140.052 201.832 143.144 202.159 144.417L199.855 144.986C199.691 144.042 198.714 142.224 195.922 142.224Z" fill="#565F51"/>
<path d="M251.253 156.024V158.112H239.868V140.22H242.336V156.024H251.253Z" fill="#565F51"/>
<path d="M269.007 149.164C269.007 154.748 265.511 158.273 260.602 158.273C255.723 158.273 252.197 154.748 252.197 149.164C252.197 143.581 255.723 140.055 260.602 140.055C265.511 140.055 269.007 143.581 269.007 149.164ZM266.515 149.164C266.515 144.908 264.077 142.224 260.605 142.224C257.163 142.224 254.695 144.908 254.695 149.164C254.695 153.421 257.163 156.105 260.605 156.105C264.074 156.105 266.515 153.421 266.515 149.164Z" fill="#565F51"/>
<path d="M286.815 158.112H285.323C285.242 157.839 285.05 156.839 284.943 155.59C283.939 157.432 281.986 158.273 279.548 158.273C274.83 158.273 271.658 154.64 271.658 149.164C271.658 143.662 275.019 140.055 279.71 140.055C284.724 140.055 286.488 143.524 286.488 145.831L284.212 146.211C284.212 144.504 282.966 142.227 279.74 142.227C276.675 142.227 274.156 144.722 274.156 149.167C274.156 153.316 276.325 156.108 279.904 156.108C283.157 156.108 284.784 154.047 284.784 151.716V151.336H279.063V149.275H286.815V158.112Z" fill="#565F51"/>
<path d="M290.915 140.217H293.384V158.109H290.915V140.217Z" fill="#565F51"/>
<path d="M303.05 142.224C300.962 142.224 299.608 143.228 299.608 144.935C299.608 148.73 309.394 146.807 309.394 153.502C309.394 156.374 306.872 158.273 303.023 158.273C299.824 158.273 297.52 157.081 296.436 156.159L297.981 154.233C298.712 154.883 300.312 156.105 303.023 156.105C305.491 156.105 306.953 155.101 306.953 153.502C306.953 148.73 297.113 151.06 297.113 144.962C297.113 142.035 299.554 140.055 303.05 140.055C307.902 140.055 308.96 143.147 309.286 144.42L306.983 144.989C306.818 144.039 305.844 142.224 303.05 142.224Z" fill="#565F51"/>
<path d="M316.9 142.305H311.152V140.217H325.114V142.305H319.366V158.109H316.897V142.305H316.9Z" fill="#565F51"/>
<path d="M327.762 140.217H330.23V158.109H327.762V140.217Z" fill="#565F51"/>
<path d="M348.655 146.1L346.324 146.481C346.324 144.773 345.132 142.224 341.906 142.224C338.815 142.224 336.296 144.746 336.296 149.164C336.296 154.098 339.195 156.105 342.34 156.105C344.671 156.105 346.381 154.694 347.328 153.394L348.819 154.913C348.277 155.67 346.243 158.273 342.286 158.273C337.245 158.273 333.8 154.913 333.8 149.164C333.8 143.662 337.161 140.055 341.879 140.055C346.893 140.055 348.628 143.77 348.655 146.1Z" fill="#565F51"/>
<path d="M357.398 142.224C355.31 142.224 353.956 143.228 353.956 144.935C353.956 148.73 363.742 146.807 363.742 153.502C363.742 156.374 361.22 158.273 357.371 158.273C354.172 158.273 351.869 157.081 350.784 156.159L352.33 154.233C353.061 154.883 354.66 156.105 357.371 156.105C359.839 156.105 361.301 155.101 361.301 153.502C361.301 148.73 351.461 151.06 351.461 144.962C351.461 142.035 353.899 140.055 357.398 140.055C362.251 140.055 363.308 143.147 363.634 144.42L361.331 144.989C361.163 144.039 360.19 142.224 357.398 142.224Z" fill="#565F51"/>
<path d="M225.289 155.482L226.943 157.381L225.101 158.681L223.609 156.946C222.336 157.758 220.736 158.219 218.891 158.219C215.231 158.219 212.793 156.159 212.793 153.232C212.793 150.818 214.311 149.437 216.399 148.649C215.587 147.727 214.746 146.48 214.746 144.773C214.746 142.197 216.78 140.328 219.49 140.328C222.255 140.328 223.989 142.116 223.989 144.369C223.989 146.591 222.471 148.11 219.841 149.167L223.825 153.777C224.529 152.72 224.882 151.282 224.882 149.467L227.051 150.171C227.051 152.283 226.428 154.098 225.289 155.482ZM222.171 155.29L217.618 150.003C216.154 150.572 215.342 151.549 215.342 152.956C215.342 154.718 216.753 155.994 218.894 155.994C220.191 155.997 221.276 155.751 222.171 155.29ZM217.103 144.638C217.103 146.022 217.972 147.053 218.676 147.837C221.198 146.861 221.767 145.965 221.767 144.638C221.767 143.227 220.844 142.281 219.49 142.281C218.05 142.278 217.103 143.227 217.103 144.638Z" fill="#565F51"/>
</svg>
